# This file uses meters as units for non-parametric coordinates.

mtllib badgething.mtl
g default
v 262.259620 641.826063 118.941081
v -369.164574 383.957029 71.153641
v -256.531118 636.193456 117.897302
v -256.531118 131.720535 24.410030
v 256.531118 131.720535 24.410030
v 0.000000 20.972781 3.886598
v 256.531118 636.193456 117.897302
v 369.164632 383.957029 71.153641
v 0.000000 746.941322 138.420758
v 262.259620 643.476690 110.034967
v -256.609610 639.318610 100.052438
v -256.505145 639.469062 100.080305
v -256.352249 639.571720 100.099337
v -262.337911 644.950944 101.096116
v -262.233648 645.099210 101.133249
v -262.081184 645.196866 101.178954
v -369.084642 387.079016 53.308172
v -369.122881 387.257979 53.341319
v -369.084642 387.436938 53.374483
v -377.328586 387.079698 53.308284
v -377.366623 387.255994 53.352028
v -377.328586 387.428855 53.415257
v -256.607364 135.191972 6.629337
v -256.510616 135.037957 6.600790
v -256.374421 134.916015 6.578201
v -262.338141 129.564732 5.586463
v -262.233648 129.414395 5.558604
v -262.080752 129.311705 5.539589
v -0.181999 16.246478 -15.413302
v -0.000002 16.208905 -15.420248
v 0.182010 16.246478 -15.413302
v 0.194647 24.358036 -13.911954
v 0.000002 24.294171 -13.921932
v -0.181996 24.352154 -13.911185
v 0.000002 24.314930 -14.148359
v 262.080723 129.311705 5.539589
v 262.233619 129.414395 5.558604
v 262.338113 129.564732 5.586463
v 256.531118 135.054330 6.418730
v 256.609639 135.197041 6.630273
v 256.505145 135.046702 6.602429
v 256.352249 134.943988 6.583382
v 377.328385 387.079016 53.308172
v 377.366565 387.257979 53.341319
v 377.328385 387.436938 53.374483
v 369.084700 387.436938 53.374483
v 369.122881 387.257979 53.341319
v 369.084700 387.079016 53.308172
v 262.372550 644.871924 101.090485
v 262.338141 644.950488 101.096046
v 262.246634 645.113736 101.126291
v 262.080752 645.203658 101.142934
v 262.259620 645.086092 101.346891
v 256.352221 639.571720 100.099337
v 256.505117 639.469062 100.080305
v 256.609610 639.318610 100.052438
v -0.181384 758.270002 122.095962
v 0.000007 758.305108 122.113537
v 0.181413 758.262259 122.136798
v -0.181989 750.163660 120.593809
v -0.000006 750.201200 120.600773
v 0.181992 750.163660 120.593809
v 377.366594 383.957029 71.153641
v 377.328413 384.135989 71.186805
v 377.226310 383.957029 71.153641
v 377.328413 383.778069 71.120477
v 377.328413 385.428568 62.214265
v 377.366594 385.607441 62.247425
v 377.328413 385.786347 62.280561
v 262.233648 126.113482 23.370888
v 262.338141 126.263816 23.398760
v 262.130940 126.214499 23.389611
v 262.080752 126.010767 23.351853
v 262.338141 127.914279 14.492586
v 262.233648 127.764057 14.464741
v 262.080752 127.661253 14.445706
v 0.000000 12.908010 2.392095
v 0.182012 12.945556 2.399027
v 0.000000 13.046036 2.417645
v -0.181997 12.945556 2.399027
v 0.182011 14.596024 -6.507172
v -0.000001 14.558480 -6.514116
v -0.181998 14.596024 -6.507172
v -262.233648 126.113482 23.370888
v -262.080752 126.010767 23.351853
v -262.130940 126.214499 23.389611
v -262.338141 126.263816 23.398760
v -262.080752 127.661253 14.445706
v -262.233648 127.764057 14.464741
v -262.338141 127.914279 14.492586
v -377.366594 383.957029 71.153641
v -377.328356 383.778069 71.120477
v -377.226310 383.957029 71.153641
v -377.328356 384.135989 71.186805
v -377.328356 385.428568 62.214265
v -377.366594 385.607441 62.247425
v -377.328356 385.786347 62.280561
v -262.233648 641.800582 118.936359
v -262.338141 641.650190 118.908489
v -262.130940 641.699510 118.917622
v -262.080752 641.903298 118.955394
v -262.080752 643.553754 110.049255
v -262.233648 643.451037 110.030227
v -262.338141 643.300648 110.002336
v 0.000000 755.006103 139.915208
v -0.181997 754.968564 139.908237
v 0.000000 754.868102 139.889679
v 0.182012 754.968564 139.908237
v 0.182001 756.619033 131.002027
v 0.000018 756.656734 131.009073
v -0.181994 756.619033 131.002027
v -369.084642 387.904249 48.855075
v -369.122881 388.083207 48.888246
v -369.084642 388.262167 48.921410
v -256.609610 640.143851 95.599298
v -256.505145 640.294303 95.627165
v -256.352249 640.396961 95.646196
v -256.352192 135.769425 2.130294
v -256.505088 135.872167 2.149341
v -256.609610 136.022504 2.177201
v 256.352221 640.396961 95.646196
v 256.505117 640.294303 95.627165
v 256.609610 640.143851 95.599298
v 369.084700 388.262167 48.921410
v 369.122881 388.083207 48.888246
v 369.084700 387.904249 48.855075
v -0.181989 750.988889 116.140732
v -0.000006 751.026424 116.147725
v 0.181992 750.988889 116.140732
v -355.894816 387.904249 48.855075
v -355.932939 388.083207 48.888246
v -355.894816 388.262167 48.921410
v -247.444029 631.131665 93.929139
v -247.339507 631.282054 93.957030
v -247.186611 631.384879 93.976107
v -247.186611 144.781589 3.800415
v -247.339507 144.884307 3.819435
v -247.443971 145.034641 3.847308
v 256.276003 135.735677 2.128621
v 256.352249 135.769425 2.130294
v 256.518132 135.859484 2.146991
v 256.609639 136.022504 2.177201
v 256.531118 135.806394 2.361731
v 247.444029 145.034641 3.847308
v 247.339535 144.884307 3.819435
v 247.186639 144.781589 3.800415
v -0.259629 25.210070 -18.353546
v -0.181996 25.177384 -18.364267
v 0.000002 25.119402 -18.375014
v 0.182014 25.177384 -18.364267
v 0.000002 25.058695 -18.161679
v 0.182014 38.146423 -15.960869
v 0.000002 38.108998 -15.967823
v -0.181995 38.146423 -15.960869
v 247.186611 631.384879 93.976107
v 247.339507 631.282054 93.957030
v 247.444000 631.131665 93.929139
v 355.894816 388.262167 48.921410
v 355.932997 388.083207 48.888246
v 355.894816 387.904249 48.855075
v -0.181989 738.019844 113.737213
v -0.000006 738.057384 113.744177
v 0.181991 738.019844 113.737213
v -355.894816 388.729479 44.401995
v -355.932939 388.908437 44.435166
v -355.894816 389.087399 44.468320
v -247.444029 631.956900 89.476034
v -247.339507 632.107291 89.503911
v -247.186611 632.210121 89.522960
v -247.186611 145.606821 -0.652674
v -247.339507 145.709536 -0.633639
v -247.443971 145.859870 -0.605767
v 247.444029 145.859870 -0.605767
v 247.339535 145.709536 -0.633639
v 247.186639 145.606821 -0.652674
v 0.182014 38.971660 -20.413986
v 0.000002 38.934232 -20.420924
v -0.181995 38.971660 -20.413986
v 247.186611 632.210121 89.522960
v 247.339507 632.107291 89.503911
v 247.444000 631.956900 89.476034
v 355.894816 389.087399 44.468320
v 355.932997 388.908437 44.435166
v 355.894816 388.729479 44.401995
v -0.181989 738.844940 109.284222
v -0.000006 738.882595 109.291200
v 0.181991 738.844940 109.284222
v -344.353617 388.729479 44.401995
v -344.391855 388.908437 44.435166
v -344.353617 389.087399 44.468320
v -239.424145 624.070938 88.014714
v -239.319638 624.221223 88.042535
v -239.166756 624.324048 88.061612
v -239.166727 153.492499 0.808673
v -239.319609 153.595246 0.827698
v -239.424116 153.745595 0.855564
v 239.424145 153.745595 0.855564
v 239.319638 153.595246 0.827698
v 239.166756 153.492499 0.808673
v 0.182000 50.319617 -18.311019
v 0.000002 50.282136 -18.317987
v -0.181995 50.319617 -18.311019
v 239.166727 624.324048 88.061612
v 239.319609 624.221223 88.042535
v 239.424116 624.070938 88.014714
v 344.353675 389.087399 44.468320
v 344.391855 388.908437 44.435166
v 344.353675 388.729479 44.401995
v -0.181990 727.497022 107.181204
v -0.000007 727.534562 107.188169
v 0.181991 727.497022 107.181204
v -344.353617 389.554710 39.948911
v -344.391855 389.733669 39.982075
v -344.353617 389.912626 40.015254
v -239.424145 624.896171 83.561616
v -239.319638 625.046276 83.589462
v -239.166756 625.149337 83.608532
v -239.166727 154.317732 -3.644424
v -239.319609 154.420546 -3.625368
v -239.424116 154.570799 -3.597531
v 239.424145 154.570799 -3.597531
v 239.319638 154.420546 -3.625368
v 239.166756 154.317732 -3.644424
v 0.182000 51.144846 -22.764095
v 0.000002 51.107363 -22.771053
v -0.181995 51.144846 -22.764095
v 239.166727 625.149337 83.608532
v 239.319609 625.046276 83.589462
v 239.424116 624.896171 83.561616
v 344.353675 389.912626 40.015254
v 344.391855 389.733669 39.982075
v 344.353675 389.554710 39.948911
v -0.181990 728.322287 102.728252
v -0.000007 728.359953 102.735166
v 0.181991 728.322287 102.728252
v -331.163791 389.554710 39.948911
v -331.201914 389.733669 39.982075
v -331.163791 389.912626 40.015254
v -230.258535 615.884205 81.891534
v -230.154028 616.034541 81.919394
v -230.001146 616.137265 81.938386
v -230.001117 163.329939 -1.974297
v -230.153999 163.432644 -1.955283
v -230.258506 163.582965 -1.927422
v 230.258535 163.582965 -1.927422
v 230.154028 163.432644 -1.955283
v 230.001146 163.329939 -1.974297
v 0.182000 64.114032 -20.360704
v 0.000017 64.076460 -20.367655
v -0.181995 64.114032 -20.360704
v 230.001132 616.137265 81.938386
v 230.154013 616.034541 81.919394
v 230.258521 615.884205 81.891534
v 331.163791 389.912626 40.015254
v 331.201972 389.733669 39.982075
v 331.163791 389.554710 39.948911
v -0.182005 715.353284 100.324820
v -0.000007 715.390824 100.331785
v 0.181990 715.353284 100.324820
v -331.163791 390.655160 34.011484
v -331.201914 390.834119 34.044655
v -331.163791 391.013078 34.077823
v -230.258535 616.984395 75.954092
v -230.154028 617.134675 75.981941
v -230.001146 617.237560 76.001007
v -230.001117 164.430205 -7.911755
v -230.153999 164.533020 -7.892702
v -230.258506 164.683272 -7.864865
v 230.258535 164.683272 -7.864865
v 230.154028 164.533020 -7.892702
v 230.001146 164.430205 -7.911755
v 0.182000 65.214308 -26.298134
v 0.000017 65.176768 -26.305101
v -0.181995 65.214308 -26.298134
v 230.001132 617.237560 76.001007
v 230.154013 617.134675 75.981941
v 230.258521 616.984395 75.954092
v 331.163791 391.013078 34.077823
v 331.201972 390.834119 34.044655
v 331.163791 390.655160 34.011484
v -0.182005 716.453591 94.387378
v -0.000007 716.491132 94.394335
v 0.181990 716.453591 94.387378
v -321.271363 390.655160 34.011484
v -321.309544 390.834119 34.044655
v -321.271363 391.013078 34.077823
v -223.384335 610.225373 74.701547
v -223.279827 610.375716 74.729371
v -223.126946 610.478432 74.748406
v -223.126917 171.189351 -6.659172
v -223.279798 171.292083 -6.640145
v -223.384306 171.442333 -6.612291
v 223.384335 171.442333 -6.612291
v 223.279827 171.292083 -6.640145
v 223.126946 171.189351 -6.659172
v 0.182000 74.940985 -24.495629
v 0.000017 74.903443 -24.502586
v -0.181995 74.940985 -24.495629
v 223.126931 610.478432 74.748406
v 223.279813 610.375716 74.729371
v 223.384321 610.225373 74.701547
v 321.271363 391.013078 34.077823
v 321.309544 390.834119 34.044655
v 321.271363 390.655160 34.011484
v -0.182005 706.726747 92.584824
v 0.000007 706.764460 92.591806
v 0.181990 706.726747 92.584824
v -321.309544 386.707969 56.310056
v -223.086116 606.275103 96.999508
v -223.305799 606.059026 96.959465
v -223.292813 606.262364 96.997140
v -223.292785 167.153132 15.622907
v -223.305771 167.356429 15.660564
v -223.086087 167.140351 15.620529
v 223.292813 167.153148 15.622897
v 223.086116 167.140351 15.620529
v 223.305799 167.356429 15.660564
v 0.000017 70.777293 -2.237184
v 223.292799 606.262364 96.997140
v 223.305785 606.059026 96.959465
v 223.086101 606.275103 96.999508
v 321.309544 386.707969 56.310056
v 0.000007 702.638185 114.857245
v -321.271363 386.886957 56.343225
v -223.384335 606.099236 96.966880
v -223.126946 606.352339 97.013814
v -0.182005 702.600645 114.850281
v -321.271363 386.529012 56.276874
v -223.384306 167.316253 15.653123
v 223.126946 167.063188 15.606220
v 0.182000 70.814834 -2.230223
v -223.126917 167.063188 15.606220
v -0.181995 70.814834 -2.230223
v 223.384321 606.099236 96.966880
v 321.271363 386.886957 56.343225
v 223.384335 167.316238 15.653124
v 321.271363 386.529012 56.276874
v 223.126931 606.352339 97.013814
v 0.181990 702.600645 114.850281
v -221.916548 171.413782 16.412461
v -218.959652 168.506388 15.873671
v -221.916706 602.001409 96.207492
v -218.960775 604.908700 96.746283
v 218.960761 604.908700 96.746283
v 221.916692 602.001409 96.207492
v 221.916750 171.414177 16.412540
v 218.959681 168.506388 15.873671
v -318.224558 386.708010 56.310060
v 0.000017 73.810661 -1.675049
v 318.224558 386.708010 56.310060
v 0.000007 699.604732 114.295096
vt 0.608311 0.793588
vt 0.608311 0.793505
vt 0.612416 0.793505
vt 0.612416 0.793588
vt 0.608311 0.793423
vt 0.612416 0.793423
vt 0.616517 0.793505
vt 0.616521 0.793587
vt 0.612416 0.912286
vt 0.608311 0.912286
vt 0.608311 0.674724
vt 0.612416 0.674724
vt 0.616503 0.793423
vt 0.616521 0.912286
vt 0.608311 0.912356
vt 0.612416 0.912356
vt 0.608311 0.674655
vt 0.612416 0.674655
vt 0.616521 0.912356
vt 0.608311 0.912403
vt 0.612416 0.912403
vt 0.608311 0.674608
vt 0.612416 0.674608
vt 0.616517 0.674655
vt 0.616521 0.674724
vt 0.616521 0.912403
vt 0.616505 0.674608
vt 0.628008 0.912367
vt 0.628008 0.793588
vt 0.632109 0.912251
vt 0.632013 0.912367
vt 0.623903 0.912367
vt 0.623903 0.793588
vt 0.632113 0.793588
vt 0.632113 0.912361
vt 0.623903 0.793505
vt 0.628008 0.793505
vt 0.632113 0.793505
vt 0.632113 0.912286
vt 0.623903 0.793423
vt 0.628008 0.793423
vt 0.632113 0.793423
vt 0.623903 0.674724
vt 0.628008 0.674724
vt 0.632113 0.674724
vt 0.623903 0.674655
vt 0.628008 0.674655
vt 0.632113 0.674655
vt 0.623903 0.674608
vt 0.628008 0.674608
vt 0.632113 0.674608
vt 0.680422 0.802792
vt 0.680422 0.686690
vt 0.682475 0.686690
vt 0.682475 0.802792
vt 0.680422 0.686620
vt 0.682475 0.686620
vt 0.680422 0.802874
vt 0.682475 0.802874
vt 0.680422 0.686573
vt 0.682475 0.686573
vt 0.680422 0.802957
vt 0.682475 0.802957
vt 0.680422 0.919062
vt 0.682475 0.919059
vt 0.680422 0.919133
vt 0.682475 0.919128
vt 0.682475 0.919176
vt 0.670678 0.919059
vt 0.670678 0.802957
vt 0.672730 0.802957
vt 0.672730 0.919059
vt 0.670678 0.802874
vt 0.672730 0.802874
vt 0.670678 0.919129
vt 0.672730 0.919129
vt 0.670678 0.802792
vt 0.672730 0.802792
vt 0.670678 0.919176
vt 0.672730 0.919176
vt 0.672730 0.686690
vt 0.670678 0.686689
vt 0.672630 0.686609
vt 0.670760 0.686608
vt 0.672730 0.686614
vt 0.670678 0.686620
vt 0.670678 0.686573
vt 0.719401 0.798638
vt 0.719401 0.686690
vt 0.721454 0.686690
vt 0.721454 0.798638
vt 0.719401 0.686620
vt 0.721454 0.686620
vt 0.719401 0.798720
vt 0.721454 0.798720
vt 0.719401 0.686573
vt 0.721454 0.686573
vt 0.719401 0.798803
vt 0.721454 0.798803
vt 0.719401 0.910751
vt 0.721454 0.910751
vt 0.719401 0.910820
vt 0.721454 0.910820
vt 0.709657 0.910751
vt 0.709657 0.798803
vt 0.711709 0.798803
vt 0.711709 0.910751
vt 0.709657 0.798720
vt 0.711709 0.798720
vt 0.709657 0.910820
vt 0.711709 0.910820
vt 0.709657 0.798638
vt 0.711709 0.798638
vt 0.709657 0.910868
vt 0.711709 0.910868
vt 0.709657 0.686689
vt 0.711709 0.686689
vt 0.709657 0.686620
vt 0.711709 0.686620
vt 0.709657 0.686573
vt 0.711709 0.686573
vt 0.748636 0.795003
vt 0.748636 0.686690
vt 0.750688 0.686690
vt 0.750688 0.795003
vt 0.748636 0.686620
vt 0.750688 0.686620
vt 0.748636 0.795085
vt 0.750688 0.795085
vt 0.748636 0.686573
vt 0.750688 0.686573
vt 0.748636 0.795168
vt 0.750688 0.795168
vt 0.748636 0.903481
vt 0.750688 0.903481
vt 0.748636 0.903551
vt 0.750688 0.903551
vt 0.768125 0.903434
vt 0.768125 0.795121
vt 0.770178 0.795121
vt 0.770178 0.903434
vt 0.768125 0.795038
vt 0.770178 0.795038
vt 0.768125 0.903503
vt 0.770178 0.903503
vt 0.768125 0.794956
vt 0.770178 0.794956
vt 0.768125 0.686642
vt 0.770178 0.686642
vt 0.768125 0.686573
vt 0.770178 0.686573
vt 0.787615 0.790849
vt 0.787615 0.686689
vt 0.790352 0.686690
vt 0.790352 0.790849
vt 0.787615 0.686620
vt 0.790352 0.686620
vt 0.787615 0.790931
vt 0.790352 0.790931
vt 0.787615 0.686573
vt 0.790352 0.686573
vt 0.787615 0.791014
vt 0.790352 0.791014
vt 0.787615 0.895173
vt 0.790352 0.895173
vt 0.787615 0.895243
vt 0.790352 0.895242
vt 0.797359 0.895126
vt 0.797359 0.790967
vt 0.800096 0.790967
vt 0.800096 0.895126
vt 0.797359 0.790884
vt 0.800096 0.790884
vt 0.797359 0.895195
vt 0.800096 0.895195
vt 0.797359 0.790802
vt 0.800096 0.790802
vt 0.797359 0.895243
vt 0.800096 0.895243
vt 0.797359 0.686642
vt 0.800096 0.686642
vt 0.797359 0.686573
vt 0.800096 0.686573
vt 0.836857 0.787857
vt 0.836857 0.888901
vt 0.826594 0.888901
vt 0.826594 0.787857
vt 0.836857 0.888970
vt 0.826594 0.787774
vt 0.836857 0.787774
vt 0.826594 0.888976
vt 0.826594 0.787692
vt 0.836857 0.787692
vt 0.836857 0.889017
vt 0.836857 0.686648
vt 0.826594 0.686648
vt 0.826594 0.686573
vt 0.836857 0.686579
vt 0.854397 0.686648
vt 0.854397 0.787692
vt 0.844134 0.787692
vt 0.844134 0.686648
vt 0.854397 0.787774
vt 0.844134 0.787774
vt 0.844134 0.686573
vt 0.844134 0.787857
vt 0.854397 0.787857
vt 0.854397 0.686579
vt 0.854397 0.888901
vt 0.844134 0.888901
vt 0.854397 0.888970
vt 0.844134 0.888976
vt 0.854397 0.889017
vt 0.354767 0.172959
vt 0.405815 0.056693
vt 0.405815 0.289225
vt 0.403277 0.054155
vt 0.638346 0.056693
vt 0.638346 0.289225
vt 0.403277 0.291763
vt 0.403183 0.054178
vt 0.522081 0.005645
vt 0.689395 0.172959
vt 0.522081 0.340273
vt 0.403183 0.291740
vt 0.351067 0.172877
vt 0.403230 0.054109
vt 0.403300 0.054061
vt 0.640884 0.054155
vt 0.693048 0.172959
vt 0.522081 0.343927
vt 0.403300 0.291857
vt 0.403230 0.291809
vt 0.351067 0.173042
vt 0.351113 0.172959
vt 0.521998 0.001945
vt 0.640862 0.054061
vt 0.640978 0.054178
vt 0.693095 0.172877
vt 0.693095 0.173042
vt 0.522163 0.343973
vt 0.521998 0.343973
vt 0.351049 0.172959
vt 0.522081 0.001991
vt 0.522163 0.001945
vt 0.640931 0.054109
vt 0.693112 0.172959
vt 0.640943 0.291821
vt 0.522081 0.343990
vt 0.522081 0.001928
vt 0.356509 0.920810
vt 0.355169 0.919470
vt 0.554984 0.920810
vt 0.354639 0.921440
vt 0.354539 0.921340
vt 0.355169 0.720995
vt 0.455746 0.964459
vt 0.354545 0.921434
vt 0.354503 0.921359
vt 0.354620 0.921475
vt 0.311520 0.820232
vt 0.556324 0.919470
vt 0.455664 0.965840
vt 0.556873 0.921475
vt 0.455829 0.965840
vt 0.310139 0.820315
vt 0.310139 0.820150
vt 0.354503 0.719106
vt 0.356508 0.719655
vt 0.556954 0.921340
vt 0.556854 0.921440
vt 0.455746 0.965857
vt 0.310121 0.820232
vt 0.354539 0.719125
vt 0.354639 0.719025
vt 0.556324 0.720995
vt 0.556948 0.921434
vt 0.556989 0.921359
vt 0.354545 0.719031
vt 0.354620 0.718990
vt 0.554984 0.719655
vt 0.599973 0.820232
vt 0.601354 0.820315
vt 0.455664 0.674625
vt 0.455746 0.676006
vt 0.556854 0.719025
vt 0.556954 0.719125
vt 0.556989 0.719106
vt 0.601354 0.820150
vt 0.601371 0.820232
vt 0.455746 0.674608
vt 0.556948 0.719031
vt 0.556873 0.718990
vt 0.455829 0.674625
vt 0.173106 0.343973
vt 0.173023 0.343990
vt 0.173023 0.340264
vt 0.173112 0.340234
vt 0.172941 0.343973
vt 0.172941 0.340237
vt 0.291804 0.291857
vt 0.054242 0.291857
vt 0.056829 0.289274
vt 0.289208 0.289261
vt 0.056767 0.289217
vt 0.054173 0.291810
vt 0.291874 0.291810
vt 0.289277 0.289213
vt 0.056723 0.289146
vt 0.054126 0.291740
vt 0.291921 0.291740
vt 0.289325 0.289144
vt 0.002009 0.173041
vt 0.005746 0.173042
vt 0.344037 0.173042
vt 0.340301 0.173042
vt 0.005728 0.172959
vt 0.344055 0.172959
vt 0.340318 0.172959
vt 0.001992 0.172959
vt 0.344037 0.172877
vt 0.340301 0.172877
vt 0.002009 0.172877
vt 0.289325 0.056774
vt 0.291921 0.054178
vt 0.005746 0.172877
vt 0.291880 0.054103
vt 0.289277 0.056705
vt 0.054126 0.054178
vt 0.291804 0.054062
vt 0.289208 0.056658
vt 0.056722 0.056774
vt 0.173106 0.005681
vt 0.056769 0.056705
vt 0.173106 0.001945
vt 0.054173 0.054109
vt 0.173023 0.005664
vt 0.054242 0.054062
vt 0.173023 0.001928
vt 0.056839 0.056658
vt 0.172941 0.001945
vt 0.172941 0.005681
vt 0.947014 0.631462
vt 0.946973 0.631537
vt 0.942813 0.627377
vt 0.942860 0.627308
vt 0.946898 0.631578
vt 0.942744 0.627424
vt 0.997991 0.515359
vt 0.992013 0.515359
vt 0.830795 0.682555
vt 0.830795 0.676577
vt 0.998008 0.515277
vt 0.992030 0.515277
vt 0.830713 0.682581
vt 0.830713 0.676594
vt 0.997991 0.515194
vt 0.992013 0.515194
vt 0.830630 0.682555
vt 0.830630 0.676577
vt 0.947014 0.399092
vt 0.942860 0.403246
vt 0.714528 0.631578
vt 0.718682 0.627424
vt 0.946967 0.399023
vt 0.942813 0.403177
vt 0.714459 0.631531
vt 0.718613 0.627377
vt 0.946898 0.398975
vt 0.942744 0.403129
vt 0.714411 0.631462
vt 0.718566 0.627308
vt 0.830795 0.347999
vt 0.830795 0.353977
vt 0.663435 0.515359
vt 0.669413 0.515359
vt 0.830713 0.347982
vt 0.830713 0.353960
vt 0.663418 0.515277
vt 0.669396 0.515277
vt 0.830630 0.347999
vt 0.830630 0.353977
vt 0.663435 0.515194
vt 0.669413 0.515194
vt 0.714528 0.398975
vt 0.718682 0.403129
vt 0.714411 0.399092
vt 0.718566 0.403246
vt 0.714459 0.399023
vt 0.718613 0.403177
vt 0.495883 0.670599
vt 0.383935 0.621446
vt 0.387570 0.617812
vt 0.495883 0.665368
vt 0.383866 0.621399
vt 0.387501 0.617764
vt 0.495966 0.670616
vt 0.495966 0.665385
vt 0.383818 0.621330
vt 0.387453 0.617695
vt 0.496048 0.670599
vt 0.496048 0.665368
vt 0.334666 0.509382
vt 0.339897 0.509382
vt 0.607996 0.621446
vt 0.604362 0.617812
vt 0.334649 0.509299
vt 0.339879 0.509299
vt 0.608066 0.621399
vt 0.604431 0.617764
vt 0.334666 0.509217
vt 0.339897 0.509217
vt 0.608113 0.621330
vt 0.604478 0.617695
vt 0.383818 0.397268
vt 0.387453 0.400903
vt 0.657265 0.509382
vt 0.652035 0.509382
vt 0.383866 0.397199
vt 0.387501 0.400834
vt 0.657283 0.509299
vt 0.652052 0.509299
vt 0.383935 0.397152
vt 0.387570 0.400786
vt 0.657265 0.509217
vt 0.652035 0.509217
vt 0.495883 0.347999
vt 0.495883 0.353230
vt 0.608113 0.397268
vt 0.604478 0.400903
vt 0.495966 0.347982
vt 0.495966 0.353213
vt 0.608066 0.397199
vt 0.604431 0.400834
vt 0.496048 0.347999
vt 0.496048 0.353230
vt 0.607996 0.397152
vt 0.604362 0.400786
vt 0.172344 0.660137
vt 0.064031 0.612581
vt 0.068185 0.608427
vt 0.172344 0.654159
vt 0.063962 0.612534
vt 0.068116 0.608379
vt 0.172427 0.660155
vt 0.172427 0.654177
vt 0.063914 0.612464
vt 0.068068 0.608310
vt 0.172509 0.660137
vt 0.172509 0.654159
vt 0.016358 0.504151
vt 0.022336 0.504151
vt 0.280823 0.612581
vt 0.276669 0.608427
vt 0.016340 0.504068
vt 0.022318 0.504068
vt 0.280892 0.612534
vt 0.276738 0.608379
vt 0.016358 0.503986
vt 0.022336 0.503986
vt 0.280939 0.612464
vt 0.276785 0.608310
vt 0.063914 0.395672
vt 0.068068 0.399826
vt 0.328496 0.504151
vt 0.322518 0.504151
vt 0.063962 0.395603
vt 0.068116 0.399757
vt 0.328513 0.504068
vt 0.322535 0.504068
vt 0.064031 0.395556
vt 0.068185 0.399710
vt 0.328496 0.503986
vt 0.322518 0.503986
vt 0.172344 0.347999
vt 0.172344 0.353977
vt 0.280939 0.395672
vt 0.276785 0.399826
vt 0.172427 0.347982
vt 0.172427 0.353960
vt 0.280892 0.395603
vt 0.276738 0.399757
vt 0.172509 0.347999
vt 0.172509 0.353977
vt 0.280823 0.395556
vt 0.276669 0.399710
vt 0.152018 0.964346
vt 0.047859 0.918613
vt 0.050974 0.915498
vt 0.152018 0.959862
vt 0.047789 0.918566
vt 0.050905 0.915450
vt 0.152100 0.964363
vt 0.152100 0.959880
vt 0.047742 0.918496
vt 0.050858 0.915381
vt 0.152183 0.964346
vt 0.152183 0.959862
vt 0.002009 0.814337
vt 0.006493 0.814337
vt 0.256342 0.918613
vt 0.253227 0.915498
vt 0.001992 0.814255
vt 0.006475 0.814255
vt 0.256412 0.918566
vt 0.253296 0.915450
vt 0.002009 0.814172
vt 0.006493 0.814172
vt 0.256459 0.918496
vt 0.253343 0.915381
vt 0.047742 0.710013
vt 0.050858 0.713128
vt 0.302191 0.814337
vt 0.297708 0.814337
vt 0.047789 0.709943
vt 0.050905 0.713059
vt 0.302209 0.814255
vt 0.297725 0.814255
vt 0.047859 0.709896
vt 0.050974 0.713012
vt 0.302191 0.814172
vt 0.297708 0.814172
vt 0.152018 0.664163
vt 0.152018 0.668647
vt 0.256459 0.710013
vt 0.253343 0.713128
vt 0.152100 0.664146
vt 0.152100 0.668630
vt 0.256412 0.709943
vt 0.253296 0.713059
vt 0.152183 0.664163
vt 0.152183 0.668647
vt 0.256342 0.709896
vt 0.253227 0.713012
vt 0.904567 0.686648
vt 0.904609 0.686573
vt 0.904552 0.686683
vt 0.896783 0.686655
vt 0.896756 0.686573
vt 0.896798 0.686691
vt 0.692219 0.802750
vt 0.690169 0.686688
vt 0.692220 0.686654
vt 0.690167 0.802756
vt 0.690267 0.686573
vt 0.692117 0.802839
vt 0.690167 0.686654
vt 0.690167 0.686579
vt 0.692137 0.686573
vt 0.692220 0.802839
vt 0.690267 0.802839
vt 0.692220 0.802921
vt 0.690169 0.802956
vt 0.690167 0.802839
vt 0.692220 0.919034
vt 0.690167 0.919024
vt 0.692220 0.919095
vt 0.690167 0.802921
vt 0.647686 0.793387
vt 0.647700 0.793470
vt 0.643600 0.793470
vt 0.643600 0.793387
vt 0.647705 0.793552
vt 0.643600 0.793552
vt 0.639494 0.793470
vt 0.639494 0.793387
vt 0.643600 0.674608
vt 0.647688 0.912251
vt 0.639494 0.793552
vt 0.639494 0.674608
vt 0.647604 0.674608
vt 0.647705 0.674689
vt 0.643600 0.912251
vt 0.639494 0.912251
vt 0.647705 0.674613
vt 0.663296 0.805271
vt 0.663296 0.805354
vt 0.659191 0.805354
vt 0.659191 0.805271
vt 0.663296 0.805436
vt 0.659191 0.805436
vt 0.655086 0.805354
vt 0.655086 0.805271
vt 0.659191 0.686573
vt 0.663296 0.686573
vt 0.663296 0.924135
vt 0.659191 0.924135
vt 0.655086 0.805436
vt 0.655086 0.686573
vt 0.655086 0.924135
vt 0.699912 0.918942
vt 0.699912 0.802840
vt 0.701964 0.802840
vt 0.701964 0.918942
vt 0.699912 0.802758
vt 0.701964 0.802758
vt 0.699912 0.802675
vt 0.701964 0.802675
vt 0.699912 0.686573
vt 0.701964 0.686573
vt 0.731199 0.686573
vt 0.731199 0.798521
vt 0.729146 0.798521
vt 0.729146 0.686573
vt 0.731199 0.798604
vt 0.729146 0.798604
vt 0.731199 0.798686
vt 0.729146 0.798686
vt 0.731199 0.910634
vt 0.729146 0.910634
vt 0.731199 0.910703
vt 0.729146 0.910703
vt 0.738891 0.910634
vt 0.738891 0.798686
vt 0.740944 0.798686
vt 0.740944 0.910634
vt 0.738891 0.798604
vt 0.740944 0.798604
vt 0.738891 0.798521
vt 0.740944 0.798521
vt 0.738891 0.686573
vt 0.740944 0.686573
vt 0.760433 0.686642
vt 0.760433 0.794956
vt 0.758380 0.794956
vt 0.758380 0.686642
vt 0.760433 0.795038
vt 0.758380 0.795038
vt 0.760433 0.686573
vt 0.758380 0.686573
vt 0.760433 0.795121
vt 0.758380 0.795121
vt 0.760433 0.903434
vt 0.758380 0.903434
vt 0.760433 0.903503
vt 0.758380 0.903503
vt 0.777870 0.903434
vt 0.777870 0.795121
vt 0.779923 0.795121
vt 0.779923 0.903434
vt 0.777870 0.795038
vt 0.779923 0.795038
vt 0.777870 0.794956
vt 0.779923 0.794956
vt 0.777870 0.686642
vt 0.779923 0.686642
vt 0.777870 0.686573
vt 0.779923 0.686573
vt 0.809841 0.686642
vt 0.809841 0.790801
vt 0.807104 0.790801
vt 0.807104 0.686642
vt 0.809841 0.790884
vt 0.807104 0.790884
vt 0.809841 0.686573
vt 0.807104 0.686573
vt 0.809841 0.790966
vt 0.807104 0.790966
vt 0.809841 0.895126
vt 0.807104 0.895126
vt 0.809841 0.895195
vt 0.807104 0.895195
vt 0.816849 0.895057
vt 0.816849 0.790897
vt 0.819586 0.790897
vt 0.819586 0.895057
vt 0.816849 0.790815
vt 0.819586 0.790815
vt 0.816849 0.790732
vt 0.819586 0.790732
vt 0.816849 0.686573
vt 0.819586 0.686573
vt 0.871938 0.686648
vt 0.871938 0.787692
vt 0.861675 0.787692
vt 0.861675 0.686648
vt 0.871938 0.787774
vt 0.861675 0.787774
vt 0.861675 0.686573
vt 0.861675 0.787857
vt 0.871938 0.787857
vt 0.871938 0.888901
vt 0.861675 0.888901
vt 0.871938 0.888970
vt 0.861675 0.888976
vt 0.879216 0.888901
vt 0.879216 0.787857
vt 0.889479 0.787857
vt 0.889479 0.888901
vt 0.879216 0.787774
vt 0.889479 0.787774
vt 0.889479 0.888976
vt 0.889479 0.787692
vt 0.879216 0.787692
vt 0.879216 0.686648
vt 0.889479 0.686648
vt 0.879216 0.686579
vt 0.889479 0.686573
vn -0.000000 -0.182214 0.983259
vn -0.000000 -0.182214 0.983259
vn -0.000000 -0.182214 0.983259
vn 0.000000 -0.182214 0.983259
vn 0.000000 -0.182214 0.983259
vn 0.000000 -0.182214 0.983259
vn 0.000000 -0.182214 0.983259
vn -0.000000 -0.182214 0.983259
vn 0.000003 -0.182211 0.983259
vn 0.000002 -0.182214 0.983259
vn 0.000000 -0.182214 0.983259
vn 0.402018 -0.900307 -0.166821
vn 0.402020 -0.900294 -0.166885
vn 0.402021 -0.900295 -0.166876
vn 0.403027 -0.899583 -0.168281
vn 0.707068 -0.695822 -0.126039
vn 0.000005 -0.182219 0.983258
vn -0.000031 -0.182202 0.983261
vn -0.000000 -0.182214 0.983259
vn 0.000005 -0.182226 0.983257
vn -0.000000 -0.182212 0.983259
vn -0.000000 -0.182213 0.983259
vn -0.000005 -0.182219 0.983258
vn -0.000005 -0.182226 0.983257
vn 0.000000 -0.182213 0.983259
vn 0.000031 -0.182202 0.983261
vn 0.000000 -0.182214 0.983259
vn 0.000000 -0.182214 0.983259
vn -0.000003 -0.182211 0.983259
vn 0.000025 -0.182224 0.983257
vn -0.000000 -0.182214 0.983259
vn 0.000008 -0.182235 0.983255
vn 0.000005 -0.182203 0.983261
vn -0.000005 -0.182202 0.983261
vn 0.000094 -0.182018 0.983295
vn 0.402094 -0.899763 -0.169548
vn 0.402018 -0.900306 -0.166824
vn 0.400708 -0.901102 -0.165677
vn 0.400031 -0.900913 -0.168320
vn -0.000000 0.182215 -0.983259
vn 0.000000 0.182214 -0.983259
vn 0.000000 0.182214 -0.983259
vn 0.000000 0.182214 -0.983259
vn -0.000000 0.182214 -0.983259
vn 0.000000 0.182214 -0.983259
vn -0.000000 0.182216 -0.983259
vn -0.000000 0.182214 -0.983259
vn -0.402260 0.900207 0.166774
vn -0.715971 0.686450 0.127170
vn -0.707265 0.695118 0.128796
vn -0.402166 0.900242 0.166813
vn -0.915538 0.395503 0.073266
vn -0.915567 0.395435 0.073270
vn -0.402199 -0.898793 -0.174377
vn -0.788302 -0.604355 -0.115480
vn -0.402122 -0.898812 -0.174458
vn -0.759964 -0.638791 -0.120006
vn -0.915588 -0.395384 -0.073285
vn -0.915588 -0.395383 -0.073285
vn 0.000087 0.181996 -0.983299
vn -0.002454 0.182159 -0.983266
vn -0.002459 0.182159 -0.983266
vn 0.000092 0.181999 -0.983299
vn 0.000001 0.182217 -0.983258
vn 0.000001 0.182217 -0.983258
vn -0.000003 0.182215 -0.983259
vn -0.000024 0.182201 -0.983261
vn -0.000024 0.182201 -0.983261
vn -0.000003 0.182215 -0.983259
vn 0.000005 0.182218 -0.983258
vn 0.000003 0.182224 -0.983257
vn -0.000004 0.182212 -0.983259
vn 0.000000 0.182165 -0.983268
vn 0.000000 0.182165 -0.983268
vn -0.000004 0.182212 -0.983259
vn -0.000003 0.182215 -0.983259
vn -0.000003 0.182215 -0.983259
vn 0.000042 0.182316 -0.983240
vn 0.000037 0.182178 -0.983266
vn 0.000029 0.182174 -0.983266
vn -0.000005 0.182203 -0.983261
vn -0.000004 0.182213 -0.983259
vn -0.000004 0.182212 -0.983259
vn 0.401751 0.900417 0.166869
vn -0.015309 0.983142 0.182204
vn 0.000033 0.983257 0.182224
vn 0.401858 0.900371 0.166862
vn -0.401787 0.900398 0.166883
vn -0.401859 0.900370 0.166861
vn 0.915583 -0.395398 -0.073274
vn 0.707054 -0.695320 -0.128859
vn 0.707033 -0.695342 -0.128859
vn 0.915583 -0.395397 -0.073275
vn 0.402130 -0.900254 -0.166834
vn 0.402130 -0.900255 -0.166833
vn 0.401898 -0.900355 -0.166852
vn 0.000000 -0.983259 -0.182214
vn 0.000000 -0.983259 -0.182214
vn 0.401898 -0.900355 -0.166852
vn -0.401898 -0.900355 -0.166852
vn -0.401898 -0.900355 -0.166851
vn -0.402130 -0.900254 -0.166834
vn -0.707054 -0.695320 -0.128860
vn -0.707033 -0.695342 -0.128859
vn -0.402130 -0.900255 -0.166833
vn -0.915583 -0.395398 -0.073274
vn -0.915583 -0.395397 -0.073275
vn -0.915684 -0.395170 -0.073232
vn -1.000000 0.000001 -0.000002
vn -1.000000 -0.000121 -0.000018
vn -0.915684 -0.395170 -0.073233
vn -0.915684 0.395170 0.073229
vn -0.915702 0.395130 0.073224
vn -0.000000 0.182214 -0.983259
vn 0.000006 0.182221 -0.983258
vn 0.000005 0.182223 -0.983257
vn -0.000000 0.182214 -0.983259
vn -0.000000 0.182215 -0.983259
vn -0.000001 0.182216 -0.983259
vn -0.000000 0.182216 -0.983259
vn -0.000001 0.182213 -0.983259
vn -0.000000 0.182215 -0.983259
vn -0.000001 0.182216 -0.983259
vn 0.000000 0.182215 -0.983259
vn 0.000001 0.182216 -0.983259
vn -0.005038 0.184404 -0.982838
vn -0.000068 0.182293 -0.983244
vn -0.004975 0.184205 -0.982875
vn 0.000011 0.182210 -0.983260
vn 0.000004 0.182216 -0.983259
vn 0.000003 0.182247 -0.983253
vn 0.000004 0.182216 -0.983259
vn 0.000004 0.182216 -0.983259
vn 0.000001 0.182217 -0.983258
vn 0.000001 0.182217 -0.983258
vn -0.000073 0.182205 -0.983260
vn -0.000159 0.182261 -0.983250
vn -0.001799 0.186575 -0.982439
vn -0.001948 0.186573 -0.982439
vn 0.002226 0.187155 -0.982328
vn 0.002023 0.187093 -0.982340
vn 0.915631 0.395291 0.073247
vn 0.915702 0.395130 0.073225
vn 0.915631 0.395295 0.073230
vn 0.915631 0.395295 0.073229
vn 0.915684 -0.395170 -0.073233
vn 0.915583 -0.395397 -0.073276
vn 0.915684 -0.395169 -0.073234
vn 0.401898 -0.900355 -0.166851
vn 0.402130 -0.900255 -0.166833
vn -0.402130 -0.900255 -0.166832
vn -0.401898 -0.900355 -0.166851
vn -0.915682 -0.395174 -0.073235
vn -0.915583 -0.395397 -0.073276
vn -0.915749 0.395024 0.073208
vn 0.402021 0.900305 0.166823
vn 0.402023 0.900315 0.166768
vn 0.402023 0.900315 0.166768
vn 0.915631 0.395290 0.073255
vn 0.915684 0.395170 0.073233
vn 0.915684 -0.395170 -0.073232
vn -0.915583 0.395398 0.073271
vn -0.402130 0.900255 0.166832
vn -0.401899 0.900355 0.166851
vn 0.401898 0.900353 0.166859
vn 0.402020 0.900300 0.166850
vn -0.915686 0.395167 0.073231
vn -0.915582 0.395400 0.073274
vn -0.915582 0.395400 0.073274
vn -0.915686 0.395167 0.073231
vn -0.915686 -0.395165 -0.073244
vn -0.915686 -0.395165 -0.073244
vn 0.915582 0.395400 0.073274
vn 0.915686 0.395167 0.073231
vn 0.915686 0.395167 0.073231
vn 0.915582 0.395400 0.073274
vn 0.915740 -0.395044 -0.073208
vn 0.915740 -0.395044 -0.073209
vn 0.915630 -0.395287 -0.073277
vn 0.915630 -0.395288 -0.073273
vn 0.915142 -0.396179 -0.074541
vn -0.402131 0.900254 0.166832
vn -0.401895 0.900356 0.166851
vn -0.401895 0.900356 0.166851
vn -0.402131 0.900254 0.166832
vn 0.401895 0.900356 0.166851
vn 0.402131 0.900254 0.166832
vn 0.402132 0.900254 0.166832
vn 0.401895 0.900356 0.166851
vn -0.000002 0.182215 -0.983259
vn -0.000002 0.182215 -0.983259
vn -0.000002 0.182215 -0.983259
vn -0.000002 0.182215 -0.983259
vn 0.000000 0.182214 -0.983259
vn 0.000000 0.182214 -0.983259
vn 0.000000 0.182214 -0.983259
vn 0.000000 0.182214 -0.983259
vn 0.000001 0.182216 -0.983259
vn 0.000001 0.182216 -0.983259
vn 0.000002 0.182215 -0.983259
vn 0.000002 0.182215 -0.983259
vn 0.000002 0.182215 -0.983259
vn 0.000002 0.182215 -0.983259
vn -0.000000 0.182214 -0.983259
vn -0.000000 0.182214 -0.983259
vn -0.000002 0.182219 -0.983258
vn -0.000002 0.182219 -0.983258
vn -0.000002 0.182219 -0.983258
vn -0.000002 0.182219 -0.983258
vn 0.000002 0.182219 -0.983258
vn 0.000002 0.182219 -0.983258
vn 0.000002 0.182219 -0.983258
vn 0.000002 0.182219 -0.983258
vn -0.915688 0.395162 0.073230
vn -0.915580 0.395404 0.073275
vn -0.915580 0.395404 0.073275
vn -0.915688 0.395162 0.073230
vn -0.915580 -0.395404 -0.073275
vn -0.915688 -0.395162 -0.073230
vn -0.915688 -0.395162 -0.073230
vn -0.915580 -0.395404 -0.073275
vn 0.402136 -0.900252 -0.166832
vn 0.401890 -0.900358 -0.166851
vn 0.401890 -0.900358 -0.166851
vn 0.402136 -0.900252 -0.166832
vn -0.401890 -0.900358 -0.166851
vn -0.402136 -0.900252 -0.166832
vn -0.402136 -0.900252 -0.166832
vn -0.401890 -0.900358 -0.166851
vn 0.915580 0.395404 0.073275
vn 0.915688 0.395163 0.073230
vn 0.915688 0.395163 0.073230
vn 0.915580 0.395404 0.073275
vn 0.915688 -0.395162 -0.073230
vn 0.915580 -0.395404 -0.073275
vn 0.915580 -0.395404 -0.073275
vn 0.915688 -0.395162 -0.073230
vn -0.402136 0.900254 0.166820
vn -0.401890 0.900360 0.166840
vn -0.401890 0.900360 0.166840
vn -0.402136 0.900254 0.166820
vn 0.401890 0.900360 0.166840
vn 0.402136 0.900254 0.166820
vn 0.402136 0.900254 0.166820
vn 0.401890 0.900361 0.166840
vn 0.000003 0.182213 -0.983259
vn 0.000003 0.182213 -0.983259
vn 0.000003 0.182213 -0.983259
vn 0.000003 0.182213 -0.983259
vn -0.000001 0.182214 -0.983259
vn -0.000001 0.182214 -0.983259
vn -0.000001 0.182214 -0.983259
vn -0.000001 0.182214 -0.983259
vn 0.000000 0.182214 -0.983259
vn 0.000000 0.182214 -0.983259
vn 0.000000 0.182214 -0.983259
vn 0.000000 0.182214 -0.983259
vn -0.000000 0.182214 -0.983259
vn -0.000000 0.182214 -0.983259
vn -0.000000 0.182214 -0.983259
vn -0.000000 0.182214 -0.983259
vn -0.000003 0.182213 -0.983259
vn -0.000003 0.182213 -0.983259
vn -0.000003 0.182213 -0.983259
vn -0.000003 0.182213 -0.983259
vn 0.000001 0.182214 -0.983259
vn 0.000001 0.182214 -0.983259
vn 0.000001 0.182214 -0.983259
vn 0.000001 0.182214 -0.983259
vn 0.000000 0.182213 -0.983259
vn 0.000000 0.182213 -0.983259
vn 0.000000 0.182213 -0.983259
vn 0.000000 0.182213 -0.983259
vn -0.000000 0.182214 -0.983259
vn -0.000000 0.182214 -0.983259
vn -0.000000 0.182214 -0.983259
vn -0.000000 0.182214 -0.983259
vn -0.915689 0.395159 0.073229
vn -0.915578 0.395408 0.073276
vn -0.915578 0.395408 0.073276
vn -0.915689 0.395159 0.073229
vn -0.915578 -0.395408 -0.073276
vn -0.915690 -0.395158 -0.073229
vn -0.915690 -0.395158 -0.073229
vn -0.915578 -0.395408 -0.073276
vn 0.402140 -0.900250 -0.166831
vn 0.401886 -0.900360 -0.166852
vn 0.401886 -0.900360 -0.166852
vn 0.402140 -0.900250 -0.166831
vn -0.401886 -0.900360 -0.166852
vn -0.402140 -0.900250 -0.166831
vn -0.402140 -0.900250 -0.166831
vn -0.401886 -0.900360 -0.166852
vn 0.915578 0.395409 0.073276
vn 0.915689 0.395159 0.073230
vn 0.915689 0.395159 0.073230
vn 0.915578 0.395409 0.073276
vn 0.915690 -0.395158 -0.073229
vn 0.915578 -0.395408 -0.073276
vn 0.915578 -0.395408 -0.073276
vn 0.915690 -0.395158 -0.073229
vn -0.402141 0.900248 0.166843
vn -0.401887 0.900358 0.166863
vn -0.401887 0.900358 0.166863
vn -0.402141 0.900248 0.166843
vn 0.401887 0.900357 0.166863
vn 0.402141 0.900248 0.166843
vn 0.402141 0.900248 0.166843
vn 0.401887 0.900358 0.166863
vn -0.000001 0.182215 -0.983259
vn -0.000001 0.182214 -0.983259
vn -0.000001 0.182214 -0.983259
vn -0.000001 0.182214 -0.983259
vn 0.000000 0.182214 -0.983259
vn 0.000000 0.182214 -0.983259
vn 0.000000 0.182214 -0.983259
vn 0.000000 0.182214 -0.983259
vn 0.000000 0.182214 -0.983259
vn 0.000000 0.182214 -0.983259
vn 0.000000 0.182214 -0.983259
vn 0.000000 0.182214 -0.983259
vn -0.000000 0.182214 -0.983259
vn -0.000000 0.182214 -0.983259
vn -0.000000 0.182214 -0.983259
vn -0.000000 0.182214 -0.983259
vn 0.000001 0.182214 -0.983259
vn 0.000001 0.182215 -0.983259
vn 0.000001 0.182214 -0.983259
vn 0.000001 0.182214 -0.983259
vn -0.000000 0.182214 -0.983259
vn -0.000000 0.182214 -0.983259
vn -0.000000 0.182214 -0.983259
vn -0.000000 0.182214 -0.983259
vn -0.000002 0.182219 -0.983258
vn -0.000002 0.182219 -0.983258
vn -0.000002 0.182219 -0.983258
vn -0.000002 0.182219 -0.983258
vn 0.000002 0.182219 -0.983258
vn 0.000002 0.182218 -0.983258
vn 0.000002 0.182218 -0.983258
vn 0.000002 0.182219 -0.983258
vn -0.915692 0.395153 0.073228
vn -0.915576 0.395413 0.073276
vn -0.915576 0.395413 0.073276
vn -0.915692 0.395153 0.073228
vn -0.915576 -0.395411 -0.073286
vn -0.915692 -0.395151 -0.073237
vn -0.915692 -0.395151 -0.073237
vn -0.915576 -0.395411 -0.073286
vn 0.402145 -0.900249 -0.166826
vn 0.401881 -0.900363 -0.166847
vn 0.401881 -0.900363 -0.166847
vn 0.402145 -0.900249 -0.166826
vn -0.401881 -0.900363 -0.166847
vn -0.402145 -0.900249 -0.166826
vn -0.402145 -0.900249 -0.166826
vn -0.401881 -0.900363 -0.166847
vn 0.915576 0.395413 0.073276
vn 0.915692 0.395153 0.073228
vn 0.915692 0.395153 0.073228
vn 0.915576 0.395413 0.073276
vn 0.915692 -0.395152 -0.073232
vn 0.915576 -0.395412 -0.073280
vn 0.915576 -0.395412 -0.073280
vn 0.915692 -0.395152 -0.073232
vn -0.402145 0.900248 0.166831
vn -0.401881 0.900362 0.166852
vn -0.401881 0.900362 0.166852
vn -0.402145 0.900248 0.166831
vn 0.401881 0.900362 0.166852
vn 0.402145 0.900248 0.166831
vn 0.402145 0.900248 0.166831
vn 0.401881 0.900362 0.166852
vn 0.000001 0.182214 -0.983259
vn 0.000001 0.182214 -0.983259
vn 0.000001 0.182214 -0.983259
vn 0.000001 0.182214 -0.983259
vn 0.000000 0.182214 -0.983259
vn 0.000000 0.182214 -0.983259
vn 0.000000 0.182214 -0.983259
vn 0.000000 0.182214 -0.983259
vn 0.000000 0.182214 -0.983259
vn 0.000000 0.182214 -0.983259
vn 0.000000 0.182214 -0.983259
vn 0.000000 0.182214 -0.983259
vn -0.000000 0.182214 -0.983259
vn -0.000000 0.182213 -0.983259
vn -0.000000 0.182214 -0.983259
vn -0.000000 0.182214 -0.983259
vn -0.000001 0.182214 -0.983259
vn -0.000001 0.182214 -0.983259
vn -0.000001 0.182214 -0.983259
vn -0.000001 0.182214 -0.983259
vn -0.000000 0.182215 -0.983259
vn -0.000000 0.182215 -0.983259
vn -0.000000 0.182215 -0.983259
vn -0.000000 0.182215 -0.983259
vn -0.000001 0.182216 -0.983259
vn -0.000001 0.182216 -0.983259
vn -0.000001 0.182216 -0.983259
vn -0.000001 0.182216 -0.983259
vn 0.000001 0.182216 -0.983259
vn 0.000001 0.182216 -0.983259
vn 0.000001 0.182216 -0.983259
vn 0.000001 0.182216 -0.983259
vn 0.915694 -0.395149 -0.073227
vn 0.915602 -0.395354 -0.073265
vn 0.915616 -0.395322 -0.073259
vn 0.915694 -0.395149 -0.073227
vn 0.915603 0.395353 0.073266
vn 0.915694 0.395148 0.073228
vn 0.915694 0.395148 0.073228
vn 0.915617 0.395321 0.073260
vn -0.402085 0.900274 0.166836
vn -0.401877 0.900364 0.166853
vn -0.401877 0.900364 0.166853
vn -0.402053 0.900288 0.166839
vn 0.401877 0.900364 0.166853
vn 0.402085 0.900274 0.166836
vn 0.402053 0.900288 0.166839
vn 0.401877 0.900364 0.166853
vn -0.915602 -0.395354 -0.073265
vn -0.915694 -0.395149 -0.073228
vn -0.915694 -0.395149 -0.073228
vn -0.915616 -0.395322 -0.073260
vn -0.915694 0.395148 0.073228
vn -0.915603 0.395353 0.073265
vn -0.915617 0.395321 0.073260
vn -0.915694 0.395148 0.073228
vn 0.402084 -0.900275 -0.166833
vn 0.401877 -0.900364 -0.166850
vn 0.401877 -0.900364 -0.166850
vn 0.402052 -0.900289 -0.166836
vn -0.401877 -0.900364 -0.166850
vn -0.402085 -0.900275 -0.166834
vn -0.402053 -0.900289 -0.166836
vn -0.401877 -0.900364 -0.166850
vn -0.401905 -0.900337 -0.166930
vn -0.401903 -0.900352 -0.166851
vn -0.400518 -0.901156 -0.165839
vn -0.400304 -0.900706 -0.168774
vn 0.915590 0.395382 0.073271
vn 0.915738 0.395050 0.073209
vn -0.402059 -0.900531 -0.165505
vn 0.693085 -0.717612 0.068314
vn 0.000000 -0.182214 0.983259
vn -0.000007 -0.182256 0.983251
vn -0.000000 -0.182015 0.983296
vn 0.000007 -0.182256 0.983251
vn 0.000000 -0.182214 0.983259
vn 0.000035 -0.182249 0.983252
vn 0.000000 -0.181912 0.983315
vn 0.000000 0.182214 -0.983259
vn 0.000000 0.182214 -0.983259
vn -0.000000 0.182214 -0.983259
vn -0.000000 0.182215 -0.983259
vn -0.707183 0.695194 0.128831
vn -0.707180 0.695197 0.128832
vn -0.000379 0.184954 -0.982747
vn 0.070182 0.251917 -0.965201
vn -1.000000 -0.000007 -0.000001
vn -1.000000 -0.000003 -0.000001
vn -0.002505 0.184089 -0.982907
vn -0.001313 0.292989 -0.956115
vn 0.000022 0.182199 -0.983262
vn 0.000023 0.182198 -0.983262
vn 1.000000 0.000007 0.000002
vn 1.000000 -0.000001 0.000001
vn 1.000000 -0.000007 -0.000001
vn 1.000000 -0.000003 -0.000001
vn 0.707144 0.695233 0.128838
vn 0.707140 0.695236 0.128839
vn 0.113859 0.182308 -0.976627
vn 0.001958 0.184667 -0.982799
vn -0.000000 0.983259 0.182214
vn -0.000000 0.983259 0.182214
vn 1.000000 0.000001 0.000001
vn 0.707015 -0.695360 -0.128859
vn 0.000000 -0.983259 -0.182213
vn -0.707015 -0.695360 -0.128858
vn -0.999878 -0.015370 -0.002838
vn -0.707113 0.695263 0.128844
vn -0.000000 0.983257 0.182224
vn 0.000000 0.182237 -0.983255
vn 0.000000 0.182237 -0.983255
vn 0.000034 0.182248 -0.983253
vn 0.000034 0.182248 -0.983253
vn -0.000005 0.182223 -0.983257
vn -0.000005 0.182223 -0.983257
vn -0.000034 0.182248 -0.983253
vn -0.000034 0.182248 -0.983253
vn 0.000000 0.182237 -0.983255
vn 0.000000 0.182237 -0.983255
vn -0.000000 0.182226 -0.983257
vn 0.000000 0.182226 -0.983257
vn -1.000000 0.000003 0.000001
vn -1.000000 0.000001 0.000000
vn -0.707263 0.695116 0.128817
vn -0.707273 0.695106 0.128815
vn -0.707089 -0.695286 -0.128848
vn -0.707087 -0.695289 -0.128849
vn 0.707050 -0.695325 -0.128855
vn 0.707047 -0.695328 -0.128856
vn -0.000000 -0.983259 -0.182214
vn 0.000000 -0.983259 -0.182214
vn 0.707302 0.695077 0.128809
vn 0.707312 0.695067 0.128808
vn 1.000000 0.000003 0.000000
vn 1.000000 0.000001 0.000000
vn -0.000000 0.983261 0.182202
vn -0.000000 0.983261 0.182202
vn 0.000000 0.182202 -0.983261
vn 0.000000 0.182202 -0.983261
vn -0.000003 0.182205 -0.983261
vn -0.000003 0.182205 -0.983261
vn -0.000001 0.182218 -0.983258
vn -0.000001 0.182218 -0.983258
vn 0.000001 0.182214 -0.983259
vn 0.000001 0.182214 -0.983259
vn 0.000000 0.182214 -0.983259
vn -0.000000 0.182214 -0.983259
vn 0.000003 0.182201 -0.983261
vn 0.000003 0.182201 -0.983261
vn 0.000000 0.182208 -0.983260
vn 0.000000 0.182208 -0.983260
vn -0.000000 0.182219 -0.983258
vn 0.000000 0.182219 -0.983258
vn -1.000000 -0.000002 -0.000000
vn -1.000000 -0.000005 -0.000001
vn -0.707152 0.695227 0.128826
vn -0.707154 0.695224 0.128825
vn -0.707075 -0.695299 -0.128857
vn -0.707080 -0.695294 -0.128856
vn 0.707075 -0.695300 -0.128855
vn 0.707080 -0.695294 -0.128854
vn 0.000000 -0.983259 -0.182214
vn 0.000000 -0.983259 -0.182214
vn 0.707152 0.695227 0.128825
vn 0.707155 0.695224 0.128825
vn 1.000000 -0.000001 -0.000000
vn 1.000000 -0.000005 -0.000001
vn 0.000000 0.983254 0.182239
vn 0.000000 0.983254 0.182239
vn 0.000000 0.182253 -0.983252
vn 0.000000 0.182253 -0.983252
vn -0.000044 0.182175 -0.983266
vn -0.000044 0.182175 -0.983266
vn 0.000018 0.182203 -0.983261
vn 0.000018 0.182203 -0.983261
vn -0.000018 0.182203 -0.983261
vn -0.000018 0.182203 -0.983261
vn -0.000000 0.182214 -0.983259
vn 0.000000 0.182214 -0.983259
vn 0.000044 0.182169 -0.983267
vn 0.000044 0.182169 -0.983267
vn 0.000000 0.182253 -0.983252
vn 0.000000 0.182253 -0.983252
vn 0.000000 0.182216 -0.983259
vn 0.000000 0.182216 -0.983259
vn -1.000000 0.000002 -0.000002
vn -1.000000 -0.000000 -0.000002
vn -0.707157 0.695222 0.128825
vn -0.707150 0.695228 0.128826
vn -0.707094 -0.695281 -0.128850
vn -0.707100 -0.695275 -0.128849
vn 0.707094 -0.695281 -0.128847
vn 0.707100 -0.695275 -0.128846
vn 0.000000 -0.983259 -0.182212
vn 0.000000 -0.983259 -0.182212
vn 0.707157 0.695222 0.128824
vn 0.707150 0.695229 0.128825
vn 1.000000 0.000002 0.000003
vn 1.000000 -0.000001 0.000002
vn 0.000000 0.983259 0.182214
vn 0.000000 0.983259 0.182214
vn 0.000000 0.182244 -0.983253
vn 0.000000 0.182244 -0.983253
vn -0.000036 0.182177 -0.983266
vn -0.000036 0.182177 -0.983266
vn 0.000007 0.182207 -0.983260
vn 0.000007 0.182207 -0.983260
vn -0.000007 0.182207 -0.983260
vn -0.000007 0.182207 -0.983260
vn -0.000000 0.182214 -0.983259
vn 0.000000 0.182214 -0.983259
vn 0.000036 0.182177 -0.983266
vn 0.000036 0.182177 -0.983266
vn 0.000000 0.182244 -0.983253
vn 0.000000 0.182244 -0.983253
vn -0.000000 0.182215 -0.983259
vn 0.000000 0.182215 -0.983259
vn 0.707277 -0.695175 -0.128413
vn 0.707327 -0.695127 -0.128403
vn 0.706691 0.695603 0.129322
vn 0.706947 0.695352 0.129274
vn -0.707180 0.695123 0.129231
vn -0.707208 0.695095 0.129228
vn -0.706894 -0.695552 -0.128482
vn -0.706960 -0.695487 -0.128470
vn 0.314383 -0.945332 -0.086668
vn -0.307086 -0.947707 -0.086886
vn 0.663728 0.240825 0.708144
vn 0.887289 0.461179 0.005602
vn 0.481224 0.872847 0.081002
vn 0.247544 -0.597577 0.762642
vn 0.456447 -0.856899 -0.239541
vn 0.872684 -0.459053 -0.166414
vn -0.146298 -0.604552 0.783016
vn -0.337315 -0.905445 -0.257658
vn 0.306803 -0.915430 -0.260498
vn 0.000000 0.182221 -0.983258
vn 0.000070 0.182171 -0.983267
vn 0.000000 0.182221 -0.983258
vn 0.000039 0.182152 -0.983270
vn 0.000000 0.182213 -0.983259
vn -0.000048 0.182146 -0.983272
vn 0.000000 0.182213 -0.983259
vn -0.000003 0.182127 -0.983275
vn 0.000000 0.182214 -0.983259
vn -0.000009 0.182206 -0.983260
vn -0.000000 0.182214 -0.983259
vn -0.000024 0.182333 -0.983237
vn -0.000000 0.182221 -0.983258
vn -0.000070 0.182171 -0.983267
vn -0.000000 0.182221 -0.983258
vn -0.000426 0.182152 -0.983270
vn 0.000426 0.182152 -0.983270
vn -0.000039 0.182358 -0.983232
vn 0.000080 0.182189 -0.983263
vn -0.000039 0.182152 -0.983270
vn 1.000000 -0.000007 -0.000000
vn 1.000000 0.000004 0.000002
vn -0.000015 -0.983259 -0.182216
vn -0.000015 -0.983259 -0.182216
vn 0.000017 0.983259 0.182214
vn 0.000017 0.983259 0.182214
vn -1.000000 0.000004 0.000002
vn -1.000000 -0.000007 -0.000000
vn 0.000000 0.182214 -0.983259
vn 0.000001 0.182214 -0.983259
vn 0.000560 0.182389 -0.983226
vn -0.000056 0.182252 -0.983252
vn 0.000002 0.182215 -0.983259
vn 0.000002 0.182215 -0.983259
vn -0.000001 0.182309 -0.983241
vn -0.000001 0.182262 -0.983250
vn -0.000001 0.182262 -0.983250
vn -0.000001 0.182214 -0.983259
vn -0.000000 0.182214 -0.983259
vn -0.000000 0.182214 -0.983259
vn -0.000049 0.182314 -0.983240
vn 0.000049 0.182314 -0.983240
vn 0.000000 0.182214 -0.983259
vn 0.000000 0.182214 -0.983259
vn 0.000020 0.182214 -0.983259
vn -0.000000 0.182214 -0.983259
vn -0.000000 0.182214 -0.983259
vn -0.000020 0.182214 -0.983259
vn -0.000002 0.182215 -0.983259
vn -0.000002 0.182215 -0.983259
vn 0.000112 0.182252 -0.983252
vn -0.000560 0.182389 -0.983226
vn -0.000001 0.182214 -0.983259
vn -0.000000 0.182214 -0.983259
vn 0.000001 0.182214 -0.983259
vn 0.000001 0.182262 -0.983250
vn 0.000001 0.182262 -0.983250
vn 0.000001 0.182309 -0.983241
vn -0.000001 0.182214 -0.983259
vn -0.000001 0.182214 -0.983259
vn 0.000040 0.182114 -0.983277
vn -0.000040 0.182114 -0.983277
vn 0.000001 0.182213 -0.983259
vn 0.000001 0.182214 -0.983259
vn 0.000040 0.182214 -0.983259
vn 0.000000 0.182214 -0.983259
vn 0.000000 0.182214 -0.983259
vn -0.000040 0.182214 -0.983259
s 1
g pPlane3 group1
usemtl initialShadingGroup
f 2/214/1 4/215/2 3/216/3
f 4/215/2 6/222/4 5/218/5
f 5/218/5 8/223/6 7/219/7
f 7/219/7 9/224/8 3/216/3
f 4/215/2 5/218/5 7/219/7 3/216/3
f 1/248/9 7/219/7 64/240/10
f 8/223/6 65/230/11 7/219/7
f 7/219/7 65/230/11 64/240/10
s 6
f 32/541/12 139/542/13 42/543/14
f 139/542/13 143/545/15 42/543/14
f 39/549/16 42/543/14 143/545/15
s 1
f 5/218/5 72/229/17 8/223/6
f 72/229/17 71/238/18 8/223/6
f 65/230/11 8/223/6 66/239/19
f 66/239/19 8/223/6 71/238/18
f 5/218/5 6/222/4 72/229/17
f 72/229/17 6/222/4 73/237/20
f 79/244/21 78/245/22 6/222/4
f 73/237/20 6/222/4 78/245/22
f 4/215/2 86/217/23 6/222/4
f 86/217/23 85/228/24 6/222/4
f 79/244/21 6/222/4 80/236/25
f 80/236/25 6/222/4 85/228/24
f 4/215/2 2/214/1 86/217/23
f 86/217/23 2/214/1 87/221/26
f 93/235/27 92/226/28 2/214/1
f 87/221/26 2/214/1 92/226/28
f 3/216/3 100/220/29 2/214/1
f 100/220/29 99/225/30 2/214/1
f 93/235/27 2/214/1 94/234/31
f 94/234/31 2/214/1 99/225/30
f 3/216/3 9/224/8 100/220/29
f 100/220/29 9/224/8 101/232/32
f 107/231/33 106/242/34 9/224/8
f 101/232/32 9/224/8 106/242/34
f 1/248/9 108/241/35 7/219/7
f 9/224/8 7/219/7 107/231/33
f 108/241/35 107/231/33 7/219/7
s 6
f 140/547/36 139/542/13 150/544/37
f 139/542/13 32/541/12 150/544/37
f 32/541/12 35/546/38 150/544/37
f 35/546/38 151/551/39 150/544/37
s 10
f 341/251/40 340/252/41 347/253/42
f 340/252/41 342/256/43 347/253/42
f 347/253/42 342/256/43 346/262/44
f 342/256/43 343/269/45 346/262/44
f 344/281/46 345/276/47 343/269/45
f 343/269/45 345/276/47 346/262/44
s 12
f 16/27/48 15/24/49 103/18/50 102/23/51
f 15/24/49 14/25/52 104/12/53 103/18/50
s 6
f 25/555/54 24/557/55 118/556/56
f 118/68/56 24/66/55 119/67/57
f 24/66/55 23/64/58 120/65/59 119/67/57
s 14
f 31/295/60 30/296/61 33/297/62 32/298/63
f 30/296/61 29/299/64 34/300/65 33/297/62
f 38/311/66 37/307/67 41/308/68 40/312/69
f 37/307/67 36/301/70 42/304/71 41/308/68
f 45/321/72 44/318/73 47/319/74 46/322/75
f 44/318/73 43/315/76 48/316/77 47/319/74
f 52/330/78 51/327/79 55/328/80 54/331/81
f 51/327/79 50/325/82 56/324/83 55/328/80
s 12
f 59/559/84 58/560/85 110/561/86 109/562/87
f 58/560/85 57/563/88 111/564/89 110/561/86
f 71/43/90 70/46/91 75/47/92 74/44/93
f 70/46/91 73/49/94 76/50/95 75/47/92
f 78/576/96 77/577/97 82/578/98 81/579/99
f 77/577/97 80/580/100 83/581/101 82/578/98
f 85/20/102 84/15/103 89/16/104 88/21/105
f 84/15/103 87/10/106 90/9/107 89/16/104
f 92/1/108 91/2/109 96/3/110 95/4/111
f 91/2/109 94/5/112 97/6/113 96/3/110
s 23
f 142/343/114 141/344/115 145/345/116 144/346/117
f 141/344/115 140/347/118 146/348/119 145/345/116
f 150/351/120 149/355/121 153/356/122 152/352/123
f 149/355/121 148/359/124 154/360/125 153/356/122
s 14
f 22/323/126 14/329/127 19/326/128
f 19/326/128 14/329/127 11/332/129
f 26/310/130 20/313/131 17/314/132 23/309/133
f 31/295/60 32/298/63 36/301/70
f 36/301/70 32/298/63 42/304/71
f 29/299/64 28/302/134 25/303/135 34/300/65
f 56/324/83 50/325/82 45/321/72 46/322/75
f 43/315/76 38/311/66 40/312/69 48/316/77
f 57/341/136 60/342/137 16/338/138
f 16/338/138 60/342/137 13/340/139
f 59/335/140 52/330/78 62/333/141
f 62/333/141 52/330/78 54/331/81
s 12
f 10/28/142 69/29/143 49/30/144 53/31/145
f 67/41/146 74/44/93 38/45/147 43/42/148
f 76/584/95 81/579/99 31/583/149 36/589/150
f 83/581/101 88/587/105 28/590/151 29/588/152
f 90/9/107 95/4/111 20/8/153 26/14/154
f 97/6/113 104/12/53 22/13/155
f 22/13/155 104/12/53 14/25/52
f 102/573/51 111/564/89 16/568/48
f 16/568/48 111/564/89 57/563/88
f 109/562/87 10/567/156 59/559/84
f 59/559/84 10/567/156 53/571/157 52/572/158
f 1/32/159 64/33/160 69/29/143 10/28/142
f 67/41/146 66/40/161 71/43/90 74/44/93
f 76/584/95 73/585/94 78/576/96 81/579/99
f 83/581/101 80/580/100 85/586/102 88/587/105
f 90/9/107 87/10/106 92/1/108 95/4/111
f 97/6/113 94/5/112 99/11/162 104/12/53
f 102/573/51 101/574/163 106/569/164 111/564/89
f 109/562/87 108/566/165 1/570/166 10/567/156
s 6
f 19/52/167 11/53/168 115/54/169 114/55/170
f 23/64/58 17/62/171 112/63/172 120/65/59
f 56/69/173 46/70/174 124/71/175 123/72/176
f 126/78/177 48/77/178 142/81/179
f 48/77/178 40/82/180 142/81/179
f 142/81/179 40/82/180 143/83/181
f 40/82/180 39/84/16 143/83/181
f 13/591/182 60/592/183 127/593/184 117/594/185
f 62/597/186 54/599/187 121/600/188 129/598/189
s 23
f 114/383/190 115/387/191 133/388/192 132/384/193
f 120/371/194 112/375/195 130/376/196 138/372/197
f 146/348/119 140/347/118 150/351/120 152/352/123
f 154/360/125 148/359/124 118/363/198 136/364/199
f 123/361/200 124/357/201 158/358/202 157/362/203
f 126/349/204 142/343/114 144/346/117 160/350/205
f 117/385/206 127/381/207 161/382/208 135/386/209
f 129/373/210 121/369/211 155/370/212 163/374/213
s 39
f 132/88/214 133/89/215 167/90/216 166/91/217
f 138/100/218 130/98/219 164/99/220 172/101/221
f 146/601/222 152/602/223 176/603/224 175/604/225
f 154/607/226 136/609/227 170/610/228 178/608/229
f 157/104/230 158/105/231 182/106/232 181/107/233
f 160/112/234 144/116/235 173/117/236 184/113/237
f 135/613/238 161/614/239 185/615/240 169/616/241
f 163/619/242 155/621/243 179/622/244 187/620/245
s 47
f 166/391/246 167/392/247 191/393/248 190/394/249
f 172/405/250 164/401/251 188/402/252 196/406/253
f 175/429/254 176/425/255 200/426/256 199/430/257
f 178/417/258 170/413/259 194/414/260 202/418/261
f 181/423/262 182/427/263 206/428/264 205/424/265
f 184/435/266 173/437/267 197/438/268 208/436/269
f 169/399/270 185/403/271 209/404/272 193/400/273
f 187/411/274 179/415/275 203/416/276 211/412/277
s 55
f 190/122/278 191/123/279 215/124/280 214/125/281
f 196/134/282 188/132/283 212/133/284 220/135/285
f 199/623/286 200/624/287 224/625/288 223/626/289
f 202/631/290 194/633/291 218/634/292 226/632/293
f 205/138/294 206/139/295 230/140/296 229/141/297
f 208/146/298 197/148/299 221/149/300 232/147/301
f 193/637/302 209/638/303 233/639/304 217/640/305
f 211/643/306 203/645/307 227/646/308 235/644/309
s 63
f 214/439/310 215/440/311 239/441/312 238/442/313
f 220/453/314 212/449/315 236/450/316 244/454/317
f 223/477/318 224/473/319 248/474/320 247/478/321
f 226/465/322 218/461/323 242/462/324 250/466/325
f 229/471/326 230/475/327 254/476/328 253/472/329
f 232/483/330 221/485/331 245/486/332 256/484/333
f 217/447/334 233/451/335 257/452/336 241/448/337
f 235/459/338 227/463/339 251/464/340 259/460/341
s 71
f 238/152/342 239/153/343 263/154/344 262/155/345
f 244/164/346 236/162/347 260/163/348 268/165/349
f 247/649/350 248/650/351 272/651/352 271/652/353
f 250/657/354 242/659/355 266/660/356 274/658/357
f 253/168/358 254/169/359 278/170/360 277/171/361
f 256/176/362 245/180/363 269/181/364 280/177/365
f 241/663/366 257/664/367 281/665/368 265/666/369
f 259/669/370 251/671/371 275/672/372 283/670/373
s 79
f 262/487/374 263/488/375 287/489/376 286/490/377
f 268/501/378 260/497/379 284/498/380 292/502/381
f 271/525/382 272/521/383 296/522/384 295/526/385
f 274/513/386 266/509/387 290/510/388 298/514/389
f 277/519/390 278/523/391 302/524/392 301/520/393
f 280/531/394 269/533/395 293/534/396 304/532/397
f 265/495/398 281/499/399 305/500/400 289/496/401
f 283/507/402 275/511/403 299/512/404 307/508/405
s 87
f 286/184/406 287/185/407 325/186/408 324/187/409
f 292/195/410 284/193/411 328/192/412 329/196/413
f 295/673/414 296/674/415 331/675/416 330/676/417
f 298/681/418 290/682/419 332/683/420 333/680/421
f 301/199/422 302/200/423 335/201/424 334/202/425
f 304/207/426 293/209/427 336/210/428 337/206/429
f 289/686/430 305/687/431 327/688/432 326/689/433
f 307/694/434 299/695/435 338/696/436 339/693/437
s 6
f 25/555/54 147/553/438 34/552/439
f 34/552/439 147/553/438 35/546/440
f 35/546/440 147/553/438 151/551/441
s 12
f 50/39/442 49/30/144 45/34/443
f 49/30/144 69/29/143 45/34/443
s 6
f 148/558/444 147/553/438 118/556/56
f 147/553/438 25/555/54 118/556/56
f 39/84/16 40/82/180 41/86/445
f 39/84/16 41/86/445 42/87/14
s 1
f 65/230/11 66/239/19 63/247/446
f 65/230/11 63/247/446 64/240/10
f 72/229/17 73/237/20 70/246/447
f 72/229/17 70/246/447 71/238/18
f 79/244/21 80/236/25 77/250/448
f 79/244/21 77/250/448 78/245/22
f 86/217/23 87/221/26 84/227/449
f 86/217/23 84/227/449 85/228/24
f 93/235/27 94/234/31 91/243/450
f 93/235/27 91/243/450 92/226/28
f 100/220/29 101/232/32 98/233/451
f 100/220/29 98/233/451 99/225/30
f 107/231/33 108/241/35 105/249/452
f 107/231/33 105/249/452 106/242/34
s 10
f 348/261/453 342/256/43 340/252/41
f 349/257/454 341/251/40 347/253/42
f 350/282/455 346/262/44 345/276/47
f 351/285/456 344/281/46 343/269/45
s 6
f 11/53/168 12/56/457 116/57/458 115/54/169
f 12/56/457 13/60/182 117/61/185 116/57/458
s 14
f 13/340/139 12/334/459 16/338/138
f 16/338/138 12/334/459 15/336/460
f 11/332/129 14/329/127 12/334/459
f 12/334/459 14/329/127 15/336/460
s 6
f 17/62/171 18/58/461 113/59/462 112/63/172
f 18/58/461 19/52/167 114/55/170 113/59/462
s 14
f 19/326/128 18/317/463 22/323/126
f 22/323/126 18/317/463 21/320/464
f 17/314/132 20/313/131 18/317/463
f 18/317/463 20/313/131 21/320/464
f 23/309/133 24/305/465 27/306/466 26/310/130
f 24/305/465 25/303/135 28/302/134 27/306/466
s 12
f 43/42/148 44/38/467 68/37/468 67/41/146
f 44/38/467 45/34/443 69/29/143 68/37/468
s 6
f 46/70/174 47/73/469 125/74/470 124/71/175
f 47/73/469 48/77/178 126/78/177 125/74/470
f 54/79/187 55/75/471 122/76/472 121/80/188
f 55/75/471 56/69/173 123/72/176 122/76/472
s 14
f 58/339/473 61/337/474 57/341/136
f 57/341/136 61/337/474 60/342/137
f 58/339/473 59/335/140 61/337/474
f 61/337/474 59/335/140 62/333/141
s 6
f 60/592/183 61/595/475 128/596/476 127/593/184
f 61/595/475 62/597/186 129/598/189 128/596/476
s 12
f 64/33/160 63/36/477 68/37/468 69/29/143
f 63/36/477 66/40/161 67/41/146 68/37/468
f 36/51/150 37/48/478 75/47/92 76/50/95
f 37/48/478 38/45/147 74/44/93 75/47/92
f 29/588/152 30/582/479 82/578/98 83/581/101
f 30/582/479 31/583/149 81/579/99 82/578/98
f 26/14/154 27/19/480 89/16/104 90/9/107
f 27/19/480 28/26/151 88/21/105 89/16/104
f 22/13/155 21/7/481 96/3/110 97/6/113
f 21/7/481 20/8/153 95/4/111 96/3/110
f 99/11/162 98/17/482 103/18/50 104/12/53
f 98/17/482 101/22/163 102/23/51 103/18/50
f 106/569/164 105/565/483 110/561/86 111/564/89
f 105/565/483 108/566/165 109/562/87 110/561/86
s 23
f 112/375/195 113/379/484 131/380/485 130/376/196
f 113/379/484 114/383/190 132/384/193 131/380/485
f 115/387/191 116/389/486 134/390/487 133/388/192
f 116/389/486 117/385/206 135/386/209 134/390/487
f 118/363/198 119/367/488 137/368/489 136/364/199
f 119/367/488 120/371/194 138/372/197 137/368/489
f 121/369/211 122/365/490 156/366/491 155/370/212
f 122/365/490 123/361/200 157/362/203 156/366/491
f 124/357/201 125/353/492 159/354/493 158/358/202
f 125/353/492 126/349/204 160/350/205 159/354/493
f 127/381/207 128/377/494 162/378/495 161/382/208
f 128/377/494 129/373/210 163/374/213 162/378/495
s 39
f 130/98/219 131/94/496 165/95/497 164/99/220
f 131/94/496 132/88/214 166/91/217 165/95/497
f 133/89/215 134/92/498 168/93/499 167/90/216
f 134/92/498 135/96/238 169/97/241 168/93/499
f 136/609/227 137/611/500 171/612/501 170/610/228
f 137/102/500 138/100/218 172/101/221 171/103/501
f 144/116/235 145/118/502 174/119/503 173/117/236
f 145/118/502 146/120/222 175/121/225 174/119/503
f 152/602/223 153/605/504 177/606/505 176/603/224
f 153/605/504 154/607/226 178/608/229 177/606/505
f 155/114/243 156/110/506 180/111/507 179/115/244
f 156/110/506 157/104/230 181/107/233 180/111/507
f 158/105/231 159/108/508 183/109/509 182/106/232
f 159/108/508 160/112/234 184/113/237 183/109/509
f 161/614/239 162/617/510 186/618/511 185/615/240
f 162/617/510 163/619/242 187/620/245 186/618/511
s 47
f 164/401/251 165/397/512 189/398/513 188/402/252
f 165/397/512 166/391/246 190/394/249 189/398/513
f 167/392/247 168/395/514 192/396/515 191/393/248
f 168/395/514 169/399/270 193/400/273 192/396/515
f 170/413/259 171/409/516 195/410/517 194/414/260
f 171/409/516 172/405/250 196/406/253 195/410/517
f 173/437/267 174/433/518 198/434/519 197/438/268
f 174/433/518 175/429/254 199/430/257 198/434/519
f 176/425/255 177/421/520 201/422/521 200/426/256
f 177/421/520 178/417/258 202/418/261 201/422/521
f 179/415/275 180/419/522 204/420/523 203/416/276
f 180/419/522 181/423/262 205/424/265 204/420/523
f 182/427/263 183/431/524 207/432/525 206/428/264
f 183/431/524 184/435/266 208/436/269 207/432/525
f 185/403/271 186/407/526 210/408/527 209/404/272
f 186/407/526 187/411/274 211/412/277 210/408/527
s 55
f 188/132/283 189/128/528 213/129/529 212/133/284
f 189/128/528 190/122/278 214/125/281 213/129/529
f 191/123/279 192/126/530 216/127/531 215/124/280
f 192/126/530 193/130/302 217/131/305 216/127/531
f 194/633/291 195/635/532 219/636/533 218/634/292
f 195/136/532 196/134/282 220/135/285 219/137/533
f 197/148/299 198/150/534 222/151/535 221/149/300
f 198/629/534 199/623/286 223/626/289 222/630/535
f 200/624/287 201/627/536 225/628/537 224/625/288
f 201/627/536 202/631/290 226/632/293 225/628/537
f 203/645/307 204/647/538 228/648/539 227/646/308
f 204/144/538 205/138/294 229/141/297 228/145/539
f 206/139/295 207/142/540 231/143/541 230/140/296
f 207/142/540 208/146/298 232/147/301 231/143/541
f 209/638/303 210/641/542 234/642/543 233/639/304
f 210/641/542 211/643/306 235/644/309 234/642/543
s 63
f 212/449/315 213/445/544 237/446/545 236/450/316
f 213/445/544 214/439/310 238/442/313 237/446/545
f 215/440/311 216/443/546 240/444/547 239/441/312
f 216/443/546 217/447/334 241/448/337 240/444/547
f 218/461/323 219/457/548 243/458/549 242/462/324
f 219/457/548 220/453/314 244/454/317 243/458/549
f 221/485/331 222/481/550 246/482/551 245/486/332
f 222/481/550 223/477/318 247/478/321 246/482/551
f 224/473/319 225/469/552 249/470/553 248/474/320
f 225/469/552 226/465/322 250/466/325 249/470/553
f 227/463/339 228/467/554 252/468/555 251/464/340
f 228/467/554 229/471/326 253/472/329 252/468/555
f 230/475/327 231/479/556 255/480/557 254/476/328
f 231/479/556 232/483/330 256/484/333 255/480/557
f 233/451/335 234/455/558 258/456/559 257/452/336
f 234/455/558 235/459/338 259/460/341 258/456/559
s 71
f 236/162/347 237/158/560 261/159/561 260/163/348
f 237/158/560 238/152/342 262/155/345 261/159/561
f 239/153/343 240/156/562 264/157/563 263/154/344
f 240/156/562 241/160/366 265/161/369 264/157/563
f 242/659/355 243/661/564 267/662/565 266/660/356
f 243/166/564 244/164/346 268/165/349 267/167/565
f 245/180/363 246/182/566 270/183/567 269/181/364
f 246/655/566 247/649/350 271/652/353 270/656/567
f 248/650/351 249/653/568 273/654/569 272/651/352
f 249/653/568 250/657/354 274/658/357 273/654/569
f 251/178/371 252/174/570 276/175/571 275/179/372
f 252/174/570 253/168/358 277/171/361 276/175/571
f 254/169/359 255/172/572 279/173/573 278/170/360
f 255/172/572 256/176/362 280/177/365 279/173/573
f 257/664/367 258/667/574 282/668/575 281/665/368
f 258/667/574 259/669/370 283/670/373 282/668/575
s 79
f 260/497/379 261/493/576 285/494/577 284/498/380
f 261/493/576 262/487/374 286/490/377 285/494/577
f 263/488/375 264/491/578 288/492/579 287/489/376
f 264/491/578 265/495/398 289/496/401 288/492/579
f 266/509/387 267/505/580 291/506/581 290/510/388
f 267/505/580 268/501/378 292/502/381 291/506/581
f 269/533/395 270/529/582 294/530/583 293/534/396
f 270/529/582 271/525/382 295/526/385 294/530/583
f 272/521/383 273/517/584 297/518/585 296/522/384
f 273/517/584 274/513/386 298/514/389 297/518/585
f 275/511/403 276/515/586 300/516/587 299/512/404
f 276/515/586 277/519/390 301/520/393 300/516/587
f 278/523/391 279/527/588 303/528/589 302/524/392
f 279/527/588 280/531/394 304/532/397 303/528/589
f 281/499/399 282/503/590 306/504/591 305/500/400
f 282/503/590 283/507/402 307/508/405 306/504/591
s 87
f 287/185/407 288/188/592 325/186/408
f 325/186/408 288/188/592 311/191/593
f 288/188/592 289/194/430 311/191/593
f 311/692/593 289/686/430 326/689/433
f 290/682/419 291/684/594 332/683/420
f 332/683/420 291/684/594 312/685/595
f 291/198/594 292/195/410 312/197/595
f 312/197/595 292/195/410 329/196/413
f 293/209/427 294/211/596 336/210/428
f 336/210/428 294/211/596 315/212/597
f 294/211/596 295/213/414 315/212/597
f 315/679/597 295/673/414 330/676/417
f 299/695/435 300/697/598 338/696/436
f 338/696/436 300/697/598 319/698/599
f 300/208/598 301/199/422 319/205/599
f 319/205/599 301/199/422 334/202/425
s 6
f 32/541/12 33/550/600 35/546/38
f 35/546/440 33/550/601 34/552/439
s 14
f 50/39/82 51/35/79 49/30/602
s 12
f 49/30/144 51/35/603 53/31/145
f 53/571/157 51/575/604 52/572/158
s 23
f 140/535/118 141/536/115 139/537/605
s 6
f 139/542/13 141/548/606 143/545/15
f 143/83/181 141/85/607 142/81/179
s 23
f 148/538/124 149/539/121 147/540/608
s 6
f 147/553/438 149/554/609 151/551/441
f 151/551/39 149/554/610 150/544/37
s 10
f 310/274/611 311/279/612 309/275/613
f 309/275/613 311/279/612 326/280/614
f 314/254/615 312/258/616 313/255/617
f 313/255/617 312/258/616 329/259/618
f 317/270/619 315/277/620 316/271/621
f 316/271/621 315/277/620 330/264/622
f 321/286/623 319/292/624 320/287/625
f 320/287/625 319/292/624 334/288/626
f 325/268/627 311/279/612 310/274/611
f 332/260/628 312/258/616 314/254/615
f 336/278/629 315/277/620 317/270/619
f 338/293/630 319/292/624 321/286/623
s 87
f 324/187/409 308/189/631 285/190/632 286/184/406
f 327/688/432 305/687/431 306/690/633 323/691/634
f 328/192/412 284/193/411 285/190/632 308/189/631
f 331/675/416 296/674/415 297/677/635 318/678/636
f 333/680/421 318/678/636 297/677/635 298/681/418
f 335/201/424 302/200/423 303/203/637 322/204/638
f 337/206/429 322/204/638 303/203/637 304/207/426
f 339/693/437 323/691/634 306/690/633 307/694/434
s 10
f 314/254/615 313/255/617 340/252/41 341/251/40
f 310/274/611 309/275/613 343/269/45 342/256/43
f 321/286/623 320/287/625 345/276/47 344/281/46
f 317/270/619 316/271/621 347/253/42 346/262/44
f 324/267/639 325/268/640 342/256/43 348/261/453
f 325/268/640 310/274/641 342/256/43
f 313/255/642 329/259/643 340/252/41
f 329/259/643 328/266/644 348/261/453 340/252/41
s 100
f 328/266/645 308/273/646 348/261/647
f 308/273/646 324/267/648 348/261/647
s 10
f 333/263/649 332/260/650 341/251/40 349/257/454
f 332/260/650 314/254/651 341/251/40
f 316/271/652 330/264/653 347/253/42
f 330/264/653 331/265/654 349/257/454 347/253/42
s 101
f 331/265/655 318/272/656 349/257/657
f 318/272/656 333/263/658 349/257/657
s 10
f 337/283/659 336/278/660 346/262/44 350/282/455
f 336/278/660 317/270/661 346/262/44
f 320/287/662 334/288/663 345/276/47
f 334/288/663 335/289/664 350/282/455 345/276/47
s 102
f 335/289/665 322/290/666 350/282/667
f 322/290/666 337/283/668 350/282/667
s 10
f 339/294/669 338/293/670 344/281/46 351/285/456
f 338/293/670 321/286/671 344/281/46
f 309/275/672 326/280/673 343/269/45
f 326/280/673 327/284/674 351/285/456 343/269/45
s 103
f 327/284/675 323/291/676 351/285/677
f 323/291/676 339/294/678 351/285/677
