# This file uses centimeters as units for non-parametric coordinates.

mtllib Questionmark.mtl
g default
v 3.706684 1.633584 0.000000
v 2.073101 1.633584 0.000000
v 2.073101 0.000000 0.000000
v 3.706684 0.000000 0.000000
v 3.175969 12.587884 0.000000
v 2.495975 12.558844 0.000000
v 1.791015 12.471722 0.000000
v 1.061430 12.326687 0.000000
v 0.306711 12.123403 0.000000
v 0.306711 10.738618 0.000000
v 1.009972 11.007117 0.000000
v 1.693703 11.198853 0.000000
v 2.357564 11.313828 0.000000
v 3.001725 11.352209 0.000000
v 3.461961 11.325377 0.000000
v 3.872438 11.244369 0.000000
v 4.233154 11.109694 0.000000
v 4.544111 10.921014 0.000000
v 4.794438 10.686311 0.000000
v 4.973268 10.413056 0.000000
v 5.080600 10.101590 0.000000
v 5.116264 9.751742 0.000000
v 5.034916 9.241237 0.000000
v 4.790872 8.663480 0.000000
v 4.383962 8.018129 0.000000
v 3.814356 7.305528 0.000000
v 3.291962 6.700258 0.000000
v 2.758700 5.991732 0.000000
v 2.377774 5.259430 0.000000
v 2.149184 4.503182 0.000000
v 2.073101 3.723158 0.000000
v 2.073101 3.275489 0.000000
v 3.706684 3.275489 0.000000
v 3.706684 4.187640 0.000000
v 3.721630 4.584869 0.000000
v 3.766804 4.939133 0.000000
v 3.841868 5.250259 0.000000
v 3.947162 5.518589 0.000000
v 4.100518 5.779955 0.000000
v 4.320276 6.071042 0.000000
v 4.606438 6.391509 0.000000
v 4.958833 6.741696 0.000000
v 5.472905 7.222651 0.000000
v 5.846358 7.592878 0.000000
v 6.153918 7.932706 0.000000
v 6.395755 8.241795 0.000000
v 6.571697 8.520313 0.000000
v 6.696861 8.796286 0.000000
v 6.786191 9.097732 0.000000
v 6.839857 9.424482 0.000000
v 6.857689 9.776708 0.000000
v 6.795532 10.390129 0.000000
v 6.609059 10.936639 0.000000
v 6.297934 11.416235 0.000000
v 5.862661 11.829088 0.000000
v 5.321587 12.160934 0.000000
v 4.693390 12.398186 0.000000
v 3.978241 12.540332 0.000000
v 3.706684 1.633584 0.625000
v 2.073101 1.633584 0.625000
v 2.073101 0.000000 0.625000
v 3.706684 0.000000 0.625000
v 3.706684 1.633584 1.250000
v 2.073101 1.633584 1.250000
v 2.073101 0.000000 1.250000
v 3.706684 0.000000 1.250000
v 3.706684 1.633584 1.875000
v 2.073101 1.633584 1.875000
v 2.073101 0.000000 1.875000
v 3.706684 0.000000 1.875000
v 3.706684 1.633584 2.500000
v 2.073101 1.633584 2.500000
v 2.073101 0.000000 2.500000
v 3.706684 0.000000 2.500000
v 3.175969 12.587884 0.625000
v 2.495975 12.558844 0.625000
v 1.791015 12.471722 0.625000
v 1.061430 12.326687 0.625000
v 0.306711 12.123403 0.625000
v 0.306711 10.738618 0.625000
v 1.009972 11.007117 0.625000
v 1.693703 11.198853 0.625000
v 2.357564 11.313828 0.625000
v 3.001725 11.352209 0.625000
v 3.461961 11.325377 0.625000
v 3.872438 11.244369 0.625000
v 4.233154 11.109694 0.625000
v 4.544111 10.921014 0.625000
v 4.794438 10.686311 0.625000
v 4.973268 10.413056 0.625000
v 5.080600 10.101590 0.625000
v 5.116264 9.751742 0.625000
v 5.034916 9.241237 0.625000
v 4.790872 8.663480 0.625000
v 4.383962 8.018129 0.625000
v 3.814356 7.305528 0.625000
v 3.291962 6.700258 0.625000
v 2.758700 5.991732 0.625000
v 2.377774 5.259430 0.625000
v 2.149184 4.503182 0.625000
v 2.073101 3.723158 0.625000
v 2.073101 3.275489 0.625000
v 3.706684 3.275489 0.625000
v 3.706684 4.187640 0.625000
v 3.721630 4.584869 0.625000
v 3.766804 4.939133 0.625000
v 3.841868 5.250259 0.625000
v 3.947162 5.518589 0.625000
v 4.100518 5.779955 0.625000
v 4.320276 6.071042 0.625000
v 4.606438 6.391509 0.625000
v 4.958833 6.741696 0.625000
v 5.472905 7.222651 0.625000
v 5.846358 7.592878 0.625000
v 6.153918 7.932706 0.625000
v 6.395755 8.241795 0.625000
v 6.571697 8.520313 0.625000
v 6.696861 8.796286 0.625000
v 6.786191 9.097732 0.625000
v 6.839857 9.424482 0.625000
v 6.857689 9.776708 0.625000
v 6.795532 10.390129 0.625000
v 6.609059 10.936639 0.625000
v 6.297934 11.416235 0.625000
v 5.862661 11.829088 0.625000
v 5.321587 12.160934 0.625000
v 4.693390 12.398186 0.625000
v 3.978241 12.540332 0.625000
v 3.175969 12.587884 1.250000
v 2.495975 12.558844 1.250000
v 1.791015 12.471722 1.250000
v 1.061430 12.326687 1.250000
v 0.306711 12.123403 1.250000
v 0.306711 10.738618 1.250000
v 1.009972 11.007117 1.250000
v 1.693703 11.198853 1.250000
v 2.357564 11.313828 1.250000
v 3.001725 11.352209 1.250000
v 3.461961 11.325377 1.250000
v 3.872438 11.244369 1.250000
v 4.233154 11.109694 1.250000
v 4.544111 10.921014 1.250000
v 4.794438 10.686311 1.250000
v 4.973268 10.413056 1.250000
v 5.080600 10.101590 1.250000
v 5.116264 9.751742 1.250000
v 5.034916 9.241237 1.250000
v 4.790872 8.663480 1.250000
v 4.383962 8.018129 1.250000
v 3.814356 7.305528 1.250000
v 3.291962 6.700258 1.250000
v 2.758700 5.991732 1.250000
v 2.377774 5.259430 1.250000
v 2.149184 4.503182 1.250000
v 2.073101 3.723158 1.250000
v 2.073101 3.275489 1.250000
v 3.706684 3.275489 1.250000
v 3.706684 4.187640 1.250000
v 3.721630 4.584869 1.250000
v 3.766804 4.939133 1.250000
v 3.841868 5.250259 1.250000
v 3.947162 5.518589 1.250000
v 4.100518 5.779955 1.250000
v 4.320276 6.071042 1.250000
v 4.606438 6.391509 1.250000
v 4.958833 6.741696 1.250000
v 5.472905 7.222651 1.250000
v 5.846358 7.592878 1.250000
v 6.153918 7.932706 1.250000
v 6.395755 8.241795 1.250000
v 6.571697 8.520313 1.250000
v 6.696861 8.796286 1.250000
v 6.786191 9.097732 1.250000
v 6.839857 9.424482 1.250000
v 6.857689 9.776708 1.250000
v 6.795532 10.390129 1.250000
v 6.609059 10.936639 1.250000
v 6.297934 11.416235 1.250000
v 5.862661 11.829088 1.250000
v 5.321587 12.160934 1.250000
v 4.693390 12.398186 1.250000
v 3.978241 12.540332 1.250000
v 3.175969 12.587884 1.875000
v 2.495975 12.558844 1.875000
v 1.791015 12.471722 1.875000
v 1.061430 12.326687 1.875000
v 0.306711 12.123403 1.875000
v 0.306711 10.738618 1.875000
v 1.009972 11.007117 1.875000
v 1.693703 11.198853 1.875000
v 2.357564 11.313828 1.875000
v 3.001725 11.352209 1.875000
v 3.461961 11.325377 1.875000
v 3.872438 11.244369 1.875000
v 4.233154 11.109694 1.875000
v 4.544111 10.921014 1.875000
v 4.794438 10.686311 1.875000
v 4.973268 10.413056 1.875000
v 5.080600 10.101590 1.875000
v 5.116264 9.751742 1.875000
v 5.034916 9.241237 1.875000
v 4.790872 8.663480 1.875000
v 4.383962 8.018129 1.875000
v 3.814356 7.305528 1.875000
v 3.291962 6.700258 1.875000
v 2.758700 5.991732 1.875000
v 2.377774 5.259430 1.875000
v 2.149184 4.503182 1.875000
v 2.073101 3.723158 1.875000
v 2.073101 3.275489 1.875000
v 3.706684 3.275489 1.875000
v 3.706684 4.187640 1.875000
v 3.721630 4.584869 1.875000
v 3.766804 4.939133 1.875000
v 3.841868 5.250259 1.875000
v 3.947162 5.518589 1.875000
v 4.100518 5.779955 1.875000
v 4.320276 6.071042 1.875000
v 4.606438 6.391509 1.875000
v 4.958833 6.741696 1.875000
v 5.472905 7.222651 1.875000
v 5.846358 7.592878 1.875000
v 6.153918 7.932706 1.875000
v 6.395755 8.241795 1.875000
v 6.571697 8.520313 1.875000
v 6.696861 8.796286 1.875000
v 6.786191 9.097732 1.875000
v 6.839857 9.424482 1.875000
v 6.857689 9.776708 1.875000
v 6.795532 10.390129 1.875000
v 6.609059 10.936639 1.875000
v 6.297934 11.416235 1.875000
v 5.862661 11.829088 1.875000
v 5.321587 12.160934 1.875000
v 4.693390 12.398186 1.875000
v 3.978241 12.540332 1.875000
v 3.175969 12.587884 2.500000
v 2.495975 12.558844 2.500000
v 1.791015 12.471722 2.500000
v 1.061430 12.326687 2.500000
v 0.306711 12.123403 2.500000
v 0.306711 10.738618 2.500000
v 1.009972 11.007117 2.500000
v 1.693703 11.198853 2.500000
v 2.357564 11.313828 2.500000
v 3.001725 11.352209 2.500000
v 3.461961 11.325377 2.500000
v 3.872438 11.244369 2.500000
v 4.233154 11.109694 2.500000
v 4.544111 10.921014 2.500000
v 4.794438 10.686311 2.500000
v 4.973268 10.413056 2.500000
v 5.080600 10.101590 2.500000
v 5.116264 9.751742 2.500000
v 5.034916 9.241237 2.500000
v 4.790872 8.663480 2.500000
v 4.383962 8.018129 2.500000
v 3.814356 7.305528 2.500000
v 3.291962 6.700258 2.500000
v 2.758700 5.991732 2.500000
v 2.377774 5.259430 2.500000
v 2.149184 4.503182 2.500000
v 2.073101 3.723158 2.500000
v 2.073101 3.275489 2.500000
v 3.706684 3.275489 2.500000
v 3.706684 4.187640 2.500000
v 3.721630 4.584869 2.500000
v 3.766804 4.939133 2.500000
v 3.841868 5.250259 2.500000
v 3.947162 5.518589 2.500000
v 4.100518 5.779955 2.500000
v 4.320276 6.071042 2.500000
v 4.606438 6.391509 2.500000
v 4.958833 6.741696 2.500000
v 5.472905 7.222651 2.500000
v 5.846358 7.592878 2.500000
v 6.153918 7.932706 2.500000
v 6.395755 8.241795 2.500000
v 6.571697 8.520313 2.500000
v 6.696861 8.796286 2.500000
v 6.786191 9.097732 2.500000
v 6.839857 9.424482 2.500000
v 6.857689 9.776708 2.500000
v 6.795532 10.390129 2.500000
v 6.609059 10.936639 2.500000
v 6.297934 11.416235 2.500000
v 5.862661 11.829088 2.500000
v 5.321587 12.160934 2.500000
v 4.693390 12.398186 2.500000
v 3.978241 12.540332 2.500000
v 0.306711 11.431010 0.000000
v 0.306711 11.431010 0.625000
v 0.306711 11.431010 1.250000
v 0.306711 11.431010 1.875000
v 0.306711 11.431010 2.500000
v 4.306684 -0.600000 -0.600000
v 1.473101 -0.600000 -0.600000
v 1.473101 2.233584 -0.600000
v 4.306684 2.233584 -0.600000
v 1.473101 2.233584 0.625000
v 4.306684 2.233584 0.625000
v 1.473101 -0.600000 0.625000
v 4.306684 -0.600000 0.625000
v 1.473101 2.233584 1.250000
v 4.306684 2.233584 1.250000
v 1.473101 -0.600000 1.250000
v 4.306684 -0.600000 1.250000
v 1.473101 2.233584 1.875000
v 4.306684 2.233584 1.875000
v 1.473101 -0.600000 1.875000
v 4.306684 -0.600000 1.875000
v 1.473101 2.233584 3.100000
v 4.306684 2.233584 3.100000
v 1.473101 -0.600000 3.100000
v 4.306684 -0.600000 3.100000
v 4.054837 13.136845 -0.600000
v 4.858993 12.977007 -0.600000
v 5.586787 12.702141 -0.600000
v 6.229948 12.307684 -0.600000
v 6.762523 11.802540 -0.600000
v 7.152897 11.200784 -0.600000
v 7.385555 10.518915 -0.600000
v 7.459225 9.791870 -0.600000
v 7.437386 9.360493 -0.600000
v 7.372159 8.963346 -0.600000
v 7.260377 8.586139 -0.600000
v 7.101046 8.234831 -0.600000
v 6.886900 7.895835 -0.600000
v 6.613208 7.546033 -0.600000
v 6.280318 7.178218 -0.600000
v 5.889160 6.790440 -0.600000
v 5.375350 6.309730 -0.600000
v 5.042060 5.978528 -0.600000
v 4.784261 5.689823 -0.600000
v 4.600379 5.446258 -0.600000
v 4.488494 5.255570 -0.600000
v 4.415465 5.069464 -0.600000
v 4.357809 4.830492 -0.600000
v 4.320199 4.535548 -0.600000
v 4.306684 4.176361 -0.600000
v 4.306684 2.675489 -0.600000
v 1.473101 2.675489 -0.600000
v 1.473101 3.752351 -0.600000
v 1.557754 4.620231 -0.600000
v 1.819640 5.486636 -0.600000
v 2.249377 6.312773 -0.600000
v 2.824633 7.077095 -0.600000
v 3.352748 7.688993 -0.600000
v 3.894327 8.366532 -0.600000
v 4.257215 8.942064 -0.600000
v 4.453855 9.407596 -0.600000
v 4.511414 9.768812 -0.600000
v 4.490730 9.971712 -0.600000
v 4.430333 10.146977 -0.600000
v 4.331697 10.297695 -0.600000
v 4.179371 10.440515 -0.600000
v 3.970285 10.567382 -0.600000
v 3.708342 10.665180 -0.600000
v 3.386058 10.728783 -0.600000
v 3.002110 10.751168 -0.600000
v 2.426818 10.716890 -0.600000
v 1.826241 10.612876 -0.600000
v 1.198381 10.436807 -0.600000
v -0.293289 9.867300 -0.600000
v -0.293289 11.431010 -0.600000
v -0.293289 12.583177 -0.600000
v 0.924754 12.911257 -0.600000
v 1.695607 13.064496 -0.600000
v 2.446296 13.157269 -0.600000
v 3.180926 13.188643 -0.600000
v 2.446299 13.157269 0.625000
v 3.180932 13.188643 0.625000
v 1.695599 13.064495 0.625000
v 0.924760 12.911259 0.625000
v -0.293289 12.583177 0.625000
v -0.293289 11.431010 0.625000
v 1.198372 10.436805 0.625000
v -0.293289 9.867300 0.625000
v 1.826245 10.612877 0.625000
v 2.426819 10.716890 0.625000
v 3.002109 10.751168 0.625000
v 3.386062 10.728783 0.625000
v 3.708341 10.665180 0.625000
v 3.970281 10.567384 0.625000
v 4.179371 10.440514 0.625000
v 4.331696 10.297696 0.625000
v 4.430333 10.146977 0.625000
v 4.490731 9.971711 0.625000
v 4.511415 9.768813 0.625000
v 4.453855 9.407596 0.625000
v 4.257215 8.942063 0.625000
v 3.894331 8.366536 0.625000
v 3.352745 7.688991 0.625000
v 2.824634 7.077096 0.625000
v 2.249377 6.312773 0.625000
v 1.819640 5.486636 0.625000
v 1.557754 4.620231 0.625000
v 1.473101 3.752351 0.625000
v 1.473101 2.675489 0.625000
v 4.306684 2.675489 0.625000
v 4.306684 4.176357 0.625000
v 4.320198 4.535545 0.625000
v 4.357809 4.830496 0.625000
v 4.415464 5.069462 0.625000
v 4.488495 5.255572 0.625000
v 4.600376 5.446254 0.625000
v 4.784260 5.689822 0.625000
v 5.042060 5.978528 0.625000
v 5.375350 6.309729 0.625000
v 5.889160 6.790440 0.625000
v 6.280315 7.178215 0.625000
v 6.613210 7.546036 0.625000
v 6.886899 7.895835 0.625000
v 7.101046 8.234830 0.625000
v 7.260378 8.586141 0.625000
v 7.372158 8.963346 0.625000
v 7.437386 9.360492 0.625000
v 7.459225 9.791870 0.625000
v 7.385555 10.518915 0.625000
v 7.152896 11.200785 0.625000
v 6.762524 11.802539 0.625000
v 6.229948 12.307685 0.625000
v 5.586787 12.702141 0.625000
v 4.858993 12.977008 0.625000
v 4.054835 13.136845 0.625000
v 2.446299 13.157269 1.250000
v 3.180932 13.188643 1.250000
v 1.695599 13.064495 1.250000
v 0.924760 12.911259 1.250000
v -0.293289 12.583177 1.250000
v -0.293289 11.431010 1.250000
v 1.198372 10.436805 1.250000
v -0.293289 9.867300 1.250000
v 1.826245 10.612877 1.250000
v 2.426819 10.716890 1.250000
v 3.002109 10.751168 1.250000
v 3.386062 10.728783 1.250000
v 3.708341 10.665180 1.250000
v 3.970281 10.567384 1.250000
v 4.179371 10.440514 1.250000
v 4.331696 10.297696 1.250000
v 4.430333 10.146977 1.250000
v 4.490731 9.971711 1.250000
v 4.511415 9.768813 1.250000
v 4.453855 9.407596 1.250000
v 4.257215 8.942063 1.250000
v 3.894331 8.366536 1.250000
v 3.352745 7.688991 1.250000
v 2.824635 7.077096 1.250000
v 2.249377 6.312773 1.250000
v 1.819640 5.486636 1.250000
v 1.557754 4.620231 1.250000
v 1.473101 3.752351 1.250000
v 1.473101 2.675489 1.250000
v 4.306684 2.675489 1.250000
v 4.306684 4.176357 1.250000
v 4.320198 4.535545 1.250000
v 4.357809 4.830496 1.250000
v 4.415464 5.069462 1.250000
v 4.488495 5.255572 1.250000
v 4.600376 5.446254 1.250000
v 4.784260 5.689822 1.250000
v 5.042060 5.978528 1.250000
v 5.375350 6.309729 1.250000
v 5.889160 6.790440 1.250000
v 6.280315 7.178215 1.250000
v 6.613210 7.546036 1.250000
v 6.886899 7.895835 1.250000
v 7.101046 8.234830 1.250000
v 7.260378 8.586141 1.250000
v 7.372158 8.963346 1.250000
v 7.437386 9.360492 1.250000
v 7.459225 9.791870 1.250000
v 7.385555 10.518915 1.250000
v 7.152896 11.200785 1.250000
v 6.762524 11.802539 1.250000
v 6.229948 12.307685 1.250000
v 5.586787 12.702141 1.250000
v 4.858993 12.977008 1.250000
v 4.054835 13.136845 1.250000
v 2.446299 13.157269 1.875000
v 3.180932 13.188643 1.875000
v 1.695599 13.064495 1.875000
v 0.924760 12.911259 1.875000
v -0.293289 12.583177 1.875000
v -0.293289 11.431010 1.875000
v 1.198372 10.436805 1.875000
v -0.293289 9.867300 1.875000
v 1.826245 10.612877 1.875000
v 2.426819 10.716890 1.875000
v 3.002109 10.751168 1.875000
v 3.386062 10.728783 1.875000
v 3.708341 10.665180 1.875000
v 3.970281 10.567384 1.875000
v 4.179371 10.440514 1.875000
v 4.331696 10.297696 1.875000
v 4.430333 10.146977 1.875000
v 4.490731 9.971711 1.875000
v 4.511415 9.768813 1.875000
v 4.453855 9.407596 1.875000
v 4.257215 8.942063 1.875000
v 3.894331 8.366536 1.875000
v 3.352745 7.688990 1.875000
v 2.824634 7.077096 1.875000
v 2.249377 6.312773 1.875000
v 1.819640 5.486636 1.875000
v 1.557754 4.620231 1.875000
v 1.473101 3.752351 1.875000
v 1.473101 2.675489 1.875000
v 4.306684 2.675489 1.875000
v 4.306684 4.176357 1.875000
v 4.320198 4.535545 1.875000
v 4.357809 4.830496 1.875000
v 4.415464 5.069462 1.875000
v 4.488495 5.255572 1.875000
v 4.600376 5.446254 1.875000
v 4.784260 5.689822 1.875000
v 5.042060 5.978528 1.875000
v 5.375350 6.309729 1.875000
v 5.889160 6.790440 1.875000
v 6.280315 7.178215 1.875000
v 6.613210 7.546036 1.875000
v 6.886899 7.895835 1.875000
v 7.101046 8.234830 1.875000
v 7.260378 8.586141 1.875000
v 7.372158 8.963346 1.875000
v 7.437386 9.360492 1.875000
v 7.459225 9.791870 1.875000
v 7.385555 10.518915 1.875000
v 7.152896 11.200785 1.875000
v 6.762524 11.802539 1.875000
v 6.229948 12.307685 1.875000
v 5.586787 12.702141 1.875000
v 4.858993 12.977008 1.875000
v 4.054835 13.136845 1.875000
v 2.446296 13.157269 3.100000
v 3.180926 13.188643 3.100000
v 1.695607 13.064496 3.100000
v 0.924754 12.911257 3.100000
v -0.293289 12.583177 3.100000
v -0.293289 11.431010 3.100000
v 1.198381 10.436807 3.100000
v -0.293289 9.867300 3.100000
v 1.826241 10.612876 3.100000
v 2.426818 10.716890 3.100000
v 3.002110 10.751168 3.100000
v 3.386058 10.728783 3.100000
v 3.708342 10.665180 3.100000
v 3.970285 10.567382 3.100000
v 4.179371 10.440515 3.100000
v 4.331697 10.297695 3.100000
v 4.430333 10.146977 3.100000
v 4.490730 9.971712 3.100000
v 4.511414 9.768812 3.100000
v 4.453855 9.407596 3.100000
v 4.257215 8.942064 3.100000
v 3.894327 8.366532 3.100000
v 3.352748 7.688993 3.100000
v 2.824633 7.077095 3.100000
v 2.249377 6.312773 3.100000
v 1.819640 5.486637 3.100000
v 1.557754 4.620231 3.100000
v 1.473101 3.752351 3.100000
v 1.473101 2.675489 3.100000
v 4.306684 2.675489 3.100000
v 4.306684 4.176361 3.100000
v 4.320199 4.535548 3.100000
v 4.357809 4.830492 3.100000
v 4.415465 5.069464 3.100000
v 4.488494 5.255570 3.100000
v 4.600379 5.446258 3.100000
v 4.784261 5.689823 3.100000
v 5.042060 5.978528 3.100000
v 5.375350 6.309730 3.100000
v 5.889160 6.790440 3.100000
v 6.280318 7.178218 3.100000
v 6.613208 7.546033 3.100000
v 6.886900 7.895835 3.100000
v 7.101046 8.234831 3.100000
v 7.260377 8.586139 3.100000
v 7.372159 8.963346 3.100000
v 7.437386 9.360493 3.100000
v 7.459225 9.791870 3.100000
v 7.385555 10.518915 3.100000
v 7.152897 11.200784 3.100000
v 6.762523 11.802540 3.100000
v 6.229948 12.307684 3.100000
v 5.586787 12.702141 3.100000
v 4.858993 12.977007 3.100000
v 4.054837 13.136845 3.100000
vt 0.423530 0.706837
vt 0.326602 0.706837
vt 0.326602 0.669753
vt 0.423530 0.669753
vt 0.326602 0.632669
vt 0.423530 0.632669
vt 0.326602 0.595584
vt 0.423530 0.595584
vt 0.326602 0.558500
vt 0.423530 0.558500
vt 0.120575 0.558500
vt 0.217504 0.558500
vt 0.217504 0.595584
vt 0.120575 0.595584
vt 0.217504 0.632669
vt 0.120575 0.632669
vt 0.217504 0.669753
vt 0.120575 0.669753
vt 0.217504 0.706837
vt 0.120575 0.706837
vt 0.114490 0.706837
vt 0.032324 0.706837
vt 0.032324 0.669753
vt 0.114490 0.669753
vt 0.032324 0.632669
vt 0.114490 0.632669
vt 0.032324 0.595584
vt 0.114490 0.595584
vt 0.032324 0.558500
vt 0.114490 0.558500
vt 0.841472 0.956673
vt 0.841472 0.938193
vt 0.878557 0.938193
vt 0.878557 0.956673
vt 0.841472 0.917434
vt 0.878557 0.917434
vt 0.915641 0.938193
vt 0.915641 0.956673
vt 0.841472 0.972887
vt 0.878557 0.972887
vt 0.841472 0.887144
vt 0.878557 0.887144
vt 0.915641 0.917434
vt 0.952725 0.938193
vt 0.952725 0.956673
vt 0.915641 0.972887
vt 0.841472 0.986813
vt 0.878557 0.986813
vt 0.841472 0.852863
vt 0.878557 0.852863
vt 0.915641 0.887144
vt 0.952725 0.917434
vt 0.989809 0.938193
vt 0.989809 0.956673
vt 0.952725 0.972887
vt 0.915641 0.986813
vt 0.841472 0.998008
vt 0.878557 0.998008
vt 0.841472 0.814571
vt 0.878557 0.814571
vt 0.915641 0.852863
vt 0.952725 0.887144
vt 0.989809 0.917434
vt 0.989809 0.972887
vt 0.952725 0.986813
vt 0.915641 0.998008
vt 0.841472 0.772289
vt 0.878557 0.772289
vt 0.915641 0.814571
vt 0.952725 0.852863
vt 0.989809 0.887144
vt 0.989809 0.986813
vt 0.952725 0.998008
vt 0.841472 0.736375
vt 0.878557 0.736375
vt 0.915641 0.772289
vt 0.952725 0.814571
vt 0.989809 0.852863
vt 0.989809 0.998008
vt 0.841472 0.694335
vt 0.878557 0.694335
vt 0.915641 0.736375
vt 0.952725 0.772289
vt 0.989809 0.814571
vt 0.841472 0.650884
vt 0.878557 0.650884
vt 0.915641 0.694335
vt 0.952725 0.736375
vt 0.989809 0.772289
vt 0.841472 0.606012
vt 0.878557 0.606012
vt 0.915641 0.650884
vt 0.952725 0.694335
vt 0.989809 0.736375
vt 0.841472 0.559729
vt 0.878557 0.559729
vt 0.915641 0.606012
vt 0.952725 0.650884
vt 0.989809 0.694335
vt 0.841472 0.533167
vt 0.878557 0.533167
vt 0.915641 0.559729
vt 0.952725 0.606012
vt 0.989809 0.650884
vt 0.915641 0.533167
vt 0.952725 0.559729
vt 0.989809 0.606012
vt 0.952725 0.533167
vt 0.989809 0.559729
vt 0.989809 0.533167
vt 0.943012 0.001992
vt 0.943012 0.056114
vt 0.905928 0.056114
vt 0.905928 0.001992
vt 0.943012 0.079684
vt 0.905928 0.079684
vt 0.868844 0.056114
vt 0.868844 0.001992
vt 0.943012 0.100704
vt 0.905928 0.100704
vt 0.868844 0.079684
vt 0.831759 0.056114
vt 0.831759 0.001992
vt 0.943012 0.119165
vt 0.905928 0.119165
vt 0.868844 0.100704
vt 0.831759 0.079684
vt 0.794675 0.056114
vt 0.794675 0.001992
vt 0.943012 0.135086
vt 0.905928 0.135086
vt 0.868844 0.119165
vt 0.831759 0.100704
vt 0.794675 0.079684
vt 0.943012 0.150594
vt 0.905928 0.150594
vt 0.868844 0.135086
vt 0.831759 0.119165
vt 0.794675 0.100704
vt 0.943012 0.167866
vt 0.905928 0.167866
vt 0.868844 0.150594
vt 0.831759 0.135086
vt 0.794675 0.119165
vt 0.943012 0.186881
vt 0.905928 0.186881
vt 0.868844 0.167866
vt 0.831759 0.150594
vt 0.794675 0.135086
vt 0.943012 0.207659
vt 0.905928 0.207659
vt 0.868844 0.186881
vt 0.831759 0.167866
vt 0.794675 0.150594
vt 0.943012 0.236196
vt 0.905928 0.236196
vt 0.868844 0.207659
vt 0.831759 0.186881
vt 0.794675 0.167866
vt 0.943012 0.258164
vt 0.905928 0.258164
vt 0.868844 0.236196
vt 0.831759 0.207659
vt 0.794675 0.186881
vt 0.943012 0.278327
vt 0.905928 0.278327
vt 0.868844 0.258164
vt 0.831759 0.236196
vt 0.794675 0.207659
vt 0.943012 0.296667
vt 0.905928 0.296667
vt 0.868844 0.278327
vt 0.831759 0.258164
vt 0.794675 0.236196
vt 0.943012 0.313193
vt 0.905928 0.313193
vt 0.868844 0.296667
vt 0.831759 0.278327
vt 0.794675 0.258164
vt 0.943012 0.329568
vt 0.905928 0.329568
vt 0.868844 0.313193
vt 0.831759 0.296667
vt 0.794675 0.278327
vt 0.943012 0.347454
vt 0.905928 0.347454
vt 0.868844 0.329568
vt 0.831759 0.313193
vt 0.794675 0.296667
vt 0.943012 0.366841
vt 0.905928 0.366841
vt 0.868844 0.347454
vt 0.831759 0.329568
vt 0.794675 0.313193
vt 0.943012 0.387741
vt 0.905928 0.387741
vt 0.868844 0.366841
vt 0.831759 0.347454
vt 0.794675 0.329568
vt 0.943012 0.424138
vt 0.905928 0.424138
vt 0.868844 0.387741
vt 0.831759 0.366841
vt 0.794675 0.347454
vt 0.943012 0.456565
vt 0.905928 0.456565
vt 0.868844 0.424138
vt 0.831759 0.387741
vt 0.794675 0.366841
vt 0.943012 0.485022
vt 0.905928 0.485022
vt 0.868844 0.456565
vt 0.831759 0.424138
vt 0.794675 0.387741
vt 0.943012 0.509518
vt 0.905928 0.509518
vt 0.868844 0.485022
vt 0.831759 0.456565
vt 0.794675 0.424138
vt 0.943012 0.529208
vt 0.905928 0.529208
vt 0.868844 0.509518
vt 0.831759 0.485022
vt 0.794675 0.456565
vt 0.868844 0.529208
vt 0.831759 0.509518
vt 0.794675 0.485022
vt 0.831759 0.529208
vt 0.794675 0.509518
vt 0.794675 0.529208
vt 0.526543 0.706837
vt 0.429615 0.706837
vt 0.429615 0.669753
vt 0.526543 0.669753
vt 0.429615 0.632669
vt 0.526543 0.632669
vt 0.429615 0.595584
vt 0.526543 0.595584
vt 0.429615 0.558500
vt 0.526543 0.558500
vt 0.223589 0.558500
vt 0.320517 0.558500
vt 0.320517 0.595584
vt 0.223589 0.595584
vt 0.320517 0.632669
vt 0.223589 0.632669
vt 0.320517 0.669753
vt 0.223589 0.669753
vt 0.320517 0.706837
vt 0.223589 0.706837
vt 0.835387 0.685810
vt 0.835387 0.726157
vt 0.798303 0.726157
vt 0.798303 0.685810
vt 0.835387 0.767986
vt 0.798303 0.767986
vt 0.761219 0.726157
vt 0.761219 0.685810
vt 0.835387 0.638207
vt 0.798303 0.638207
vt 0.835387 0.811276
vt 0.798303 0.811276
vt 0.761219 0.767986
vt 0.724135 0.726157
vt 0.724135 0.685810
vt 0.761219 0.638207
vt 0.835387 0.595774
vt 0.798303 0.595774
vt 0.835387 0.856057
vt 0.798303 0.856057
vt 0.761219 0.811276
vt 0.724135 0.767986
vt 0.687050 0.726157
vt 0.687050 0.685810
vt 0.724135 0.638207
vt 0.761219 0.595774
vt 0.835387 0.558500
vt 0.798303 0.558500
vt 0.761219 0.856057
vt 0.724135 0.811276
vt 0.687050 0.767986
vt 0.687050 0.638207
vt 0.724135 0.595774
vt 0.761219 0.558500
vt 0.724135 0.856057
vt 0.687050 0.811276
vt 0.687050 0.595774
vt 0.724135 0.558500
vt 0.687050 0.856057
vt 0.687050 0.558500
vt 0.532628 0.791475
vt 0.532628 0.749747
vt 0.569713 0.749747
vt 0.569713 0.791475
vt 0.532628 0.709178
vt 0.569713 0.709178
vt 0.606797 0.749747
vt 0.606797 0.791475
vt 0.532628 0.669788
vt 0.569713 0.669788
vt 0.606797 0.709178
vt 0.643881 0.749747
vt 0.643881 0.791475
vt 0.532628 0.631567
vt 0.569713 0.631567
vt 0.606797 0.669788
vt 0.643881 0.709178
vt 0.680965 0.749747
vt 0.680965 0.791475
vt 0.532628 0.604259
vt 0.569713 0.604259
vt 0.606797 0.631567
vt 0.643881 0.669788
vt 0.680965 0.709178
vt 0.532628 0.579903
vt 0.569713 0.579903
vt 0.606797 0.604259
vt 0.643881 0.631567
vt 0.680965 0.669788
vt 0.532628 0.558500
vt 0.569713 0.558500
vt 0.606797 0.579903
vt 0.643881 0.604259
vt 0.680965 0.631567
vt 0.606797 0.558500
vt 0.643881 0.579903
vt 0.680965 0.604259
vt 0.643881 0.558500
vt 0.680965 0.579903
vt 0.680965 0.558500
vt 0.001976 0.710796
vt 0.098904 0.710796
vt 0.098904 0.747880
vt 0.001976 0.747880
vt 0.098904 0.784964
vt 0.001976 0.784964
vt 0.098904 0.822048
vt 0.001976 0.822048
vt 0.098904 0.859133
vt 0.001976 0.859133
vt 0.203476 0.807724
vt 0.106548 0.807724
vt 0.106548 0.710796
vt 0.203476 0.710796
vt 0.307855 0.807724
vt 0.210927 0.807724
vt 0.210927 0.710796
vt 0.307855 0.710796
vt 0.219825 0.004814
vt 0.262258 0.013248
vt 0.299532 0.027325
vt 0.331637 0.047015
vt 0.357464 0.071512
vt 0.375924 0.099968
vt 0.386989 0.132395
vt 0.390677 0.168793
vt 0.389619 0.189692
vt 0.386434 0.209080
vt 0.381134 0.226966
vt 0.373708 0.243341
vt 0.363268 0.259866
vt 0.348919 0.278206
vt 0.330670 0.298370
vt 0.308511 0.320337
vt 0.278008 0.348875
vt 0.257099 0.369653
vt 0.240120 0.388668
vt 0.227081 0.405939
vt 0.217981 0.421447
vt 0.211734 0.437369
vt 0.207280 0.455829
vt 0.204599 0.476849
vt 0.203712 0.500419
vt 0.203712 0.554541
vt 0.106784 0.554541
vt 0.106784 0.527979
vt 0.111299 0.481696
vt 0.124862 0.436825
vt 0.147464 0.393374
vt 0.179105 0.351333
vt 0.210101 0.315420
vt 0.243899 0.273138
vt 0.268043 0.234846
vt 0.282523 0.200565
vt 0.287350 0.170274
vt 0.285234 0.149516
vt 0.278865 0.131035
vt 0.268254 0.114822
vt 0.253401 0.100895
vt 0.234950 0.089700
vt 0.213547 0.081709
vt 0.189192 0.076903
vt 0.161884 0.075311
vt 0.123663 0.077588
vt 0.084273 0.084410
vt 0.043704 0.095787
vt 0.001976 0.111718
vt 0.001976 0.029552
vt 0.046757 0.017490
vt 0.090047 0.008885
vt 0.131875 0.003715
vt 0.172223 0.001992
vt 0.568669 0.554541
vt 0.528322 0.552818
vt 0.486493 0.547649
vt 0.443203 0.539043
vt 0.398422 0.526981
vt 0.398422 0.444815
vt 0.440150 0.460747
vt 0.480719 0.472123
vt 0.520109 0.478945
vt 0.558330 0.481223
vt 0.585638 0.479631
vt 0.609994 0.474824
vt 0.631397 0.466833
vt 0.649847 0.455638
vt 0.664701 0.441712
vt 0.675311 0.425498
vt 0.681680 0.407018
vt 0.683796 0.386259
vt 0.678969 0.355969
vt 0.664489 0.321688
vt 0.640345 0.283396
vt 0.606547 0.241114
vt 0.575551 0.205200
vt 0.543910 0.163160
vt 0.521308 0.119709
vt 0.507745 0.074837
vt 0.503230 0.028554
vt 0.503230 0.001992
vt 0.600159 0.001992
vt 0.600159 0.056114
vt 0.601046 0.079684
vt 0.603726 0.100704
vt 0.608180 0.119165
vt 0.614428 0.135086
vt 0.623527 0.150594
vt 0.636566 0.167866
vt 0.653545 0.186881
vt 0.674455 0.207659
vt 0.704957 0.236196
vt 0.727116 0.258164
vt 0.745365 0.278327
vt 0.759714 0.296667
vt 0.770154 0.313193
vt 0.777580 0.329568
vt 0.782881 0.347454
vt 0.786065 0.366841
vt 0.787123 0.387741
vt 0.783435 0.424138
vt 0.772371 0.456565
vt 0.753910 0.485022
vt 0.728083 0.509518
vt 0.695979 0.529208
vt 0.658705 0.543286
vt 0.616272 0.551720
vt 0.001976 0.070635
vt 0.073407 0.706837
vt 0.073407 0.669753
vt 0.073407 0.632669
vt 0.073407 0.595584
vt 0.073407 0.558500
vt 0.398422 0.485898
vt 0.203476 0.807724
vt 0.106548 0.807724
vt 0.106548 0.710796
vt 0.203476 0.710796
vt 0.526543 0.706837
vt 0.429615 0.706837
vt 0.429615 0.669753
vt 0.526543 0.669753
vt 0.423530 0.706837
vt 0.326602 0.706837
vt 0.326602 0.669753
vt 0.423530 0.669753
vt 0.223589 0.558500
vt 0.320517 0.558500
vt 0.320517 0.595584
vt 0.223589 0.595584
vt 0.120575 0.558500
vt 0.217504 0.558500
vt 0.217504 0.595584
vt 0.120575 0.595584
vt 0.429615 0.632669
vt 0.526543 0.632669
vt 0.326602 0.632669
vt 0.423530 0.632669
vt 0.320517 0.632669
vt 0.223589 0.632669
vt 0.217504 0.632669
vt 0.120575 0.632669
vt 0.429615 0.595584
vt 0.526543 0.595584
vt 0.326602 0.595584
vt 0.423530 0.595584
vt 0.320517 0.669753
vt 0.223589 0.669753
vt 0.217504 0.669753
vt 0.120575 0.669753
vt 0.429615 0.558500
vt 0.526543 0.558500
vt 0.326602 0.558500
vt 0.423530 0.558500
vt 0.320517 0.706837
vt 0.223589 0.706837
vt 0.217504 0.706837
vt 0.120575 0.706837
vt 0.307855 0.807724
vt 0.210927 0.807724
vt 0.210927 0.710796
vt 0.307855 0.710796
vt 0.835387 0.685810
vt 0.835387 0.726157
vt 0.798303 0.726157
vt 0.798303 0.685810
vt 0.835387 0.767986
vt 0.798303 0.767986
vt 0.835387 0.811276
vt 0.798303 0.811276
vt 0.835387 0.856057
vt 0.798303 0.856057
vt 0.114490 0.706837
vt 0.073407 0.706837
vt 0.073407 0.669753
vt 0.114490 0.669753
vt 0.532628 0.791475
vt 0.532628 0.749747
vt 0.569713 0.749747
vt 0.569713 0.791475
vt 0.532628 0.709178
vt 0.569713 0.709178
vt 0.532628 0.669788
vt 0.569713 0.669788
vt 0.532628 0.631567
vt 0.569713 0.631567
vt 0.532628 0.604259
vt 0.569713 0.604259
vt 0.532628 0.579903
vt 0.569713 0.579903
vt 0.532628 0.558500
vt 0.569713 0.558500
vt 0.841472 0.998008
vt 0.841472 0.986813
vt 0.878557 0.986813
vt 0.878557 0.998008
vt 0.841472 0.972887
vt 0.878557 0.972887
vt 0.841472 0.956673
vt 0.878557 0.956673
vt 0.841472 0.938193
vt 0.878557 0.938193
vt 0.841472 0.917434
vt 0.878557 0.917434
vt 0.841472 0.887144
vt 0.878557 0.887144
vt 0.841472 0.852863
vt 0.878557 0.852863
vt 0.841472 0.814571
vt 0.878557 0.814571
vt 0.841472 0.772289
vt 0.878557 0.772289
vt 0.841472 0.736375
vt 0.878557 0.736375
vt 0.841472 0.694335
vt 0.878557 0.694335
vt 0.841472 0.650884
vt 0.878557 0.650884
vt 0.841472 0.606012
vt 0.878557 0.606012
vt 0.841472 0.559729
vt 0.878557 0.559729
vt 0.841472 0.533167
vt 0.878557 0.533167
vt 0.001976 0.710796
vt 0.098904 0.710796
vt 0.098904 0.747880
vt 0.001976 0.747880
vt 0.943012 0.001992
vt 0.943012 0.056114
vt 0.905928 0.056114
vt 0.905928 0.001992
vt 0.943012 0.079684
vt 0.905928 0.079684
vt 0.943012 0.100704
vt 0.905928 0.100704
vt 0.943012 0.119165
vt 0.905928 0.119165
vt 0.943012 0.135086
vt 0.905928 0.135086
vt 0.943012 0.150594
vt 0.905928 0.150594
vt 0.943012 0.167866
vt 0.905928 0.167866
vt 0.943012 0.186881
vt 0.905928 0.186881
vt 0.943012 0.207659
vt 0.905928 0.207659
vt 0.943012 0.236196
vt 0.905928 0.236196
vt 0.943012 0.258164
vt 0.905928 0.258164
vt 0.943012 0.278327
vt 0.905928 0.278327
vt 0.943012 0.296667
vt 0.905928 0.296667
vt 0.943012 0.313193
vt 0.905928 0.313193
vt 0.943012 0.329568
vt 0.905928 0.329568
vt 0.943012 0.347454
vt 0.905928 0.347454
vt 0.943012 0.366841
vt 0.905928 0.366841
vt 0.943012 0.387741
vt 0.905928 0.387741
vt 0.943012 0.424138
vt 0.905928 0.424138
vt 0.943012 0.456565
vt 0.905928 0.456565
vt 0.943012 0.485022
vt 0.905928 0.485022
vt 0.943012 0.509518
vt 0.905928 0.509518
vt 0.943012 0.529208
vt 0.905928 0.529208
vt 0.835387 0.558500
vt 0.835387 0.595774
vt 0.798303 0.595774
vt 0.798303 0.558500
vt 0.835387 0.638207
vt 0.798303 0.638207
vt 0.761219 0.726157
vt 0.761219 0.685810
vt 0.761219 0.767986
vt 0.761219 0.811276
vt 0.761219 0.856057
vt 0.073407 0.632669
vt 0.114490 0.632669
vt 0.606797 0.749747
vt 0.606797 0.791475
vt 0.606797 0.709178
vt 0.606797 0.669788
vt 0.606797 0.631567
vt 0.606797 0.604259
vt 0.606797 0.579903
vt 0.606797 0.558500
vt 0.915641 0.986813
vt 0.915641 0.998008
vt 0.915641 0.972887
vt 0.915641 0.956673
vt 0.915641 0.938193
vt 0.915641 0.917434
vt 0.915641 0.887144
vt 0.915641 0.852863
vt 0.915641 0.814571
vt 0.915641 0.772289
vt 0.915641 0.736375
vt 0.915641 0.694335
vt 0.915641 0.650884
vt 0.915641 0.606012
vt 0.915641 0.559729
vt 0.915641 0.533167
vt 0.098904 0.784964
vt 0.001976 0.784964
vt 0.868844 0.056114
vt 0.868844 0.001992
vt 0.868844 0.079684
vt 0.868844 0.100704
vt 0.868844 0.119165
vt 0.868844 0.135086
vt 0.868844 0.150594
vt 0.868844 0.167866
vt 0.868844 0.186881
vt 0.868844 0.207659
vt 0.868844 0.236196
vt 0.868844 0.258164
vt 0.868844 0.278327
vt 0.868844 0.296667
vt 0.868844 0.313193
vt 0.868844 0.329568
vt 0.868844 0.347454
vt 0.868844 0.366841
vt 0.868844 0.387741
vt 0.868844 0.424138
vt 0.868844 0.456565
vt 0.868844 0.485022
vt 0.868844 0.509518
vt 0.868844 0.529208
vt 0.761219 0.595774
vt 0.761219 0.558500
vt 0.761219 0.638207
vt 0.724135 0.726157
vt 0.724135 0.685810
vt 0.724135 0.767986
vt 0.724135 0.811276
vt 0.724135 0.856057
vt 0.073407 0.595584
vt 0.114490 0.595584
vt 0.643881 0.749747
vt 0.643881 0.791475
vt 0.643881 0.709178
vt 0.643881 0.669788
vt 0.643881 0.631567
vt 0.643881 0.604259
vt 0.643881 0.579903
vt 0.643881 0.558500
vt 0.952725 0.986813
vt 0.952725 0.998008
vt 0.952725 0.972887
vt 0.952725 0.956673
vt 0.952725 0.938193
vt 0.952725 0.917434
vt 0.952725 0.887144
vt 0.952725 0.852863
vt 0.952725 0.814571
vt 0.952725 0.772289
vt 0.952725 0.736375
vt 0.952725 0.694335
vt 0.952725 0.650884
vt 0.952725 0.606012
vt 0.952725 0.559729
vt 0.952725 0.533167
vt 0.098904 0.822048
vt 0.001976 0.822048
vt 0.831759 0.056114
vt 0.831759 0.001992
vt 0.831759 0.079684
vt 0.831759 0.100704
vt 0.831759 0.119165
vt 0.831759 0.135086
vt 0.831759 0.150594
vt 0.831759 0.167866
vt 0.831759 0.186881
vt 0.831759 0.207659
vt 0.831759 0.236196
vt 0.831759 0.258164
vt 0.831759 0.278327
vt 0.831759 0.296667
vt 0.831759 0.313193
vt 0.831759 0.329568
vt 0.831759 0.347454
vt 0.831759 0.366841
vt 0.831759 0.387741
vt 0.831759 0.424138
vt 0.831759 0.456565
vt 0.831759 0.485022
vt 0.831759 0.509518
vt 0.831759 0.529208
vt 0.724135 0.595774
vt 0.724135 0.558500
vt 0.724135 0.638207
vt 0.687050 0.726157
vt 0.687050 0.685810
vt 0.687050 0.767986
vt 0.687050 0.811276
vt 0.687050 0.856057
vt 0.073407 0.558500
vt 0.114490 0.558500
vt 0.680965 0.749747
vt 0.680965 0.791475
vt 0.680965 0.709178
vt 0.680965 0.669788
vt 0.680965 0.631567
vt 0.680965 0.604259
vt 0.680965 0.579903
vt 0.680965 0.558500
vt 0.989809 0.986813
vt 0.989809 0.998008
vt 0.989809 0.972887
vt 0.989809 0.956673
vt 0.989809 0.938193
vt 0.989809 0.917434
vt 0.989809 0.887144
vt 0.989809 0.852863
vt 0.989809 0.814571
vt 0.989809 0.772289
vt 0.989809 0.736375
vt 0.989809 0.694335
vt 0.989809 0.650884
vt 0.989809 0.606012
vt 0.989809 0.559729
vt 0.989809 0.533167
vt 0.098904 0.859133
vt 0.001976 0.859133
vt 0.794675 0.056114
vt 0.794675 0.001992
vt 0.794675 0.079684
vt 0.794675 0.100704
vt 0.794675 0.119165
vt 0.794675 0.135086
vt 0.794675 0.150594
vt 0.794675 0.167866
vt 0.794675 0.186881
vt 0.794675 0.207659
vt 0.794675 0.236196
vt 0.794675 0.258164
vt 0.794675 0.278327
vt 0.794675 0.296667
vt 0.794675 0.313193
vt 0.794675 0.329568
vt 0.794675 0.347454
vt 0.794675 0.366841
vt 0.794675 0.387741
vt 0.794675 0.424138
vt 0.794675 0.456565
vt 0.794675 0.485022
vt 0.794675 0.509518
vt 0.794675 0.529208
vt 0.687050 0.595774
vt 0.687050 0.558500
vt 0.687050 0.638207
vt 0.032324 0.706837
vt 0.032324 0.669753
vt 0.032324 0.632669
vt 0.032324 0.595584
vt 0.032324 0.558500
vn 0.000000 0.000000 -1.000000
vn 0.000000 0.000000 -1.000000
vn 0.000000 0.000000 -1.000000
vn 0.000000 0.000000 -1.000000
vn 0.000000 1.000000 0.000000
vn 0.000000 1.000000 0.000000
vn 0.000000 1.000000 0.000000
vn 0.000000 1.000000 0.000000
vn -1.000000 0.000000 0.000000
vn -1.000000 0.000000 0.000000
vn -1.000000 0.000000 0.000000
vn -1.000000 0.000000 0.000000
vn 0.000000 -1.000000 0.000000
vn 0.000000 -1.000000 0.000000
vn 0.000000 -1.000000 0.000000
vn 0.000000 -1.000000 0.000000
vn 1.000000 0.000000 0.000000
vn 1.000000 0.000000 0.000000
vn 1.000000 0.000000 0.000000
vn 1.000000 0.000000 0.000000
vn 0.000000 1.000000 0.000000
vn 0.000000 1.000000 0.000000
vn -1.000000 0.000000 0.000000
vn -1.000000 0.000000 0.000000
vn 0.000000 -1.000000 0.000000
vn 0.000000 -1.000000 0.000000
vn 1.000000 0.000000 0.000000
vn 1.000000 0.000000 0.000000
vn 0.000000 1.000000 0.000000
vn 0.000000 1.000000 0.000000
vn -1.000000 0.000000 0.000000
vn -1.000000 0.000000 0.000000
vn 0.000000 -1.000000 0.000000
vn 0.000000 -1.000000 0.000000
vn 1.000000 0.000000 0.000000
vn 1.000000 0.000000 0.000000
vn 0.000000 1.000000 0.000000
vn 0.000000 1.000000 0.000000
vn -1.000000 0.000000 0.000000
vn -1.000000 0.000000 0.000000
vn 0.000000 -1.000000 0.000000
vn 0.000000 -1.000000 0.000000
vn 1.000000 0.000000 0.000000
vn 1.000000 0.000000 0.000000
vn 0.000000 0.000000 1.000000
vn 0.000000 0.000000 1.000000
vn 0.000000 0.000000 1.000000
vn 0.000000 0.000000 1.000000
vn 0.000000 0.000000 -1.000000
vn 0.000000 0.000000 -1.000000
vn 0.000000 0.000000 -1.000000
vn 0.000000 0.000000 -1.000000
vn 0.000000 0.000000 -1.000000
vn 0.000000 0.000000 -1.000000
vn 0.000000 0.000000 -1.000000
vn 0.000000 0.000000 -1.000000
vn 0.000000 0.000000 -1.000000
vn -0.000000 0.000000 -1.000000
vn 0.000000 0.000000 -1.000000
vn -0.000000 0.000000 -1.000000
vn 0.000000 0.000000 -1.000000
vn 0.000000 0.000000 -1.000000
vn -0.000000 0.000000 -1.000000
vn 0.000000 0.000000 -1.000000
vn 0.000000 0.000000 -1.000000
vn -0.000000 0.000000 -1.000000
vn -0.000000 0.000000 -1.000000
vn -0.000000 0.000000 -1.000000
vn -0.000000 0.000000 -1.000000
vn 0.000000 0.000000 -1.000000
vn 0.000000 0.000000 -1.000000
vn -0.000000 0.000000 -1.000000
vn 0.000000 0.000000 -1.000000
vn 0.000000 0.000000 -1.000000
vn -0.000000 0.000000 -1.000000
vn -0.000000 0.000000 -1.000000
vn -0.000000 0.000000 -1.000000
vn 0.000000 0.000000 -1.000000
vn -0.000000 0.000000 -1.000000
vn 0.000000 0.000000 -1.000000
vn 0.000000 0.000000 -1.000000
vn -0.000000 0.000000 -1.000000
vn -0.000000 0.000000 -1.000000
vn -0.000000 0.000000 -1.000000
vn 0.000000 0.000000 -1.000000
vn -0.000000 0.000000 -1.000000
vn 0.000000 0.000000 -1.000000
vn 0.000000 0.000000 -1.000000
vn 0.000000 0.000000 -1.000000
vn -0.000000 0.000000 -1.000000
vn 0.000000 0.000000 -1.000000
vn -0.000000 0.000000 -1.000000
vn 0.000000 0.000000 -1.000000
vn -0.000000 0.000000 -1.000000
vn -0.000000 0.000000 -1.000000
vn 0.000000 0.000000 -1.000000
vn 0.000000 0.000000 -1.000000
vn -0.000000 0.000000 -1.000000
vn 0.000000 0.000000 -1.000000
vn 0.000000 0.000000 -1.000000
vn -0.000000 0.000000 -1.000000
vn 0.000000 0.000000 -1.000000
vn 0.000000 0.000000 -1.000000
vn 0.012697 0.999919 -0.000001
vn -0.083292 0.996525 -0.000000
vn -0.083292 0.996525 -0.000000
vn 0.012697 0.999919 -0.000000
vn -0.159613 0.987180 -0.000000
vn -0.159613 0.987180 -0.000000
vn -0.235214 0.971944 0.000000
vn -0.235214 0.971944 0.000000
vn -0.260081 0.965587 0.000001
vn -0.260081 0.965587 0.000000
vn -1.000000 0.000000 0.000000
vn -1.000000 0.000000 0.000000
vn -1.000000 0.000000 0.000000
vn -1.000000 0.000000 0.000000
vn 0.356680 -0.934227 0.000000
vn 0.331833 -0.943338 0.000001
vn 0.331833 -0.943338 0.000000
vn 0.356680 -0.934227 0.000000
vn 0.222295 -0.974979 0.000001
vn 0.222295 -0.974980 0.000000
vn 0.116804 -0.993155 0.000000
vn 0.116803 -0.993155 0.000000
vn 0.012397 -0.999923 0.000000
vn 0.012397 -0.999923 0.000000
vn -0.120863 -0.992669 0.000000
vn -0.120864 -0.992669 0.000000
vn -0.266289 -0.963893 -0.000000
vn -0.266289 -0.963893 -0.000000
vn -0.430506 -0.902588 -0.000000
vn -0.430505 -0.902588 -0.000000
vn -0.598050 -0.801459 -0.000000
vn -0.598050 -0.801459 -0.000000
vn -0.760076 -0.649835 0.000000
vn -0.760075 -0.649835 0.000000
vn -0.898749 -0.438463 0.000000
vn -0.898749 -0.438464 0.000000
vn -0.977778 -0.209643 0.000000
vn -0.977778 -0.209643 0.000000
vn -0.997870 0.065231 0.000000
vn -0.997870 0.065231 0.000000
vn -0.955839 0.293891 -0.000000
vn -0.955839 0.293891 -0.000000
vn -0.880840 0.473414 0.000000
vn -0.880840 0.473413 0.000000
vn -0.810841 0.585266 0.000000
vn -0.810841 0.585266 0.000000
vn -0.769639 0.638479 -0.000000
vn -0.769639 0.638479 -0.000000
vn -0.780206 0.625522 -0.000000
vn -0.780206 0.625522 -0.000000
vn -0.845371 0.534180 -0.000000
vn -0.845370 0.534180 0.000000
vn -0.925696 0.378267 -0.000000
vn -0.925696 0.378267 -0.000000
vn -0.980615 0.195943 0.000000
vn -0.980615 0.195943 -0.000000
vn -0.999054 0.043488 -0.000000
vn -0.999054 0.043488 -0.000000
vn -1.000000 -0.000000 -0.000000
vn -1.000000 -0.000000 -0.000000
vn 0.000000 -1.000000 0.000000
vn 0.000000 -1.000000 0.000000
vn 0.000000 -1.000000 0.000000
vn 0.000000 -1.000000 0.000000
vn 1.000000 0.000000 0.000000
vn 0.999974 -0.007265 0.000000
vn 0.999974 -0.007265 0.000000
vn 1.000000 0.000000 0.000000
vn 0.996960 -0.077919 0.000000
vn 0.996960 -0.077918 0.000000
vn 0.984452 -0.175655 0.000000
vn 0.984452 -0.175655 0.000000
vn 0.955847 -0.293865 0.000000
vn 0.955847 -0.293865 0.000000
vn 0.897723 -0.440560 -0.000000
vn 0.897723 -0.440561 -0.000000
vn 0.826505 -0.562929 0.000000
vn 0.826505 -0.562929 0.000000
vn 0.769554 -0.638582 0.000000
vn 0.769554 -0.638581 0.000000
vn 0.723729 -0.690085 0.000000
vn 0.723729 -0.690085 0.000000
vn 0.691953 -0.721943 0.000000
vn 0.691953 -0.721943 0.000000
vn 0.692415 -0.721499 -0.000000
vn 0.692415 -0.721499 -0.000000
vn 0.722018 -0.691874 -0.000000
vn 0.722018 -0.691874 -0.000000
vn 0.763718 -0.645550 0.000000
vn 0.763718 -0.645550 0.000000
vn 0.816058 -0.577970 -0.000000
vn 0.816058 -0.577970 -0.000000
vn 0.879525 -0.475852 -0.000000
vn 0.879525 -0.475852 -0.000000
vn 0.937207 -0.348775 0.000000
vn 0.937207 -0.348775 0.000000
vn 0.974855 -0.222841 0.000000
vn 0.974855 -0.222841 0.000000
vn 0.994524 -0.104511 0.000000
vn 0.994524 -0.104512 0.000000
vn 0.999001 0.044698 -0.000000
vn 0.999001 0.044698 -0.000000
vn 0.977170 0.212458 0.000000
vn 0.977170 0.212458 0.000000
vn 0.899630 0.436653 0.000000
vn 0.899630 0.436653 0.000000
vn 0.768040 0.640402 -0.000000
vn 0.768040 0.640402 -0.000000
vn 0.607667 0.794192 -0.000000
vn 0.607667 0.794192 -0.000000
vn 0.438722 0.898623 -0.000001
vn 0.438722 0.898623 -0.000001
vn 0.272981 0.962019 -0.000001
vn 0.272981 0.962020 -0.000001
vn 0.125128 0.992141 -0.000001
vn 0.125128 0.992141 -0.000000
vn -0.083292 0.996525 0.000000
vn 0.012697 0.999919 0.000000
vn -0.159613 0.987180 0.000000
vn -0.235214 0.971944 0.000000
vn -0.260081 0.965587 0.000000
vn -1.000000 0.000000 0.000000
vn -1.000000 0.000000 0.000000
vn 0.331833 -0.943338 0.000000
vn 0.356681 -0.934227 0.000000
vn 0.222295 -0.974979 0.000000
vn 0.116803 -0.993155 0.000000
vn 0.012397 -0.999923 0.000000
vn -0.120864 -0.992669 0.000000
vn -0.266289 -0.963893 0.000000
vn -0.430506 -0.902588 0.000000
vn -0.598050 -0.801459 0.000000
vn -0.760075 -0.649835 0.000000
vn -0.898748 -0.438465 0.000000
vn -0.977778 -0.209643 0.000000
vn -0.997870 0.065232 0.000000
vn -0.955839 0.293890 0.000000
vn -0.880841 0.473413 0.000000
vn -0.810841 0.585266 0.000000
vn -0.769639 0.638479 0.000000
vn -0.780206 0.625522 -0.000000
vn -0.845371 0.534180 -0.000000
vn -0.925696 0.378267 -0.000000
vn -0.980615 0.195943 -0.000000
vn -0.999054 0.043488 -0.000000
vn -1.000000 -0.000000 0.000000
vn 0.000000 -1.000000 0.000000
vn 0.000000 -1.000000 0.000000
vn 0.999974 -0.007265 0.000000
vn 1.000000 0.000000 0.000000
vn 0.996960 -0.077918 0.000000
vn 0.984452 -0.175654 0.000000
vn 0.955847 -0.293866 0.000000
vn 0.897723 -0.440560 0.000000
vn 0.826505 -0.562929 0.000000
vn 0.769555 -0.638581 0.000000
vn 0.723728 -0.690085 0.000000
vn 0.691953 -0.721943 0.000000
vn 0.692415 -0.721499 0.000000
vn 0.722018 -0.691874 0.000000
vn 0.763718 -0.645550 0.000000
vn 0.816059 -0.577969 0.000000
vn 0.879525 -0.475852 0.000000
vn 0.937206 -0.348775 0.000000
vn 0.974855 -0.222841 0.000000
vn 0.994524 -0.104512 0.000000
vn 0.999001 0.044697 0.000000
vn 0.977170 0.212459 0.000000
vn 0.899630 0.436653 0.000000
vn 0.768040 0.640402 0.000000
vn 0.607667 0.794192 0.000000
vn 0.438722 0.898623 0.000000
vn 0.272981 0.962020 0.000000
vn 0.125128 0.992141 0.000000
vn -0.083292 0.996525 0.000000
vn 0.012697 0.999919 0.000000
vn -0.159613 0.987180 0.000000
vn -0.235214 0.971944 -0.000000
vn -0.260081 0.965587 -0.000000
vn -1.000000 0.000000 0.000000
vn -1.000000 0.000000 0.000000
vn 0.331833 -0.943338 -0.000000
vn 0.356680 -0.934227 -0.000000
vn 0.222295 -0.974980 -0.000000
vn 0.116803 -0.993155 -0.000000
vn 0.012397 -0.999923 -0.000000
vn -0.120864 -0.992669 -0.000000
vn -0.266289 -0.963893 0.000000
vn -0.430505 -0.902588 0.000000
vn -0.598050 -0.801459 0.000000
vn -0.760076 -0.649835 -0.000000
vn -0.898749 -0.438464 -0.000000
vn -0.977778 -0.209643 -0.000000
vn -0.997870 0.065231 -0.000000
vn -0.955839 0.293891 0.000000
vn -0.880840 0.473413 -0.000000
vn -0.810842 0.585266 -0.000000
vn -0.769639 0.638479 0.000000
vn -0.780206 0.625522 0.000000
vn -0.845371 0.534180 0.000000
vn -0.925696 0.378267 0.000000
vn -0.980615 0.195944 0.000000
vn -0.999054 0.043488 0.000000
vn -1.000000 -0.000000 0.000000
vn 0.000000 -1.000000 0.000000
vn 0.000000 -1.000000 0.000000
vn 0.999974 -0.007265 -0.000000
vn 1.000000 0.000000 0.000000
vn 0.996960 -0.077918 -0.000000
vn 0.984452 -0.175655 -0.000000
vn 0.955847 -0.293865 -0.000000
vn 0.897723 -0.440561 0.000000
vn 0.826505 -0.562929 -0.000000
vn 0.769555 -0.638581 -0.000000
vn 0.723729 -0.690085 -0.000000
vn 0.691953 -0.721943 -0.000000
vn 0.692415 -0.721499 0.000000
vn 0.722018 -0.691874 0.000000
vn 0.763718 -0.645550 -0.000000
vn 0.816058 -0.577970 0.000000
vn 0.879525 -0.475852 0.000000
vn 0.937206 -0.348776 -0.000000
vn 0.974855 -0.222841 -0.000000
vn 0.994524 -0.104511 -0.000000
vn 0.999001 0.044698 0.000000
vn 0.977170 0.212458 -0.000000
vn 0.899630 0.436653 -0.000000
vn 0.768040 0.640402 0.000000
vn 0.607667 0.794192 0.000000
vn 0.438722 0.898623 0.000001
vn 0.272981 0.962020 0.000001
vn 0.125128 0.992141 0.000000
vn -0.083292 0.996525 0.000000
vn 0.012697 0.999919 0.000001
vn -0.159613 0.987180 0.000000
vn -0.235214 0.971944 -0.000000
vn -0.260081 0.965587 -0.000001
vn -1.000000 0.000000 0.000000
vn -1.000000 0.000000 0.000000
vn 0.331833 -0.943338 -0.000001
vn 0.356680 -0.934227 -0.000000
vn 0.222295 -0.974979 -0.000001
vn 0.116804 -0.993155 -0.000000
vn 0.012397 -0.999923 -0.000000
vn -0.120863 -0.992669 -0.000000
vn -0.266289 -0.963893 0.000000
vn -0.430506 -0.902588 0.000000
vn -0.598050 -0.801459 0.000000
vn -0.760076 -0.649835 -0.000000
vn -0.898749 -0.438463 -0.000000
vn -0.977778 -0.209643 -0.000000
vn -0.997870 0.065231 -0.000000
vn -0.955839 0.293891 0.000000
vn -0.880840 0.473414 -0.000000
vn -0.810841 0.585266 -0.000000
vn -0.769639 0.638479 0.000000
vn -0.780206 0.625522 0.000000
vn -0.845371 0.534180 0.000000
vn -0.925696 0.378268 0.000000
vn -0.980615 0.195944 0.000000
vn -0.999054 0.043488 0.000000
vn -1.000000 -0.000000 0.000000
vn 0.000000 -1.000000 0.000000
vn 0.000000 -1.000000 0.000000
vn 0.999974 -0.007265 -0.000000
vn 1.000000 0.000000 0.000000
vn 0.996960 -0.077918 -0.000000
vn 0.984452 -0.175655 -0.000000
vn 0.955847 -0.293865 -0.000000
vn 0.897723 -0.440561 0.000000
vn 0.826505 -0.562929 -0.000000
vn 0.769554 -0.638581 -0.000000
vn 0.723729 -0.690085 -0.000000
vn 0.691953 -0.721943 -0.000000
vn 0.692415 -0.721499 0.000000
vn 0.722018 -0.691874 0.000000
vn 0.763718 -0.645550 -0.000000
vn 0.816058 -0.577970 0.000000
vn 0.879525 -0.475852 0.000000
vn 0.937206 -0.348776 -0.000000
vn 0.974855 -0.222841 -0.000000
vn 0.994524 -0.104510 -0.000000
vn 0.999001 0.044698 0.000000
vn 0.977170 0.212458 -0.000000
vn 0.899630 0.436653 -0.000000
vn 0.768040 0.640402 0.000000
vn 0.607667 0.794192 0.000000
vn 0.438722 0.898623 0.000001
vn 0.272981 0.962019 0.000001
vn 0.125128 0.992141 0.000001
vn -0.000000 0.000000 1.000000
vn -0.000000 0.000000 1.000000
vn -0.000000 0.000000 1.000000
vn 0.000000 0.000000 1.000000
vn 0.000000 0.000000 1.000000
vn 0.000000 0.000000 1.000000
vn -0.000000 0.000000 1.000000
vn 0.000000 0.000000 1.000000
vn -0.000000 0.000000 1.000000
vn -0.000001 0.000000 1.000000
vn 0.000000 0.000000 1.000000
vn -0.000000 0.000000 1.000000
vn 0.000001 0.000000 1.000000
vn -0.000000 0.000000 1.000000
vn 0.000000 0.000000 1.000000
vn 0.000000 0.000000 1.000000
vn 0.000000 0.000000 1.000000
vn 0.000000 0.000000 1.000000
vn 0.000000 0.000000 1.000000
vn 0.000000 0.000000 1.000000
vn -0.000000 0.000000 1.000000
vn -0.000000 0.000000 1.000000
vn -0.000000 0.000000 1.000000
vn 0.000000 0.000000 1.000000
vn 0.000000 0.000000 1.000000
vn 0.000000 0.000000 1.000000
vn 0.000000 0.000000 1.000000
vn 0.000000 0.000000 1.000000
vn 0.000000 0.000000 1.000000
vn 0.000000 0.000000 1.000000
vn 0.000000 0.000000 1.000000
vn 0.000000 0.000000 1.000000
vn -0.000000 0.000000 1.000000
vn 0.000000 0.000000 1.000000
vn -0.000000 0.000000 1.000000
vn 0.000000 0.000000 1.000000
vn 0.000000 0.000000 1.000000
vn -0.000000 0.000000 1.000000
vn 0.000000 0.000000 1.000000
vn -0.000000 0.000000 1.000000
vn -0.000000 0.000000 1.000000
vn 0.000001 0.000000 1.000000
vn -0.000000 0.000000 1.000000
vn 0.000001 0.000000 1.000000
vn -0.000000 0.000000 1.000000
vn -0.000000 0.000000 1.000000
vn -0.000000 0.000000 1.000000
vn 0.000000 0.000000 1.000000
vn -0.000000 0.000000 1.000000
vn -0.000000 0.000000 1.000000
vn 0.000000 0.000000 1.000000
vn 0.000000 0.000000 1.000000
vn 0.000000 0.000000 1.000000
vn 0.000000 0.000000 1.000000
vn 0.000000 0.000000 1.000000
vn -1.000000 0.000000 0.000000
vn -1.000000 0.000000 0.000000
vn -1.000000 0.000000 0.000000
vn -1.000000 0.000000 0.000000
vn -1.000000 0.000000 0.000000
vn 0.000000 0.000000 1.000000
vn 0.000000 0.000000 1.000000
vn 0.000000 0.000000 1.000000
vn 0.000000 0.000000 1.000000
vn 0.000000 -1.000000 0.000000
vn 0.000000 -1.000000 0.000000
vn 0.000000 -1.000000 0.000000
vn 0.000000 -1.000000 0.000000
vn 1.000000 0.000000 0.000000
vn 1.000000 0.000000 0.000000
vn 1.000000 0.000000 0.000000
vn 1.000000 0.000000 0.000000
vn 0.000000 1.000000 -0.000000
vn 0.000000 1.000000 -0.000000
vn 0.000000 1.000000 -0.000000
vn 0.000000 1.000000 -0.000000
vn -1.000000 0.000000 0.000000
vn -1.000000 0.000000 0.000000
vn -1.000000 0.000000 0.000000
vn -1.000000 0.000000 0.000000
vn 0.000000 -1.000000 0.000000
vn 0.000000 -1.000000 0.000000
vn 1.000000 0.000000 0.000000
vn 1.000000 0.000000 0.000000
vn 0.000000 1.000000 -0.000000
vn 0.000000 1.000000 -0.000000
vn -1.000000 0.000000 0.000000
vn -1.000000 0.000000 0.000000
vn 0.000000 -1.000000 0.000000
vn 0.000000 -1.000000 0.000000
vn 1.000000 0.000000 0.000000
vn 1.000000 0.000000 0.000000
vn 0.000000 1.000000 -0.000000
vn 0.000000 1.000000 -0.000000
vn -1.000000 0.000000 0.000000
vn -1.000000 0.000000 0.000000
vn 0.000000 -1.000000 0.000000
vn 0.000000 -1.000000 0.000000
vn 1.000000 0.000000 0.000000
vn 1.000000 0.000000 0.000000
vn 0.000000 1.000000 -0.000000
vn 0.000000 1.000000 -0.000000
vn -1.000000 0.000000 0.000000
vn -1.000000 0.000000 0.000000
vn 0.000000 0.000000 -1.000000
vn 0.000000 0.000000 -1.000000
vn 0.000000 0.000000 -1.000000
vn 0.000000 0.000000 -1.000000
vn -0.012488 -0.999922 0.000000
vn -0.012488 -0.999922 0.000000
vn 0.083581 -0.996501 0.000000
vn 0.083581 -0.996501 0.000000
vn 0.159755 -0.987157 0.000000
vn 0.159755 -0.987157 0.000000
vn 0.228462 -0.973553 0.000000
vn 0.228462 -0.973553 0.000000
vn 0.260081 -0.965587 0.000000
vn 0.260081 -0.965587 0.000000
vn 1.000000 0.000000 0.000000
vn 1.000000 0.000000 0.000000
vn 1.000000 0.000000 0.000000
vn 1.000000 0.000000 0.000000
vn -0.356680 0.934227 0.000000
vn -0.356680 0.934227 0.000000
vn -0.314937 0.949113 0.000000
vn -0.314937 0.949113 0.000000
vn -0.221924 0.975064 0.000000
vn -0.221924 0.975064 0.000000
vn -0.116445 0.993197 0.000000
vn -0.116445 0.993197 0.000000
vn -0.010456 0.999945 0.000000
vn -0.010456 0.999945 0.000000
vn 0.122914 0.992417 0.000000
vn 0.122914 0.992417 0.000000
vn 0.269339 0.963045 0.000000
vn 0.269339 0.963045 0.000000
vn 0.433768 0.901024 0.000000
vn 0.433768 0.901024 0.000000
vn 0.602200 0.798345 0.000000
vn 0.602200 0.798345 0.000000
vn 0.763870 0.645370 0.000000
vn 0.763870 0.645370 0.000000
vn 0.898203 0.439581 0.000000
vn 0.898203 0.439581 0.000000
vn 0.977411 0.211346 0.000000
vn 0.977411 0.211346 0.000000
vn 0.998593 -0.053025 0.000000
vn 0.998593 -0.053025 0.000000
vn 0.958089 -0.286470 0.000000
vn 0.958089 -0.286470 0.000000
vn 0.882763 -0.469818 0.000000
vn 0.882763 -0.469818 0.000000
vn 0.811877 -0.583828 0.000000
vn 0.811877 -0.583828 0.000000
vn 0.770008 -0.638035 0.000000
vn 0.770008 -0.638035 0.000000
vn 0.779530 -0.626365 0.000000
vn 0.779530 -0.626365 0.000000
vn 0.844378 -0.535748 0.000000
vn 0.844378 -0.535748 0.000000
vn 0.925424 -0.378933 0.000000
vn 0.925424 -0.378933 0.000000
vn 0.980896 -0.194531 0.000000
vn 0.980896 -0.194531 0.000000
vn 0.998085 -0.061854 0.000000
vn 0.998085 -0.061854 0.000000
vn 1.000000 0.000000 0.000000
vn 1.000000 0.000000 0.000000
vn 0.000000 1.000000 0.000000
vn 0.000000 1.000000 0.000000
vn 0.000000 1.000000 0.000000
vn 0.000000 1.000000 0.000000
vn -1.000000 0.000000 0.000000
vn -1.000000 0.000000 0.000000
vn -0.999935 0.011413 0.000000
vn -0.999935 0.011413 0.000000
vn -0.996815 0.079745 0.000000
vn -0.996815 0.079745 0.000000
vn -0.984062 0.177824 0.000000
vn -0.984062 0.177824 0.000000
vn -0.954818 0.297192 0.000000
vn -0.954818 0.297192 0.000000
vn -0.898594 0.438781 0.000000
vn -0.898594 0.438781 0.000000
vn -0.828704 0.559687 0.000000
vn -0.828704 0.559687 0.000000
vn -0.770514 0.637423 0.000000
vn -0.770514 0.637423 0.000000
vn -0.724225 0.689563 0.000000
vn -0.724225 0.689563 0.000000
vn -0.692243 0.721664 0.000000
vn -0.692243 0.721664 0.000000
vn -0.692175 0.721730 0.000000
vn -0.692175 0.721730 0.000000
vn -0.721712 0.692194 0.000000
vn -0.721712 0.692194 0.000000
vn -0.763204 0.646157 0.000000
vn -0.763204 0.646157 0.000000
vn -0.815004 0.579455 0.000000
vn -0.815004 0.579455 0.000000
vn -0.878789 0.477210 0.000000
vn -0.878789 0.477210 0.000000
vn -0.937412 0.348222 0.000000
vn -0.937412 0.348222 0.000000
vn -0.975058 0.221952 0.000000
vn -0.975058 0.221952 0.000000
vn -0.994502 0.104723 0.000000
vn -0.994502 0.104723 0.000000
vn -0.998948 -0.045854 0.000000
vn -0.998948 -0.045854 0.000000
vn -0.977790 -0.209588 0.000000
vn -0.977790 -0.209588 0.000000
vn -0.899782 -0.436339 0.000000
vn -0.899782 -0.436339 0.000000
vn -0.767083 -0.641548 0.000000
vn -0.767083 -0.641548 0.000000
vn -0.606464 -0.795111 0.000000
vn -0.606464 -0.795111 0.000000
vn -0.437629 -0.899156 0.000000
vn -0.437629 -0.899156 0.000000
vn -0.271795 -0.962355 0.000000
vn -0.271795 -0.962355 0.000000
vn -0.124048 -0.992276 0.000000
vn -0.124048 -0.992276 0.000000
vn -0.012488 -0.999922 0.000000
vn 0.083581 -0.996501 0.000000
vn 0.159755 -0.987157 0.000000
vn 0.228462 -0.973553 0.000000
vn 0.260081 -0.965587 0.000000
vn 1.000000 0.000000 0.000000
vn 1.000000 0.000000 0.000000
vn -0.356680 0.934227 0.000000
vn -0.314937 0.949113 0.000000
vn -0.221924 0.975064 0.000000
vn -0.116445 0.993197 0.000000
vn -0.010456 0.999945 0.000000
vn 0.122914 0.992417 0.000000
vn 0.269339 0.963045 0.000000
vn 0.433768 0.901024 0.000000
vn 0.602200 0.798345 0.000000
vn 0.763870 0.645370 0.000000
vn 0.898203 0.439581 0.000000
vn 0.977411 0.211346 0.000000
vn 0.998593 -0.053025 0.000000
vn 0.958089 -0.286470 0.000000
vn 0.882763 -0.469818 0.000000
vn 0.811877 -0.583828 0.000000
vn 0.770008 -0.638035 0.000000
vn 0.779530 -0.626365 0.000000
vn 0.844378 -0.535748 0.000000
vn 0.925424 -0.378933 0.000000
vn 0.980896 -0.194531 0.000000
vn 0.998085 -0.061854 0.000000
vn 1.000000 0.000000 0.000000
vn 0.000000 1.000000 0.000000
vn 0.000000 1.000000 0.000000
vn -1.000000 0.000000 0.000000
vn -0.999935 0.011413 0.000000
vn -0.996815 0.079745 0.000000
vn -0.984062 0.177824 0.000000
vn -0.954818 0.297192 0.000000
vn -0.898594 0.438781 0.000000
vn -0.828704 0.559687 0.000000
vn -0.770514 0.637423 0.000000
vn -0.724225 0.689563 0.000000
vn -0.692243 0.721664 0.000000
vn -0.692175 0.721730 0.000000
vn -0.721712 0.692194 0.000000
vn -0.763204 0.646157 0.000000
vn -0.815004 0.579455 0.000000
vn -0.878789 0.477210 0.000000
vn -0.937412 0.348222 0.000000
vn -0.975058 0.221952 0.000000
vn -0.994502 0.104723 0.000000
vn -0.998948 -0.045854 0.000000
vn -0.977790 -0.209588 0.000000
vn -0.899782 -0.436339 0.000000
vn -0.767083 -0.641548 0.000000
vn -0.606464 -0.795111 0.000000
vn -0.437629 -0.899156 0.000000
vn -0.271795 -0.962355 0.000000
vn -0.124048 -0.992276 0.000000
vn -0.012488 -0.999922 0.000000
vn 0.083581 -0.996501 0.000000
vn 0.159755 -0.987157 0.000000
vn 0.228462 -0.973553 0.000000
vn 0.260081 -0.965587 0.000000
vn 1.000000 0.000000 0.000000
vn 1.000000 0.000000 0.000000
vn -0.356680 0.934227 0.000000
vn -0.314937 0.949113 0.000000
vn -0.221924 0.975064 0.000000
vn -0.116445 0.993197 0.000000
vn -0.010456 0.999945 0.000000
vn 0.122914 0.992417 0.000000
vn 0.269339 0.963045 0.000000
vn 0.433768 0.901024 0.000000
vn 0.602200 0.798345 0.000000
vn 0.763870 0.645370 0.000000
vn 0.898203 0.439581 0.000000
vn 0.977411 0.211346 0.000000
vn 0.998593 -0.053025 0.000000
vn 0.958089 -0.286470 0.000000
vn 0.882763 -0.469818 0.000000
vn 0.811877 -0.583828 0.000000
vn 0.770008 -0.638035 0.000000
vn 0.779530 -0.626365 0.000000
vn 0.844378 -0.535748 0.000000
vn 0.925424 -0.378933 0.000000
vn 0.980896 -0.194531 0.000000
vn 0.998085 -0.061854 0.000000
vn 1.000000 0.000000 0.000000
vn 0.000000 1.000000 0.000000
vn 0.000000 1.000000 0.000000
vn -1.000000 0.000000 0.000000
vn -0.999935 0.011413 0.000000
vn -0.996815 0.079745 0.000000
vn -0.984062 0.177824 0.000000
vn -0.954818 0.297192 0.000000
vn -0.898594 0.438781 0.000000
vn -0.828704 0.559687 0.000000
vn -0.770514 0.637423 0.000000
vn -0.724225 0.689563 0.000000
vn -0.692243 0.721664 0.000000
vn -0.692175 0.721730 0.000000
vn -0.721712 0.692194 0.000000
vn -0.763204 0.646157 0.000000
vn -0.815004 0.579455 0.000000
vn -0.878789 0.477210 0.000000
vn -0.937412 0.348222 0.000000
vn -0.975058 0.221952 0.000000
vn -0.994502 0.104723 0.000000
vn -0.998948 -0.045854 0.000000
vn -0.977790 -0.209588 0.000000
vn -0.899782 -0.436339 0.000000
vn -0.767083 -0.641548 0.000000
vn -0.606464 -0.795111 0.000000
vn -0.437629 -0.899156 0.000000
vn -0.271795 -0.962355 0.000000
vn -0.124048 -0.992276 0.000000
vn -0.012488 -0.999922 0.000000
vn 0.083581 -0.996501 0.000000
vn 0.159755 -0.987157 0.000000
vn 0.228462 -0.973553 0.000000
vn 0.260081 -0.965587 0.000000
vn 1.000000 0.000000 0.000000
vn 1.000000 0.000000 0.000000
vn -0.356680 0.934227 0.000000
vn -0.314937 0.949113 0.000000
vn -0.221924 0.975064 0.000000
vn -0.116445 0.993197 0.000000
vn -0.010456 0.999945 0.000000
vn 0.122914 0.992417 0.000000
vn 0.269339 0.963045 0.000000
vn 0.433768 0.901024 0.000000
vn 0.602200 0.798345 0.000000
vn 0.763870 0.645370 0.000000
vn 0.898203 0.439581 0.000000
vn 0.977411 0.211346 0.000000
vn 0.998593 -0.053025 0.000000
vn 0.958089 -0.286470 0.000000
vn 0.882763 -0.469818 0.000000
vn 0.811877 -0.583828 0.000000
vn 0.770008 -0.638035 0.000000
vn 0.779530 -0.626365 0.000000
vn 0.844378 -0.535748 0.000000
vn 0.925424 -0.378933 0.000000
vn 0.980896 -0.194531 0.000000
vn 0.998085 -0.061854 0.000000
vn 1.000000 0.000000 0.000000
vn 0.000000 1.000000 0.000000
vn 0.000000 1.000000 0.000000
vn -1.000000 0.000000 0.000000
vn -0.999935 0.011413 0.000000
vn -0.996815 0.079745 0.000000
vn -0.984062 0.177824 0.000000
vn -0.954818 0.297192 0.000000
vn -0.898594 0.438781 0.000000
vn -0.828704 0.559687 0.000000
vn -0.770514 0.637423 0.000000
vn -0.724225 0.689563 0.000000
vn -0.692243 0.721664 0.000000
vn -0.692175 0.721730 0.000000
vn -0.721712 0.692194 0.000000
vn -0.763204 0.646157 0.000000
vn -0.815004 0.579455 0.000000
vn -0.878789 0.477210 0.000000
vn -0.937412 0.348222 0.000000
vn -0.975058 0.221952 0.000000
vn -0.994502 0.104723 0.000000
vn -0.998948 -0.045854 0.000000
vn -0.977790 -0.209588 0.000000
vn -0.899782 -0.436339 0.000000
vn -0.767083 -0.641548 0.000000
vn -0.606464 -0.795111 0.000000
vn -0.437629 -0.899156 0.000000
vn -0.271795 -0.962355 0.000000
vn -0.124048 -0.992276 0.000000
vn 1.000000 0.000000 0.000000
vn 1.000000 0.000000 0.000000
vn 1.000000 0.000000 0.000000
vn 1.000000 0.000000 0.000000
vn 1.000000 0.000000 0.000000
s off
g typeMesh1
usemtl typeOpenPBRSurfaceSG
f 296/341/1 297/342/2 298/343/3 299/344/4
s 1
f 299/231/5 298/232/6 300/233/7 301/234/8
s 2
f 298/1/9 297/2/10 302/3/11 300/4/12
s 3
f 297/241/13 296/242/14 303/243/15 302/244/16
s 4
f 296/11/17 299/12/18 301/13/19 303/14/20
s 1
f 301/234/8 300/233/7 304/235/21 305/236/22
s 2
f 300/4/12 302/3/11 306/5/23 304/6/24
s 3
f 302/244/16 303/243/15 307/245/25 306/246/26
s 4
f 303/14/20 301/13/19 305/15/27 307/16/28
s 1
f 305/236/22 304/235/21 308/237/29 309/238/30
s 2
f 304/6/24 306/5/23 310/7/31 308/8/32
s 3
f 306/246/26 307/245/25 311/247/33 310/248/34
s 4
f 307/16/28 305/15/27 309/17/35 311/18/36
s 1
f 309/238/30 308/237/29 312/239/37 313/240/38
s 2
f 308/8/32 310/7/31 314/9/39 312/10/40
s 3
f 310/248/34 311/247/33 315/249/41 314/250/42
s 4
f 311/18/36 309/17/35 313/19/43 315/20/44
s off
f 313/345/45 312/346/46 314/347/47 315/348/48
s 5
f 364/397/49 365/457/50 363/396/51
f 341/374/52 342/375/53 340/373/54
f 342/375/53 343/376/55 340/373/54
f 343/376/55 344/377/56 340/373/54
f 344/377/56 345/378/57 340/373/54
f 340/373/54 345/378/57 339/372/58
f 339/372/58 345/378/57 338/371/59
f 345/378/57 346/379/60 338/371/59
f 338/371/59 346/379/60 337/370/61
f 337/370/61 346/379/60 336/369/62
f 346/379/60 347/380/63 336/369/62
f 336/369/62 347/380/63 335/368/64
f 335/368/64 347/380/63 334/367/65
f 347/380/63 348/381/66 334/367/65
f 334/367/65 348/381/66 333/366/67
f 333/366/67 348/381/66 332/365/68
f 348/381/66 349/382/69 332/365/68
f 332/365/68 349/382/69 331/364/70
f 331/364/70 349/382/69 330/363/71
f 349/382/69 350/383/72 330/363/71
f 330/363/71 350/383/72 329/362/73
f 329/362/73 350/383/72 328/361/74
f 350/383/72 351/384/75 328/361/74
f 328/361/74 351/384/75 327/360/76
f 327/360/76 351/384/75 326/359/77
f 326/359/77 351/384/75 325/358/78
f 351/384/75 352/385/79 325/358/78
f 325/358/78 352/385/79 324/357/80
f 324/357/80 352/385/79 323/356/81
f 323/356/81 352/385/79 322/355/82
f 352/385/79 353/386/83 322/355/82
f 322/355/82 353/386/83 321/354/84
f 321/354/84 353/386/83 320/353/85
f 353/386/83 354/387/86 320/353/85
f 320/353/85 354/387/86 319/352/87
f 354/387/86 355/388/88 319/352/87
f 319/352/87 355/388/88 318/351/89
f 355/388/88 356/389/90 318/351/89
f 318/351/89 356/389/90 317/350/91
f 356/389/90 357/390/92 317/350/91
f 317/350/91 357/390/92 316/349/93
f 357/390/92 358/391/94 316/349/93
f 316/349/93 358/391/94 370/402/95
f 358/391/94 359/392/96 370/402/95
f 359/392/96 360/393/97 370/402/95
f 370/402/95 360/393/97 369/401/98
f 360/393/97 361/394/99 369/401/98
f 369/401/98 361/394/99 368/400/100
f 361/394/99 362/395/101 368/400/100
f 368/400/100 362/395/101 367/399/102
f 362/395/101 363/396/51 367/399/102
f 363/396/51 365/457/50 367/399/102
f 365/457/50 366/398/103 367/399/102
s 7
f 370/251/104 369/252/105 371/253/106 372/254/107
f 369/252/105 368/255/108 373/256/109 371/253/106
f 368/255/108 367/261/110 374/262/111 373/256/109
f 367/261/110 366/269/112 375/270/113 374/262/111
s 8
f 366/21/114 365/458/115 376/459/116 375/24/117
s 9
f 364/291/118 363/292/119 377/293/120 378/294/121
f 363/292/119 362/295/122 379/296/123 377/293/120
f 362/295/122 361/299/124 380/300/125 379/296/123
f 361/299/124 360/304/126 381/305/127 380/300/125
f 360/304/126 359/310/128 382/311/129 381/305/127
f 359/310/128 358/315/130 383/316/131 382/311/129
f 358/315/130 357/320/132 384/321/133 383/316/131
f 357/57/132 356/47/134 385/48/135 384/58/133
f 356/47/134 355/39/136 386/40/137 385/48/135
f 355/39/136 354/31/138 387/34/139 386/40/137
f 354/31/138 353/32/140 388/33/141 387/34/139
f 353/32/140 352/35/142 389/36/143 388/33/141
f 352/35/142 351/41/144 390/42/145 389/36/143
f 351/41/144 350/49/146 391/50/147 390/42/145
f 350/49/146 349/59/148 392/60/149 391/50/147
f 349/59/148 348/67/150 393/68/151 392/60/149
f 348/67/150 347/74/152 394/75/153 393/68/151
f 347/74/152 346/80/154 395/81/155 394/75/153
f 346/80/154 345/85/156 396/86/157 395/81/155
f 345/85/156 344/90/158 397/91/159 396/86/157
f 344/90/158 343/95/160 398/96/161 397/91/159
f 343/95/160 342/100/162 399/101/163 398/96/161
s 10
f 342/331/164 341/332/165 400/333/166 399/334/167
s 7
f 341/111/168 340/112/169 401/113/170 400/114/171
f 340/112/169 339/115/172 402/116/173 401/113/170
f 339/115/172 338/119/174 403/120/175 402/116/173
f 338/119/174 337/124/176 404/125/177 403/120/175
f 337/124/176 336/130/178 405/131/179 404/125/177
f 336/130/178 335/135/180 406/136/181 405/131/179
f 335/135/180 334/140/182 407/141/183 406/136/181
f 334/140/182 333/145/184 408/146/185 407/141/183
f 333/145/184 332/150/186 409/151/187 408/146/185
f 332/150/186 331/155/188 410/156/189 409/151/187
f 331/155/188 330/160/190 411/161/191 410/156/189
f 330/160/190 329/165/192 412/166/193 411/161/191
f 329/165/192 328/170/194 413/171/195 412/166/193
f 328/170/194 327/175/196 414/176/197 413/171/195
f 327/175/196 326/180/198 415/181/199 414/176/197
f 326/180/198 325/185/200 416/186/201 415/181/199
f 325/185/200 324/190/202 417/191/203 416/186/201
f 324/190/202 323/195/204 418/196/205 417/191/203
f 323/195/204 322/200/206 419/201/207 418/196/205
f 322/200/206 321/205/208 420/206/209 419/201/207
f 321/205/208 320/210/210 421/211/211 420/206/209
f 320/210/210 319/215/212 422/216/213 421/211/211
f 319/215/212 318/220/214 423/221/215 422/216/213
f 318/277/214 317/267/216 424/268/217 423/278/215
f 317/267/216 316/259/218 425/260/219 424/268/217
f 316/259/218 370/251/104 372/254/107 425/260/219
f 372/254/107 371/253/106 426/257/220 427/258/221
f 371/253/106 373/256/109 428/263/222 426/257/220
f 373/256/109 374/262/111 429/271/223 428/263/222
f 374/262/111 375/270/113 430/279/224 429/271/223
s 8
f 375/24/117 376/459/116 431/460/225 430/26/226
s 9
f 378/294/121 377/293/120 432/297/227 433/298/228
f 377/293/120 379/296/123 434/301/229 432/297/227
f 379/296/123 380/300/125 435/306/230 434/301/229
f 380/300/125 381/305/127 436/312/231 435/306/230
f 381/305/127 382/311/129 437/317/232 436/312/231
f 382/311/129 383/316/131 438/322/233 437/317/232
f 383/316/131 384/321/133 439/325/234 438/322/233
f 384/58/133 385/48/135 440/56/235 439/66/234
f 385/48/135 386/40/137 441/46/236 440/56/235
f 386/40/137 387/34/139 442/38/237 441/46/236
f 387/34/139 388/33/141 443/37/238 442/38/237
f 388/33/141 389/36/143 444/43/239 443/37/238
f 389/36/143 390/42/145 445/51/240 444/43/239
f 390/42/145 391/50/147 446/61/241 445/51/240
f 391/50/147 392/60/149 447/69/242 446/61/241
f 392/60/149 393/68/151 448/76/243 447/69/242
f 393/68/151 394/75/153 449/82/244 448/76/243
f 394/75/153 395/81/155 450/87/245 449/82/244
f 395/81/155 396/86/157 451/92/246 450/87/245
f 396/86/157 397/91/159 452/97/247 451/92/246
f 397/91/159 398/96/161 453/102/248 452/97/247
f 398/96/161 399/101/163 454/105/249 453/102/248
s 10
f 399/334/167 400/333/166 455/335/250 454/336/251
s 7
f 400/114/171 401/113/170 456/117/252 455/118/253
f 401/113/170 402/116/173 457/121/254 456/117/252
f 402/116/173 403/120/175 458/126/255 457/121/254
f 403/120/175 404/125/177 459/132/256 458/126/255
f 404/125/177 405/131/179 460/137/257 459/132/256
f 405/131/179 406/136/181 461/142/258 460/137/257
f 406/136/181 407/141/183 462/147/259 461/142/258
f 407/141/183 408/146/185 463/152/260 462/147/259
f 408/146/185 409/151/187 464/157/261 463/152/260
f 409/151/187 410/156/189 465/162/262 464/157/261
f 410/156/189 411/161/191 466/167/263 465/162/262
f 411/161/191 412/166/193 467/172/264 466/167/263
f 412/166/193 413/171/195 468/177/265 467/172/264
f 413/171/195 414/176/197 469/182/266 468/177/265
f 414/176/197 415/181/199 470/187/267 469/182/266
f 415/181/199 416/186/201 471/192/268 470/187/267
f 416/186/201 417/191/203 472/197/269 471/192/268
f 417/191/203 418/196/205 473/202/270 472/197/269
f 418/196/205 419/201/207 474/207/271 473/202/270
f 419/201/207 420/206/209 475/212/272 474/207/271
f 420/206/209 421/211/211 476/217/273 475/212/272
f 421/211/211 422/216/213 477/222/274 476/217/273
f 422/216/213 423/221/215 478/225/275 477/222/274
f 423/278/215 424/268/217 479/276/276 478/284/275
f 424/268/217 425/260/219 480/266/277 479/276/276
f 425/260/219 372/254/107 427/258/221 480/266/277
f 427/258/221 426/257/220 481/264/278 482/265/279
f 426/257/220 428/263/222 483/272/280 481/264/278
f 428/263/222 429/271/223 484/280/281 483/272/280
f 429/271/223 430/279/224 485/285/282 484/280/281
s 8
f 430/26/226 431/460/225 486/461/283 485/28/284
s 9
f 433/298/228 432/297/227 487/302/285 488/303/286
f 432/297/227 434/301/229 489/307/287 487/302/285
f 434/301/229 435/306/230 490/313/288 489/307/287
f 435/306/230 436/312/231 491/318/289 490/313/288
f 436/312/231 437/317/232 492/323/290 491/318/289
f 437/317/232 438/322/233 493/326/291 492/323/290
f 438/322/233 439/325/234 494/328/292 493/326/291
f 439/66/234 440/56/235 495/65/293 494/73/292
f 440/56/235 441/46/236 496/55/294 495/65/293
f 441/46/236 442/38/237 497/45/295 496/55/294
f 442/38/237 443/37/238 498/44/296 497/45/295
f 443/37/238 444/43/239 499/52/297 498/44/296
f 444/43/239 445/51/240 500/62/298 499/52/297
f 445/51/240 446/61/241 501/70/299 500/62/298
f 446/61/241 447/69/242 502/77/300 501/70/299
f 447/69/242 448/76/243 503/83/301 502/77/300
f 448/76/243 449/82/244 504/88/302 503/83/301
f 449/82/244 450/87/245 505/93/303 504/88/302
f 450/87/245 451/92/246 506/98/304 505/93/303
f 451/92/246 452/97/247 507/103/305 506/98/304
f 452/97/247 453/102/248 508/106/306 507/103/305
f 453/102/248 454/105/249 509/108/307 508/106/306
s 10
f 454/336/251 455/335/250 510/337/308 509/338/309
s 7
f 455/118/253 456/117/252 511/122/310 510/123/311
f 456/117/252 457/121/254 512/127/312 511/122/310
f 457/121/254 458/126/255 513/133/313 512/127/312
f 458/126/255 459/132/256 514/138/314 513/133/313
f 459/132/256 460/137/257 515/143/315 514/138/314
f 460/137/257 461/142/258 516/148/316 515/143/315
f 461/142/258 462/147/259 517/153/317 516/148/316
f 462/147/259 463/152/260 518/158/318 517/153/317
f 463/152/260 464/157/261 519/163/319 518/158/318
f 464/157/261 465/162/262 520/168/320 519/163/319
f 465/162/262 466/167/263 521/173/321 520/168/320
f 466/167/263 467/172/264 522/178/322 521/173/321
f 467/172/264 468/177/265 523/183/323 522/178/322
f 468/177/265 469/182/266 524/188/324 523/183/323
f 469/182/266 470/187/267 525/193/325 524/188/324
f 470/187/267 471/192/268 526/198/326 525/193/325
f 471/192/268 472/197/269 527/203/327 526/198/326
f 472/197/269 473/202/270 528/208/328 527/203/327
f 473/202/270 474/207/271 529/213/329 528/208/328
f 474/207/271 475/212/272 530/218/330 529/213/329
f 475/212/272 476/217/273 531/223/331 530/218/330
f 476/217/273 477/222/274 532/226/332 531/223/331
f 477/222/274 478/225/275 533/228/333 532/226/332
f 478/284/275 479/276/276 534/283/334 533/288/333
f 479/276/276 480/266/277 535/275/335 534/283/334
f 480/266/277 427/258/221 482/265/279 535/275/335
f 482/265/279 481/264/278 536/273/336 537/274/337
f 481/264/278 483/272/280 538/281/338 536/273/336
f 483/272/280 484/280/281 539/286/339 538/281/338
f 484/280/281 485/285/282 540/289/340 539/286/339
s 8
f 485/28/284 486/461/283 541/462/341 540/30/342
s 9
f 488/303/286 487/302/285 542/308/343 543/309/344
f 487/302/285 489/307/287 544/314/345 542/308/343
f 489/307/287 490/313/288 545/319/346 544/314/345
f 490/313/288 491/318/289 546/324/347 545/319/346
f 491/318/289 492/323/290 547/327/348 546/324/347
f 492/323/290 493/326/291 548/329/349 547/327/348
f 493/326/291 494/328/292 549/330/350 548/329/349
f 494/73/292 495/65/293 550/72/351 549/79/350
f 495/65/293 496/55/294 551/64/352 550/72/351
f 496/55/294 497/45/295 552/54/353 551/64/352
f 497/45/295 498/44/296 553/53/354 552/54/353
f 498/44/296 499/52/297 554/63/355 553/53/354
f 499/52/297 500/62/298 555/71/356 554/63/355
f 500/62/298 501/70/299 556/78/357 555/71/356
f 501/70/299 502/77/300 557/84/358 556/78/357
f 502/77/300 503/83/301 558/89/359 557/84/358
f 503/83/301 504/88/302 559/94/360 558/89/359
f 504/88/302 505/93/303 560/99/361 559/94/360
f 505/93/303 506/98/304 561/104/362 560/99/361
f 506/98/304 507/103/305 562/107/363 561/104/362
f 507/103/305 508/106/306 563/109/364 562/107/363
f 508/106/306 509/108/307 564/110/365 563/109/364
s 10
f 509/338/309 510/337/308 565/339/366 564/340/367
s 7
f 510/123/311 511/122/310 566/128/368 565/129/369
f 511/122/310 512/127/312 567/134/370 566/128/368
f 512/127/312 513/133/313 568/139/371 567/134/370
f 513/133/313 514/138/314 569/144/372 568/139/371
f 514/138/314 515/143/315 570/149/373 569/144/372
f 515/143/315 516/148/316 571/154/374 570/149/373
f 516/148/316 517/153/317 572/159/375 571/154/374
f 517/153/317 518/158/318 573/164/376 572/159/375
f 518/158/318 519/163/319 574/169/377 573/164/376
f 519/163/319 520/168/320 575/174/378 574/169/377
f 520/168/320 521/173/321 576/179/379 575/174/378
f 521/173/321 522/178/322 577/184/380 576/179/379
f 522/178/322 523/183/323 578/189/381 577/184/380
f 523/183/323 524/188/324 579/194/382 578/189/381
f 524/188/324 525/193/325 580/199/383 579/194/382
f 525/193/325 526/198/326 581/204/384 580/199/383
f 526/198/326 527/203/327 582/209/385 581/204/384
f 527/203/327 528/208/328 583/214/386 582/209/385
f 528/208/328 529/213/329 584/219/387 583/214/386
f 529/213/329 530/218/330 585/224/388 584/219/387
f 530/218/330 531/223/331 586/227/389 585/224/388
f 531/223/331 532/226/332 587/229/390 586/227/389
f 532/226/332 533/228/333 588/230/391 587/229/390
f 533/288/333 534/283/334 589/287/392 588/290/391
f 534/283/334 535/275/335 590/282/393 589/287/392
f 535/275/335 482/265/279 537/274/337 590/282/393
s 12
f 543/408/394 542/409/395 541/463/396
f 564/430/397 565/431/398 563/429/399
f 565/431/398 566/432/400 563/429/399
f 563/429/399 566/432/400 562/428/401
f 562/428/401 566/432/400 561/427/402
f 566/432/400 567/433/403 561/427/402
f 567/433/403 568/434/404 561/427/402
f 561/427/402 568/434/404 560/426/405
f 568/434/404 569/435/406 560/426/405
f 569/435/406 570/436/407 560/426/405
f 560/426/405 570/436/407 559/425/408
f 570/436/407 571/437/409 559/425/408
f 571/437/409 572/438/410 559/425/408
f 559/425/408 572/438/410 558/424/411
f 572/438/410 573/439/412 558/424/411
f 573/439/412 574/440/413 558/424/411
f 558/424/411 574/440/413 557/423/414
f 574/440/413 575/441/415 557/423/414
f 557/423/414 575/441/415 556/422/416
f 575/441/415 576/442/417 556/422/416
f 576/442/417 577/443/418 556/422/416
f 556/422/416 577/443/418 555/421/419
f 577/443/418 578/444/420 555/421/419
f 578/444/420 579/445/421 555/421/419
f 579/445/421 580/446/422 555/421/419
f 580/446/422 581/447/423 555/421/419
f 555/421/419 581/447/423 554/420/424
f 581/447/423 582/448/425 554/420/424
f 582/448/425 583/449/426 554/420/424
f 583/449/426 584/450/427 554/420/424
f 554/420/424 584/450/427 553/419/428
f 584/450/427 585/451/429 553/419/428
f 585/451/429 586/452/430 553/419/428
f 553/419/428 586/452/430 552/418/431
f 586/452/430 587/453/432 552/418/431
f 552/418/431 587/453/432 551/417/433
f 587/453/432 588/454/434 551/417/433
f 551/417/433 588/454/434 550/416/435
f 588/454/434 589/455/436 550/416/435
f 550/416/435 589/455/436 549/415/437
f 589/455/436 590/456/438 549/415/437
f 549/415/437 590/456/438 548/414/439
f 590/456/438 537/403/440 548/414/439
f 548/414/439 537/403/440 547/413/441
f 547/413/441 537/403/440 546/412/442
f 537/403/440 536/404/443 546/412/442
f 546/412/442 536/404/443 545/411/444
f 536/404/443 538/405/445 545/411/444
f 545/411/444 538/405/445 544/410/446
f 538/405/445 539/406/447 544/410/446
f 544/410/446 539/406/447 542/409/395
f 542/409/395 539/406/447 541/463/396
f 539/406/447 540/407/448 541/463/396
s 8
f 376/459/116 365/458/115 364/22/449 378/23/450
f 431/460/225 376/459/116 378/23/450 433/25/451
f 486/461/283 431/460/225 433/25/451 488/27/452
f 541/462/341 486/461/283 488/27/452 543/29/453
s off
f 4/464/454 1/467/455 2/466/456 3/465/457
s 14
f 1/468/458 59/471/459 60/470/460 2/469/461
s 15
f 2/472/462 60/475/463 61/474/464 3/473/465
s 16
f 3/476/466 61/479/467 62/478/468 4/477/469
s 17
f 4/480/470 62/483/471 59/482/472 1/481/473
s 14
f 59/471/459 63/485/474 64/484/475 60/470/460
s 15
f 60/475/463 64/487/476 65/486/477 61/474/464
s 16
f 61/479/467 65/489/478 66/488/479 62/478/468
s 17
f 62/483/471 66/491/480 63/490/481 59/482/472
s 14
f 63/485/474 67/493/482 68/492/483 64/484/475
s 15
f 64/487/476 68/495/484 69/494/485 65/486/477
s 16
f 65/489/478 69/497/486 70/496/487 66/488/479
s 17
f 66/491/480 70/499/488 67/498/489 63/490/481
s 14
f 67/493/482 71/501/490 72/500/491 68/492/483
s 15
f 68/495/484 72/503/492 73/502/493 69/494/485
s 16
f 69/497/486 73/505/494 74/504/495 70/496/487
s 17
f 70/499/488 74/507/496 71/506/497 67/498/489
s off
f 71/508/498 74/511/499 73/510/500 72/509/501
s 18
f 5/512/502 75/515/503 76/514/504 6/513/505
f 6/513/505 76/514/504 77/517/506 7/516/507
f 7/516/507 77/517/506 78/519/508 8/518/509
f 8/518/509 78/519/508 79/521/510 9/520/511
s 19
f 9/522/512 79/525/513 292/524/514 291/523/515
s 20
f 10/526/516 80/529/517 81/528/518 11/527/519
f 11/527/519 81/528/518 82/531/520 12/530/521
f 12/530/521 82/531/520 83/533/522 13/532/523
f 13/532/523 83/533/522 84/535/524 14/534/525
f 14/534/525 84/535/524 85/537/526 15/536/527
f 15/536/527 85/537/526 86/539/528 16/538/529
f 16/538/529 86/539/528 87/541/530 17/540/531
f 17/542/531 87/545/530 88/544/532 18/543/533
f 18/543/533 88/544/532 89/547/534 19/546/535
f 19/546/535 89/547/534 90/549/536 20/548/537
f 20/548/537 90/549/536 91/551/538 21/550/539
f 21/550/539 91/551/538 92/553/540 22/552/541
f 22/552/541 92/553/540 93/555/542 23/554/543
f 23/554/543 93/555/542 94/557/544 24/556/545
f 24/556/545 94/557/544 95/559/546 25/558/547
f 25/558/547 95/559/546 96/561/548 26/560/549
f 26/560/549 96/561/548 97/563/550 27/562/551
f 27/562/551 97/563/550 98/565/552 28/564/553
f 28/564/553 98/565/552 99/567/554 29/566/555
f 29/566/555 99/567/554 100/569/556 30/568/557
f 30/568/557 100/569/556 101/571/558 31/570/559
f 31/570/559 101/571/558 102/573/560 32/572/561
s 21
f 32/574/562 102/577/563 103/576/564 33/575/565
s 18
f 33/578/566 103/581/567 104/580/568 34/579/569
f 34/579/569 104/580/568 105/583/570 35/582/571
f 35/582/571 105/583/570 106/585/572 36/584/573
f 36/584/573 106/585/572 107/587/574 37/586/575
f 37/586/575 107/587/574 108/589/576 38/588/577
f 38/588/577 108/589/576 109/591/578 39/590/579
f 39/590/579 109/591/578 110/593/580 40/592/581
f 40/592/581 110/593/580 111/595/582 41/594/583
f 41/594/583 111/595/582 112/597/584 42/596/585
f 42/596/585 112/597/584 113/599/586 43/598/587
f 43/598/587 113/599/586 114/601/588 44/600/589
f 44/600/589 114/601/588 115/603/590 45/602/591
f 45/602/591 115/603/590 116/605/592 46/604/593
f 46/604/593 116/605/592 117/607/594 47/606/595
f 47/606/595 117/607/594 118/609/596 48/608/597
f 48/608/597 118/609/596 119/611/598 49/610/599
f 49/610/599 119/611/598 120/613/600 50/612/601
f 50/612/601 120/613/600 121/615/602 51/614/603
f 51/614/603 121/615/602 122/617/604 52/616/605
f 52/616/605 122/617/604 123/619/606 53/618/607
f 53/618/607 123/619/606 124/621/608 54/620/609
f 54/620/609 124/621/608 125/623/610 55/622/611
f 55/622/611 125/623/610 126/625/612 56/624/613
f 56/626/613 126/629/612 127/628/614 57/627/615
f 57/627/615 127/628/614 128/631/616 58/630/617
f 58/630/617 128/631/616 75/515/503 5/512/502
f 75/515/503 129/633/618 130/632/619 76/514/504
f 76/514/504 130/632/619 131/634/620 77/517/506
f 77/517/506 131/634/620 132/635/621 78/519/508
f 78/519/508 132/635/621 133/636/622 79/521/510
s 19
f 79/525/513 133/638/623 293/637/624 292/524/514
s 20
f 80/529/517 134/640/625 135/639/626 81/528/518
f 81/528/518 135/639/626 136/641/627 82/531/520
f 82/531/520 136/641/627 137/642/628 83/533/522
f 83/533/522 137/642/628 138/643/629 84/535/524
f 84/535/524 138/643/629 139/644/630 85/537/526
f 85/537/526 139/644/630 140/645/631 86/539/528
f 86/539/528 140/645/631 141/646/632 87/541/530
f 87/545/530 141/648/632 142/647/633 88/544/532
f 88/544/532 142/647/633 143/649/634 89/547/534
f 89/547/534 143/649/634 144/650/635 90/549/536
f 90/549/536 144/650/635 145/651/636 91/551/538
f 91/551/538 145/651/636 146/652/637 92/553/540
f 92/553/540 146/652/637 147/653/638 93/555/542
f 93/555/542 147/653/638 148/654/639 94/557/544
f 94/557/544 148/654/639 149/655/640 95/559/546
f 95/559/546 149/655/640 150/656/641 96/561/548
f 96/561/548 150/656/641 151/657/642 97/563/550
f 97/563/550 151/657/642 152/658/643 98/565/552
f 98/565/552 152/658/643 153/659/644 99/567/554
f 99/567/554 153/659/644 154/660/645 100/569/556
f 100/569/556 154/660/645 155/661/646 101/571/558
f 101/571/558 155/661/646 156/662/647 102/573/560
s 21
f 102/577/563 156/664/648 157/663/649 103/576/564
s 18
f 103/581/567 157/666/650 158/665/651 104/580/568
f 104/580/568 158/665/651 159/667/652 105/583/570
f 105/583/570 159/667/652 160/668/653 106/585/572
f 106/585/572 160/668/653 161/669/654 107/587/574
f 107/587/574 161/669/654 162/670/655 108/589/576
f 108/589/576 162/670/655 163/671/656 109/591/578
f 109/591/578 163/671/656 164/672/657 110/593/580
f 110/593/580 164/672/657 165/673/658 111/595/582
f 111/595/582 165/673/658 166/674/659 112/597/584
f 112/597/584 166/674/659 167/675/660 113/599/586
f 113/599/586 167/675/660 168/676/661 114/601/588
f 114/601/588 168/676/661 169/677/662 115/603/590
f 115/603/590 169/677/662 170/678/663 116/605/592
f 116/605/592 170/678/663 171/679/664 117/607/594
f 117/607/594 171/679/664 172/680/665 118/609/596
f 118/609/596 172/680/665 173/681/666 119/611/598
f 119/611/598 173/681/666 174/682/667 120/613/600
f 120/613/600 174/682/667 175/683/668 121/615/602
f 121/615/602 175/683/668 176/684/669 122/617/604
f 122/617/604 176/684/669 177/685/670 123/619/606
f 123/619/606 177/685/670 178/686/671 124/621/608
f 124/621/608 178/686/671 179/687/672 125/623/610
f 125/623/610 179/687/672 180/688/673 126/625/612
f 126/629/612 180/690/673 181/689/674 127/628/614
f 127/628/614 181/689/674 182/691/675 128/631/616
f 128/631/616 182/691/675 129/633/618 75/515/503
f 129/633/618 183/693/676 184/692/677 130/632/619
f 130/632/619 184/692/677 185/694/678 131/634/620
f 131/634/620 185/694/678 186/695/679 132/635/621
f 132/635/621 186/695/679 187/696/680 133/636/622
s 19
f 133/638/623 187/698/681 294/697/682 293/637/624
s 20
f 134/640/625 188/700/683 189/699/684 135/639/626
f 135/639/626 189/699/684 190/701/685 136/641/627
f 136/641/627 190/701/685 191/702/686 137/642/628
f 137/642/628 191/702/686 192/703/687 138/643/629
f 138/643/629 192/703/687 193/704/688 139/644/630
f 139/644/630 193/704/688 194/705/689 140/645/631
f 140/645/631 194/705/689 195/706/690 141/646/632
f 141/648/632 195/708/690 196/707/691 142/647/633
f 142/647/633 196/707/691 197/709/692 143/649/634
f 143/649/634 197/709/692 198/710/693 144/650/635
f 144/650/635 198/710/693 199/711/694 145/651/636
f 145/651/636 199/711/694 200/712/695 146/652/637
f 146/652/637 200/712/695 201/713/696 147/653/638
f 147/653/638 201/713/696 202/714/697 148/654/639
f 148/654/639 202/714/697 203/715/698 149/655/640
f 149/655/640 203/715/698 204/716/699 150/656/641
f 150/656/641 204/716/699 205/717/700 151/657/642
f 151/657/642 205/717/700 206/718/701 152/658/643
f 152/658/643 206/718/701 207/719/702 153/659/644
f 153/659/644 207/719/702 208/720/703 154/660/645
f 154/660/645 208/720/703 209/721/704 155/661/646
f 155/661/646 209/721/704 210/722/705 156/662/647
s 21
f 156/664/648 210/724/706 211/723/707 157/663/649
s 18
f 157/666/650 211/726/708 212/725/709 158/665/651
f 158/665/651 212/725/709 213/727/710 159/667/652
f 159/667/652 213/727/710 214/728/711 160/668/653
f 160/668/653 214/728/711 215/729/712 161/669/654
f 161/669/654 215/729/712 216/730/713 162/670/655
f 162/670/655 216/730/713 217/731/714 163/671/656
f 163/671/656 217/731/714 218/732/715 164/672/657
f 164/672/657 218/732/715 219/733/716 165/673/658
f 165/673/658 219/733/716 220/734/717 166/674/659
f 166/674/659 220/734/717 221/735/718 167/675/660
f 167/675/660 221/735/718 222/736/719 168/676/661
f 168/676/661 222/736/719 223/737/720 169/677/662
f 169/677/662 223/737/720 224/738/721 170/678/663
f 170/678/663 224/738/721 225/739/722 171/679/664
f 171/679/664 225/739/722 226/740/723 172/680/665
f 172/680/665 226/740/723 227/741/724 173/681/666
f 173/681/666 227/741/724 228/742/725 174/682/667
f 174/682/667 228/742/725 229/743/726 175/683/668
f 175/683/668 229/743/726 230/744/727 176/684/669
f 176/684/669 230/744/727 231/745/728 177/685/670
f 177/685/670 231/745/728 232/746/729 178/686/671
f 178/686/671 232/746/729 233/747/730 179/687/672
f 179/687/672 233/747/730 234/748/731 180/688/673
f 180/690/673 234/750/731 235/749/732 181/689/674
f 181/689/674 235/749/732 236/751/733 182/691/675
f 182/691/675 236/751/733 183/693/676 129/633/618
f 183/693/676 237/753/734 238/752/735 184/692/677
f 184/692/677 238/752/735 239/754/736 185/694/678
f 185/694/678 239/754/736 240/755/737 186/695/679
f 186/695/679 240/755/737 241/756/738 187/696/680
s 19
f 187/698/681 241/758/739 295/757/740 294/697/682
s 20
f 188/700/683 242/760/741 243/759/742 189/699/684
f 189/699/684 243/759/742 244/761/743 190/701/685
f 190/701/685 244/761/743 245/762/744 191/702/686
f 191/702/686 245/762/744 246/763/745 192/703/687
f 192/703/687 246/763/745 247/764/746 193/704/688
f 193/704/688 247/764/746 248/765/747 194/705/689
f 194/705/689 248/765/747 249/766/748 195/706/690
f 195/708/690 249/768/748 250/767/749 196/707/691
f 196/707/691 250/767/749 251/769/750 197/709/692
f 197/709/692 251/769/750 252/770/751 198/710/693
f 198/710/693 252/770/751 253/771/752 199/711/694
f 199/711/694 253/771/752 254/772/753 200/712/695
f 200/712/695 254/772/753 255/773/754 201/713/696
f 201/713/696 255/773/754 256/774/755 202/714/697
f 202/714/697 256/774/755 257/775/756 203/715/698
f 203/715/698 257/775/756 258/776/757 204/716/699
f 204/716/699 258/776/757 259/777/758 205/717/700
f 205/717/700 259/777/758 260/778/759 206/718/701
f 206/718/701 260/778/759 261/779/760 207/719/702
f 207/719/702 261/779/760 262/780/761 208/720/703
f 208/720/703 262/780/761 263/781/762 209/721/704
f 209/721/704 263/781/762 264/782/763 210/722/705
s 21
f 210/724/706 264/784/764 265/783/765 211/723/707
s 18
f 211/726/708 265/786/766 266/785/767 212/725/709
f 212/725/709 266/785/767 267/787/768 213/727/710
f 213/727/710 267/787/768 268/788/769 214/728/711
f 214/728/711 268/788/769 269/789/770 215/729/712
f 215/729/712 269/789/770 270/790/771 216/730/713
f 216/730/713 270/790/771 271/791/772 217/731/714
f 217/731/714 271/791/772 272/792/773 218/732/715
f 218/732/715 272/792/773 273/793/774 219/733/716
f 219/733/716 273/793/774 274/794/775 220/734/717
f 220/734/717 274/794/775 275/795/776 221/735/718
f 221/735/718 275/795/776 276/796/777 222/736/719
f 222/736/719 276/796/777 277/797/778 223/737/720
f 223/737/720 277/797/778 278/798/779 224/738/721
f 224/738/721 278/798/779 279/799/780 225/739/722
f 225/739/722 279/799/780 280/800/781 226/740/723
f 226/740/723 280/800/781 281/801/782 227/741/724
f 227/741/724 281/801/782 282/802/783 228/742/725
f 228/742/725 282/802/783 283/803/784 229/743/726
f 229/743/726 283/803/784 284/804/785 230/744/727
f 230/744/727 284/804/785 285/805/786 231/745/728
f 231/745/728 285/805/786 286/806/787 232/746/729
f 232/746/729 286/806/787 287/807/788 233/747/730
f 233/747/730 287/807/788 288/808/789 234/748/731
f 234/750/731 288/810/789 289/809/790 235/749/732
f 235/749/732 289/809/790 290/811/791 236/751/733
f 236/751/733 290/811/791 237/753/734 183/693/676
s 19
f 292/524/514 80/813/792 10/812/793 291/523/515
f 293/637/624 134/814/794 80/813/792 292/524/514
f 294/697/682 188/815/795 134/814/794 293/637/624
f 295/757/740 242/816/796 188/815/795 294/697/682
