# This file uses meters as units for non-parametric coordinates.

mtllib stand1.mtl
g default
v -544.121887 1152.712524 363.222504
v -544.566895 1152.712524 362.148193
v -544.121887 1151.638184 362.148193
v -543.047607 1151.193237 362.148193
v -543.047607 1151.638184 363.222504
v -543.047607 1152.712524 363.667480
v 544.121887 1152.712524 363.222504
v 543.047607 1152.712524 363.667480
v 543.047607 1151.638184 363.222504
v 543.047607 1151.193237 362.148193
v 544.121887 1151.638184 362.148193
v 544.566895 1152.712524 362.148193
v -544.121887 1152.712524 -363.222504
v -543.047607 1152.712524 -363.667480
v -543.047607 1151.638184 -363.222504
v -543.047607 1151.193237 -362.148193
v -544.121887 1151.638184 -362.148193
v -544.566895 1152.712524 -362.148193
v 544.121887 1152.712524 -363.222504
v 544.566895 1152.712524 -362.148193
v 544.121887 1151.638184 -362.148193
v 543.047607 1151.193237 -362.148193
v 543.047607 1151.638184 -363.222504
v 543.047607 1152.712524 -363.667480
v -544.121887 1181.137207 362.148193
v -544.566895 1180.062866 362.148193
v -544.121887 1180.062866 363.222504
v -543.047607 1180.062866 363.667480
v -543.047607 1181.137207 363.222504
v -543.047607 1181.582153 362.148193
v 544.121887 1181.137207 362.148193
v 543.047607 1181.582153 362.148193
v 543.047607 1181.137207 363.222504
v 543.047607 1180.062866 363.667480
v 544.121887 1180.062866 363.222504
v 544.566895 1180.062866 362.148193
v 543.047607 1181.137207 -363.222504
v 543.047607 1181.582153 -362.148193
v 544.121887 1181.137207 -362.148193
v 544.566895 1180.062866 -362.148193
v 544.121887 1180.062866 -363.222504
v 543.047607 1180.062866 -363.667480
v -544.121887 1181.137207 -362.148193
v -543.047607 1181.582153 -362.148193
v -543.047607 1181.137207 -363.222504
v -543.047607 1180.062866 -363.667480
v -544.121887 1180.062866 -363.222504
v -544.566895 1180.062866 -362.148193
v -411.998413 38.912537 411.998413
v -412.443390 38.912537 410.924103
v -411.998413 37.838234 410.923950
v -410.924103 37.393242 410.924103
v -410.923828 37.838234 411.998413
v -410.924103 38.912537 412.443390
v 0.000000 38.912537 412.443390
v -1.074303 38.912537 412.443390
v -1.074303 37.838234 411.998413
v -1.074303 37.393242 410.924103
v 0.000000 37.393242 410.924103
v 1.074303 37.393242 410.924103
v 1.074303 37.838234 411.998413
v 1.074303 38.912537 412.443390
v -411.998413 38.912537 -411.998413
v -410.924103 38.912537 -412.443390
v -410.923950 37.838234 -411.998413
v -410.924103 37.393242 -410.924103
v -411.998413 37.838234 -410.923828
v -412.443390 38.912537 -410.924103
v 410.923950 37.838234 411.998413
v 410.924103 37.393242 410.924103
v 411.998413 37.838234 410.923828
v 412.443390 38.912537 410.924103
v 411.998413 38.912537 411.998413
v 410.924103 38.912537 412.443390
v 410.923950 37.838234 -411.998413
v 410.924103 38.912537 -412.443390
v 411.998413 38.912537 -411.998413
v 412.443390 38.912537 -410.924103
v 411.998413 37.838234 -410.923950
v 410.924103 37.393242 -410.924103
v 0.000000 37.393242 -410.924103
v -1.074303 37.393242 -410.924103
v -1.074303 37.838234 -411.998413
v -1.074303 38.912537 -412.443390
v 0.000000 38.912537 -412.443390
v 1.074303 38.912537 -412.443390
v 1.074303 37.838234 -411.998413
v 1.074303 37.393242 -410.924103
v -408.025452 111.193237 410.539185
v -409.659576 111.193237 409.939972
v -410.466827 111.193237 409.292450
v -410.902832 111.193237 407.620941
v -412.028656 110.763374 409.958923
v -412.443390 109.704826 410.954987
v -412.016571 109.720444 412.007538
v -410.986053 109.735855 412.443390
v -409.601318 110.777496 412.035980
v -406.323303 111.193237 410.902588
v 409.655853 110.766197 412.052155
v 410.955048 109.704903 412.443390
v 412.007538 109.720406 412.016541
v 412.443390 109.735703 410.985840
v 412.044861 110.771461 410.041443
v 410.967194 111.193237 407.822510
v 410.522278 111.193237 409.405762
v 409.659729 111.193237 409.940063
v 408.161072 111.193237 410.578552
v 406.579010 111.193237 410.967010
v 0.000002 111.193237 410.924103
v -1.074301 111.193237 410.924103
v -1.074302 110.748245 411.998413
v -1.074303 109.673943 412.443390
v 0.000000 109.673943 412.443390
v 1.074303 109.673943 412.443390
v 1.074304 110.748245 411.998413
v 1.074305 111.193237 410.924103
v 409.655853 110.766197 -412.052155
v 406.579010 111.193237 -410.967010
v 408.160980 111.193237 -410.578552
v 409.659576 111.193237 -409.939972
v 410.466827 111.193237 -409.292450
v 410.902832 111.193237 -407.620941
v 412.028656 110.763374 -409.958923
v 412.443390 109.704826 -410.954987
v 412.007477 109.704872 -412.007416
v 410.955048 109.704903 -412.443390
v -408.025452 111.193237 -410.539185
v -406.323303 111.193237 -410.902588
v -409.579620 110.767868 -412.035797
v -410.955048 109.704903 -412.443390
v -412.007538 109.720406 -412.016541
v -412.443390 109.735703 -410.985840
v -412.044861 110.771461 -410.041443
v -410.967194 111.193237 -407.822510
v -410.522278 111.193237 -409.405701
v -409.659576 111.193237 -409.939972
v -0.000002 111.193237 -410.924103
v 1.074301 111.193237 -410.924103
v 1.074302 110.748245 -411.998413
v 1.074303 109.673943 -412.443390
v 0.000000 109.673943 -412.443390
v -1.074303 109.673943 -412.443390
v -1.074304 110.748245 -411.998413
v -1.074305 111.193237 -410.924103
v -239.232590 111.193237 120.568336
v -236.421066 111.193237 121.384155
v -239.677338 111.618523 120.250916
v -241.052841 112.681564 119.843391
v -242.105316 112.699196 119.397125
v -242.541168 112.717079 118.319550
v -242.974884 111.636971 118.874619
v -243.923431 111.193237 120.277420
v -243.339676 111.193237 121.033394
v -242.047424 111.193237 121.372643
v 239.753586 111.620209 120.234596
v 236.676819 111.193237 121.319756
v 239.920258 111.193237 120.576439
v 242.047424 111.193237 121.372643
v 243.379715 111.193237 121.052483
v 243.988510 111.193237 120.297852
v 242.999893 111.635017 118.878052
v 242.541168 112.714806 118.321815
v 242.105316 112.698067 119.397781
v 241.052841 112.681564 119.843391
v 0.000004 111.193237 121.362671
v 1.074307 111.193237 121.362671
v 1.074304 111.638222 120.288368
v 1.074303 112.712524 119.843391
v 0.000000 112.712524 119.843391
v -1.074303 112.712524 119.843391
v -1.074302 111.638222 120.288368
v -1.074299 111.193237 121.362671
v 239.753586 111.620209 -120.234596
v 241.052841 112.681564 -119.843391
v 242.105316 112.699196 -119.397125
v 242.541168 112.717079 -118.319550
v 242.974884 111.636971 -118.874619
v 243.923431 111.193237 -120.277420
v 243.340607 111.193237 -121.018562
v 242.056686 111.193237 -121.344032
v 239.924713 111.193237 -120.558975
v 236.676819 111.193237 -121.319756
v -239.232590 111.193237 -120.568336
v -242.047424 111.193237 -121.372643
v -243.379715 111.193237 -121.052483
v -243.988510 111.193237 -120.297852
v -242.999893 111.635017 -118.878052
v -242.541168 112.714806 -118.321815
v -242.114563 112.682343 -119.397964
v -241.083817 112.650612 -119.843391
v -239.698975 111.608826 -120.250664
v -236.421066 111.193237 -121.384155
v -0.000004 111.193237 -121.362671
v -1.074307 111.193237 -121.362671
v -1.074304 111.638222 -120.288368
v -1.074303 112.712524 -119.843391
v 0.000000 112.712524 -119.843391
v 1.074303 112.712524 -119.843391
v 1.074302 111.638222 -120.288368
v 1.074299 111.193237 -121.362671
v -242.096191 1150.748291 118.324089
v -242.541168 1149.673950 118.324089
v -242.096191 1149.673950 119.398392
v -241.021866 1149.673950 119.843391
v -241.021866 1150.748291 119.398392
v -241.021866 1151.193237 118.324089
v 241.021866 1150.748291 119.398392
v 241.021866 1149.673950 119.843391
v 242.096191 1149.673950 119.398392
v 242.541168 1149.673950 118.324089
v 242.096191 1150.748291 118.324089
v 241.021866 1151.193237 118.324089
v 0.000000 1151.193237 118.324089
v -1.074303 1151.193237 118.324089
v -1.074303 1150.748291 119.398392
v -1.074303 1149.673950 119.843391
v 0.000000 1149.673950 119.843391
v 1.074303 1149.673950 119.843391
v 1.074303 1150.748291 119.398392
v 1.074303 1151.193237 118.324089
v 241.021866 1150.748291 -119.398392
v 241.021866 1151.193237 -118.324089
v 242.096191 1150.748291 -118.324089
v 242.541168 1149.673950 -118.324089
v 242.096191 1149.673950 -119.398392
v 241.021866 1149.673950 -119.843391
v -242.096191 1150.748291 -118.324089
v -241.021866 1151.193237 -118.324089
v -241.021866 1150.748291 -119.398392
v -241.021866 1149.673950 -119.843391
v -242.096191 1149.673950 -119.398392
v -242.541168 1149.673950 -118.324089
v 0.000000 1149.673950 -119.843391
v -1.074303 1149.673950 -119.843391
v -1.074303 1150.748291 -119.398392
v -1.074303 1151.193237 -118.324089
v 0.000000 1151.193237 -118.324089
v 1.074303 1151.193237 -118.324089
v 1.074303 1150.748291 -119.398392
v 1.074303 1149.673950 -119.843391
v 0.000210 111.193237 229.620987
v 1.074575 111.193237 229.850006
v 1.495302 111.193237 228.960754
v 2.634150 111.193237 228.193481
v 1.495274 111.193237 227.425903
v 1.074573 111.193237 226.536911
v 0.000149 111.193237 226.765945
v -1.074033 111.193237 226.536911
v -1.494730 111.193237 227.425903
v -2.633604 111.193237 228.193481
v -1.494756 111.193237 228.960770
v -1.074031 111.193237 229.850037
v -0.000351 111.193237 -229.620987
v -1.074575 111.193237 -229.850006
v -1.495302 111.193237 -228.960754
v -2.634150 111.193237 -228.193481
v -1.495274 111.193237 -227.425903
v -1.074573 111.193237 -226.536911
v -0.000393 111.193237 -226.765945
v 1.074033 111.193237 -226.536911
v 1.494730 111.193237 -227.425903
v 2.633604 111.193237 -228.193481
v 1.494748 111.193237 -228.960831
v 1.074031 111.193237 -229.850037
v -543.924438 1151.835693 363.025055
v 543.924438 1151.835693 363.025055
v -543.924438 1151.835693 -363.025055
v 543.924438 1151.835693 -363.025055
v -543.924438 1180.939697 363.025055
v 543.924438 1180.939697 363.025055
v 543.924438 1180.939697 -363.025055
v -543.924438 1180.939697 -363.025055
v -411.800873 38.035671 411.800903
v 0.000000 37.838234 411.998413
v -411.800903 38.035671 -411.800873
v 411.800903 38.035671 411.800873
v 411.800903 38.035675 -411.800903
v 0.000000 37.838234 -411.998413
v -410.885468 110.814453 411.289459
v 410.927246 110.815094 411.320923
v 0.000001 110.748245 411.998413
v 410.913269 110.810242 -411.298798
v -410.894287 110.815552 -411.310211
v -0.000001 110.748245 -411.998413
v -241.905807 111.553764 119.988991
v 242.021591 111.550400 119.977127
v 0.000001 111.638222 120.288368
v 242.007034 111.551163 -119.968887
v -241.926315 111.549881 -119.992783
v -0.000001 111.638222 -120.288368
v -241.898727 1150.550781 119.200943
v 241.898727 1150.550781 119.200943
v 0.000000 1150.748291 119.398392
v 241.898727 1150.550781 -119.200943
v -241.898727 1150.550781 -119.200943
v 0.000000 1150.748291 -119.398392
v 0.000125 111.193237 228.193832
v -0.000412 111.193237 -228.193848
vt 0.000000 0.002089
vt 0.001395 0.002089
vt 0.998605 0.002089
vt 0.000000 0.997911
vt 0.998605 0.997911
vt 0.001395 1.000000
vt 0.998605 1.000000
vt 0.000000 0.997911
vt 0.001395 0.000000
vt 0.998605 0.000000
vt 1.000000 0.002089
vt 1.000000 0.997911
vt 0.001395 0.997911
vt 0.998605 1.000000
vt 0.001395 1.000000
vt 0.000000 0.001842
vt 0.001842 0.001842
vt 0.498698 0.001842
vt 0.501302 0.001842
vt 0.000000 0.998158
vt 0.498698 0.998158
vt 0.001842 1.000000
vt 0.998158 0.001842
vt 1.000000 0.001842
vt 0.998158 0.998158
vt 0.501302 0.998158
vt 0.998158 1.000000
vt 0.498696 1.000000
vt 0.001613 0.000000
vt 0.000000 0.998233
vt 0.000000 0.009051
vt 0.001767 0.000000
vt 0.498698 0.000000
vt 0.501304 0.000000
vt 1.000000 0.001767
vt 1.000000 0.998196
vt 1.000000 0.002520
vt 0.997258 0.000000
vt 0.370165 0.000000
vt 0.500233 0.000000
vt 0.372770 0.000000
vt 0.998196 1.000000
vt 0.501302 1.000000
vt 0.993930 1.000000
vt 0.998388 1.000000
vt 0.498696 1.000000
vt 0.008504 1.000000
vt 0.000000 0.997480
vt 0.629835 1.000000
vt 0.499767 1.000000
vt 0.627230 1.000000
vt 0.001675 0.000000
vt 0.367108 0.000000
vt 0.010772 0.000000
vt 0.003067 0.000000
vt 0.000000 0.997529
vt 0.000000 0.006358
vt 0.375731 0.000000
vt 0.986143 0.000000
vt 1.000000 0.002471
vt 1.000000 0.991879
vt 1.000000 0.006349
vt 0.374499 0.000000
vt 0.495967 0.000000
vt 0.370069 0.000000
vt 0.502215 0.000000
vt 0.996933 1.000000
vt 0.998356 1.000000
vt 0.632892 1.000000
vt 0.624269 1.000000
vt 0.000000 0.993651
vt 0.003004 1.000000
vt 0.625501 1.000000
vt 0.504033 1.000000
vt 0.629931 1.000000
vt 0.497785 1.000000
vt 0.000000 0.993661
vt 0.003132 0.000000
vt 0.497785 0.000000
vt 0.502215 0.000000
vt 1.000000 0.006339
vt 1.000000 0.993661
vt 0.502215 0.006339
vt 0.502215 0.993661
vt 0.996868 1.000000
vt 0.502215 1.000000
vt 0.497785 1.000000
vt 0.003132 0.993661
vt 0.497785 0.993661
vt 0.001395 0.002089
vt 0.998605 0.002089
vt 0.998605 0.997911
vt 0.001395 0.997911
vt 0.001395 0.000000
vt 0.998605 0.000000
vt 1.000000 0.002089
vt 1.000000 0.997911
vt 0.000000 0.002089
vt 0.003132 0.006339
vt 0.497785 0.006339
vt 0.001842 0.998158
vt 0.001842 0.000000
vt 0.498698 0.000000
vt 1.000000 0.998158
vt 0.001804 1.000000
vt 0.000000 0.001804
vt 0.991851 0.000000
vt 0.997152 0.000000
vt 1.000000 0.990949
vt 0.002848 1.000000
vt 0.002742 1.000000
vt 0.000000 0.008121
vt 0.497784 0.000000
vt 1.000000 0.993642
vt 0.003132 1.000000
vt 0.000000 0.006339
vt 0.500396 0.000000
vt 0.499604 1.000000
vt 0.014461 1.000000
vt 0.996932 0.000000
vt 0.996868 0.000000
vt 0.996868 0.006339
vt 0.996868 0.993661
vt 0.502216 1.000000
vt 0.501302 1.000000
vt 0.501304 0.000000
vt 0.998158 0.000000
vt 0.998196 0.000000
vt 0.989678 1.000000
vt 0.502372 1.000000
vt 0.006335 0.000000
vt 0.497628 0.000000
vt 0.000666 0.000997
vt 0.000000 0.001267
vt 0.000000 0.001267
vt 0.000846 0.000000
vt 0.000846 0.000000
vt 0.999334 0.000997
vt 0.999154 0.000000
vt 0.999154 0.000000
vt 1.000000 0.001267
vt 1.000000 0.001267
vt 0.000666 0.999003
vt 0.000846 1.000000
vt 0.000846 1.000000
vt 0.000000 0.998733
vt 0.000000 0.998733
vt 0.999334 0.999003
vt 1.000000 0.998733
vt 1.000000 0.998733
vt 0.999154 1.000000
vt 0.999154 1.000000
vt 0.000696 0.002087
vt 0.000666 0.000997
vt 0.001394 0.001043
vt 0.999304 0.002088
vt 0.998606 0.001043
vt 0.999334 0.000997
vt 0.998606 0.998957
vt 0.999304 0.997912
vt 0.999334 0.999003
vt 0.000696 0.997912
vt 0.001394 0.998957
vt 0.000666 0.999003
vt 0.000904 0.000904
vt 0.000000 0.001117
vt 0.000000 0.001117
vt 0.001117 0.000000
vt 0.001117 0.000000
vt 0.500001 0.000000
vt 0.498696 0.000000
vt 0.498696 0.000000
vt 0.500000 0.001841
vt 0.501304 0.000000
vt 0.501304 0.000000
vt 0.000904 0.999096
vt 0.001117 1.000000
vt 0.001117 1.000000
vt 0.000000 0.998883
vt 0.000000 0.998883
vt 0.998883 0.000000
vt 0.998883 0.000000
vt 1.000000 0.001117
vt 1.000000 0.001117
vt 0.999096 0.000904
vt 0.998883 1.000000
vt 0.998883 1.000000
vt 0.999096 0.999096
vt 1.000000 0.998883
vt 1.000000 0.998883
vt 0.500000 0.998159
vt 0.498696 1.000000
vt 0.498696 1.000000
vt 0.499999 1.000000
vt 0.501304 1.000000
vt 0.501304 1.000000
vt 0.004005 0.000000
vt 0.000873 0.004131
vt 0.000001 0.004553
vt 0.000884 0.000891
vt 0.002912 0.000000
vt 0.996125 0.000000
vt 0.999112 0.000886
vt 1.000000 0.001399
vt 0.998531 0.001155
vt 0.994566 0.000000
vt 0.498933 0.000000
vt 0.498166 0.000000
vt 0.500001 0.000000
vt 0.500768 0.000000
vt 0.997143 1.000000
vt 0.996105 1.000000
vt 0.999129 0.995859
vt 0.999999 0.995447
vt 0.999105 0.999102
vt 0.005576 1.000000
vt 0.003988 1.000000
vt 0.000888 0.999114
vt -0.000000 0.998600
vt 0.001469 0.998845
vt 0.501067 1.000000
vt 0.501836 1.000000
vt 0.499999 1.000000
vt 0.499228 1.000000
vt 0.006303 0.000000
vt 0.005032 0.000000
vt 0.001601 0.003032
vt 0.000000 0.009242
vt 0.000684 0.004796
vt 0.993400 0.000000
vt 0.993716 0.000000
vt 0.998839 0.001461
vt 1.000000 0.006270
vt 0.998359 0.002945
vt 0.498186 0.000000
vt 0.501311 0.000000
vt 0.500000 0.000000
vt 0.496879 0.000000
vt 0.995106 1.000000
vt 0.998399 0.996968
vt 1.000000 0.990761
vt 0.999330 0.995196
vt 0.994759 1.000000
vt 0.007841 1.000000
vt 0.001153 0.998532
vt 0.000000 0.993724
vt 0.001532 0.996896
vt 0.006726 1.000000
vt 0.501815 1.000000
vt 0.498691 1.000000
vt 0.500000 1.000000
vt 0.503118 1.000000
vt 0.001557 0.006327
vt 0.001598 0.003096
vt 0.003126 0.003156
vt 0.996874 0.003148
vt 0.998365 0.003021
vt 0.998443 0.006327
vt 0.500000 0.006332
vt 0.497785 0.003157
vt 0.500000 0.000000
vt 0.502215 0.003149
vt 0.996874 0.996844
vt 0.998443 0.993673
vt 0.998402 0.996904
vt 0.001557 0.993673
vt 0.003126 0.996852
vt 0.001564 0.996835
vt 0.500000 1.000000
vt 0.497785 0.996851
vt 0.500000 0.993667
vt 0.502215 0.996843
vt 0.371305 0.000000
vt 0.373666 0.000000
vt 0.374301 0.000000
vt 0.372010 0.000000
vt 0.369163 0.000000
vt 0.369033 0.000000
vt 0.628695 1.000000
vt 0.626343 1.000000
vt 0.625698 1.000000
vt 0.627989 1.000000
vt 0.630842 1.000000
vt 0.630967 1.000000
vt 0.000000 0.000000
vt 0.000000 0.000000
vt 1.000000 0.000000
vt 1.000000 0.000000
vt 0.000000 1.000000
vt 0.000000 1.000000
vt 1.000000 1.000000
vt 1.000000 1.000000
vt 0.000000 0.000000
vt 1.000000 0.000000
vt 1.000000 1.000000
vt 0.000000 1.000000
vt 0.000000 0.000000
vt 0.000000 0.000000
vt 0.500000 0.000000
vt 0.500000 0.000000
vt 0.000000 1.000000
vt 0.000000 1.000000
vt 1.000000 0.000000
vt 1.000000 0.000000
vt 1.000000 1.000000
vt 1.000000 1.000000
vt 0.500000 1.000000
vt 0.500000 1.000000
vt 0.000000 0.000000
vt 1.000000 0.000000
vt 0.500000 0.000000
vt 1.000000 1.000000
vt 0.000000 1.000000
vt 0.500000 1.000000
vt 0.000000 0.000000
vt 1.000000 0.000000
vt 0.500000 0.000000
vt 1.000000 1.000000
vt 0.000000 1.000000
vt 0.500000 1.000000
vt 0.000000 0.000000
vt 1.000000 0.000000
vt 0.500000 0.000000
vt 1.000000 1.000000
vt 0.000000 1.000000
vt 0.500000 1.000000
vt 0.370301 0.000000
vt 0.629699 1.000000
vn -0.999877 -0.015646 0.000605
vn -0.924282 -0.009760 0.381586
vn -0.924282 0.009760 0.381586
vn -0.999877 0.015646 0.000605
vn -0.381565 -0.009761 0.924290
vn -0.000404 -0.015647 0.999878
vn -0.000404 0.015647 0.999878
vn -0.381566 0.009762 0.924290
vn -0.000409 -1.000000 0.000613
vn -0.382604 -0.923913 0.000379
vn -0.382604 -0.923913 -0.000379
vn -0.000409 -1.000000 -0.000613
vn -0.923899 -0.382637 0.000379
vn -0.999877 -0.015646 -0.000605
vn -0.923899 -0.382637 -0.000379
vn -0.000253 -0.382658 0.923890
vn 0.000253 -0.382658 0.923890
vn 0.000404 -0.015647 0.999878
vn -0.000253 -0.923907 0.382618
vn 0.000409 -1.000000 0.000613
vn 0.000253 -0.923907 0.382618
vn 0.381565 -0.009761 0.924290
vn 0.381565 0.009761 0.924290
vn 0.000404 0.015647 0.999878
vn 0.924282 -0.009760 0.381586
vn 0.999877 -0.015646 0.000605
vn 0.999877 0.015646 0.000605
vn 0.924282 0.009759 0.381586
vn 0.923899 -0.382637 0.000379
vn 0.923899 -0.382637 -0.000379
vn 0.999877 -0.015646 -0.000605
vn 0.382604 -0.923913 0.000379
vn 0.000409 -1.000000 -0.000613
vn 0.382604 -0.923913 -0.000379
vn -0.000404 -0.015647 -0.999878
vn -0.381565 -0.009761 -0.924290
vn -0.381565 0.009761 -0.924290
vn -0.000404 0.015647 -0.999878
vn -0.924282 -0.009760 -0.381586
vn -0.999877 0.015646 -0.000605
vn -0.924282 0.009759 -0.381586
vn -0.000253 -0.923907 -0.382618
vn 0.000253 -0.923907 -0.382618
vn -0.000253 -0.382658 -0.923890
vn 0.000404 -0.015647 -0.999878
vn 0.000253 -0.382658 -0.923890
vn 0.924282 -0.009760 -0.381586
vn 0.924282 0.009760 -0.381586
vn 0.999877 0.015646 -0.000605
vn 0.381565 -0.009761 -0.924290
vn 0.000404 0.015647 -0.999878
vn 0.381566 0.009762 -0.924290
vn -0.923899 0.382637 0.000379
vn -0.923899 0.382637 -0.000379
vn -0.382604 0.923913 0.000379
vn -0.000409 1.000000 0.000613
vn -0.000409 1.000000 -0.000613
vn -0.382604 0.923913 -0.000379
vn -0.000253 0.923907 0.382618
vn 0.000253 0.923907 0.382618
vn 0.000409 1.000000 0.000613
vn -0.000253 0.382623 0.923905
vn 0.000253 0.382623 0.923905
vn 0.382604 0.923913 0.000379
vn 0.382604 0.923913 -0.000379
vn 0.000409 1.000000 -0.000613
vn 0.923899 0.382637 0.000379
vn 0.923899 0.382637 -0.000379
vn 0.000253 0.923907 -0.382618
vn -0.000253 0.923907 -0.382618
vn 0.000253 0.382623 -0.923905
vn -0.000253 0.382623 -0.923905
vn -0.999981 -0.006185 0.000527
vn -0.925442 -0.004106 0.378866
vn -0.925288 -0.000226 0.379265
vn -0.999995 0.003081 0.000530
vn -0.385534 -0.004185 0.922684
vn -0.001065 -0.006182 0.999980
vn -0.001056 0.002578 0.999996
vn -0.386011 -0.000278 0.922494
vn -0.001082 -0.999999 0.000540
vn -0.382650 -0.923894 0.000334
vn -0.382650 -0.923893 -0.000334
vn -0.001082 -0.999999 -0.000540
vn -0.923894 -0.382650 0.000334
vn -0.999981 -0.006183 -0.000532
vn -0.923893 -0.382650 -0.000334
vn -0.000669 -0.382599 0.923914
vn 0.000000 -0.382674 0.923883
vn 0.000000 -0.006191 0.999981
vn -0.000669 -0.923910 0.382609
vn 0.000000 -1.000000 0.000541
vn 0.000000 -0.923879 0.382684
vn 0.000000 -0.006194 0.999981
vn 0.000000 0.006194 0.999981
vn 0.000001 0.005921 0.999982
vn -0.000000 -0.006193 0.999981
vn -0.000001 0.005810 0.999983
vn 0.000000 -1.000000 0.000541
vn 0.000000 -1.000000 0.000541
vn 0.000000 -1.000000 -0.000541
vn 0.000000 -1.000000 -0.000541
vn 0.000000 -1.000000 -0.000541
vn 0.000000 -0.382673 0.923884
vn 0.000669 -0.382599 0.923914
vn 0.001055 -0.006186 0.999980
vn 0.000000 -0.923880 0.382682
vn 0.001082 -0.999999 0.000540
vn 0.000669 -0.923911 0.382607
vn -0.001055 -0.006186 -0.999980
vn -0.378901 -0.004107 -0.925428
vn -0.379300 -0.000226 -0.925274
vn -0.001093 0.002690 -0.999996
vn -0.922687 -0.004185 -0.385528
vn -0.999995 0.003134 -0.000527
vn -0.922497 -0.000277 -0.386005
vn -0.000669 -0.923911 -0.382607
vn 0.000000 -0.923880 -0.382682
vn -0.000669 -0.382599 -0.923914
vn 0.000000 -0.006193 -0.999981
vn 0.000000 -0.382673 -0.923884
vn 0.999981 -0.006183 0.000532
vn 0.923893 -0.382650 0.000334
vn 0.923893 -0.382650 -0.000334
vn 0.999981 -0.006185 -0.000532
vn 0.382650 -0.923893 0.000334
vn 0.001082 -0.999999 -0.000540
vn 0.382650 -0.923893 -0.000334
vn 0.378901 -0.004107 0.925428
vn 0.379300 -0.000226 0.925274
vn 0.001092 0.002728 0.999996
vn 0.922687 -0.004185 0.385528
vn 0.999995 0.003134 0.000527
vn 0.922497 -0.000277 0.386005
vn 0.001066 -0.006186 -0.999980
vn 0.000669 -0.382599 -0.923914
vn 0.000000 -0.382673 -0.923884
vn 0.000000 -0.006193 -0.999981
vn 0.000669 -0.923911 -0.382607
vn 0.000000 -0.923880 -0.382682
vn 0.924058 -0.004043 -0.382231
vn 0.923886 -0.000167 -0.382667
vn 0.999995 0.003081 -0.000531
vn 0.382251 -0.004043 -0.924050
vn 0.001065 0.002665 -0.999996
vn 0.382686 -0.000167 -0.923878
vn 0.000000 -0.006194 -0.999981
vn 0.000000 0.006194 -0.999981
vn -0.000001 0.005810 -0.999983
vn 0.000001 0.005923 -0.999983
vn -0.000024 1.000000 0.000046
vn -0.000444 0.999999 0.001304
vn 0.000000 1.000000 0.000005
vn 0.000000 1.000000 0.000000
vn -0.000003 0.999623 0.027458
vn 0.000000 1.000000 0.000000
vn -0.018701 0.999825 0.000006
vn -0.002129 0.999997 0.001378
vn -0.000317 1.000000 0.000914
vn -0.000297 1.000000 0.000003
vn 0.000003 1.000000 0.000026
vn -0.932179 0.361997 0.000018
vn -0.932179 0.361997 0.000018
vn -0.358851 0.933394 0.001291
vn -0.018689 0.999825 -0.000003
vn -0.358989 0.933341 -0.001231
vn -0.002565 0.934089 0.357031
vn 0.000041 0.931652 0.363352
vn 0.000001 0.999989 0.004704
vn 0.000084 0.373611 0.927585
vn 0.000084 0.373635 0.927576
vn 0.000462 0.365196 0.930930
vn -0.000083 0.364610 0.931161
vn 0.002519 0.929585 0.368599
vn 0.000002 0.999613 0.027827
vn -0.000001 0.999989 0.004765
vn -0.000065 0.927209 0.374546
vn 0.018689 0.999825 0.000003
vn 0.358986 0.933342 0.001215
vn 0.358843 0.933397 -0.001289
vn 0.018703 0.999825 -0.000006
vn 0.932179 0.361997 -0.000018
vn 0.932179 0.361997 -0.000018
vn 0.000024 1.000000 0.000047
vn 0.002086 0.999997 0.001462
vn 0.000302 1.000000 0.000821
vn -0.000003 1.000000 0.000021
vn 0.000301 1.000000 0.000003
vn 0.000449 0.999999 0.001314
vn 0.000000 1.000000 0.000000
vn 0.000000 1.000000 0.000000
vn 0.000000 1.000000 0.000000
vn 0.000000 0.999997 0.002442
vn 0.000000 1.000000 0.000000
vn 0.000002 0.999613 -0.027827
vn 0.002605 0.929607 -0.368542
vn -0.000065 0.927209 -0.374546
vn -0.000001 0.999989 -0.004764
vn -0.000083 0.364561 -0.931179
vn -0.000083 0.364610 -0.931161
vn 0.000025 1.000000 -0.000045
vn 0.000474 0.999999 -0.001301
vn 0.000000 1.000000 0.000000
vn 0.000000 1.000000 0.000000
vn 0.000000 1.000000 0.000000
vn 0.002150 0.999997 -0.001355
vn 0.000301 1.000000 -0.000815
vn 0.000296 1.000000 -0.000003
vn -0.000003 1.000000 -0.000021
vn -0.000004 0.999615 -0.027736
vn -0.000423 0.999999 -0.001355
vn 0.000000 1.000000 0.000000
vn 0.000000 1.000000 0.000000
vn -0.000022 1.000000 -0.000049
vn 0.000000 1.000000 -0.000000
vn -0.000455 0.371112 -0.928588
vn 0.000065 0.370512 -0.928828
vn -0.002479 0.932646 -0.360785
vn 0.000000 0.999989 -0.004756
vn 0.000030 0.930271 -0.366872
vn -0.002075 0.999997 -0.001515
vn -0.000316 1.000000 -0.000917
vn 0.000003 1.000000 -0.000026
vn -0.000301 1.000000 -0.000003
vn 0.000000 0.999997 -0.002441
vn 0.000000 1.000000 0.000000
vn -0.000006 0.999016 0.044355
vn 0.000043 1.000000 0.000376
vn 0.000000 1.000000 0.000000
vn 0.000000 1.000000 -0.000000
vn -0.001833 0.000183 0.999998
vn -0.001531 0.370718 0.928744
vn -0.000111 0.370474 0.928843
vn -0.000000 0.000409 1.000000
vn -0.000051 0.930291 0.366822
vn -0.000001 0.999967 0.008126
vn -0.000051 0.930263 0.366893
vn -0.999998 0.000552 0.001871
vn -0.925330 0.000624 0.379163
vn -0.925479 0.000268 0.378799
vn -0.999998 0.000428 0.001852
vn -0.386300 0.000358 0.922373
vn -0.001848 0.000428 0.999998
vn -0.386468 0.000274 0.922303
vn -0.414618 0.909995 0.000882
vn -0.414545 0.910028 -0.000758
vn -0.924208 0.381890 0.000045
vn -0.999998 0.000552 -0.001866
vn -0.924208 0.381890 0.000045
vn 0.000019 0.999034 0.043956
vn 0.001396 0.455457 0.890257
vn 0.000111 0.927194 0.374582
vn 0.000002 0.999967 0.008139
vn 0.001833 0.000186 0.999998
vn 0.000000 0.000402 1.000000
vn 0.000141 0.364592 0.931167
vn -0.000062 1.000000 0.000456
vn 0.000000 1.000000 0.000003
vn 0.000000 1.000000 -0.000000
vn 0.999998 0.000552 0.001870
vn 0.924208 0.381890 -0.000045
vn 0.924208 0.381890 -0.000045
vn 0.999998 0.000552 -0.001871
vn 0.414658 0.909977 0.000691
vn 0.414734 0.909943 -0.000813
vn 0.386040 0.000399 0.922482
vn 0.386229 0.000274 0.922403
vn 0.001847 0.000428 0.999998
vn 0.925250 0.000662 0.379358
vn 0.999998 0.000428 0.001852
vn 0.925380 0.000269 0.379040
vn 0.000000 0.999991 0.004184
vn 0.000000 1.000000 -0.000000
vn 0.000000 0.000429 1.000000
vn 0.000000 0.000429 1.000000
vn 0.000000 0.000429 1.000000
vn 0.000000 0.000429 1.000000
vn 0.001833 0.000186 -0.999998
vn 0.001420 0.455315 -0.890329
vn 0.000141 0.364592 -0.931167
vn 0.000000 0.000402 -1.000000
vn 0.000019 0.999032 -0.043985
vn 0.000002 0.999967 -0.008139
vn 0.000111 0.927196 -0.374575
vn 0.925351 0.000631 -0.379111
vn 0.925479 0.000268 -0.378799
vn 0.999998 0.000428 -0.001852
vn 0.386285 0.000384 -0.922379
vn 0.001848 0.000428 -0.999998
vn 0.386468 0.000274 -0.922303
vn -0.000060 1.000000 -0.000442
vn 0.000000 1.000000 -0.000000
vn 0.000000 1.000000 -0.000000
vn 0.000044 1.000000 -0.000378
vn 0.000000 1.000000 -0.000003
vn -0.000008 0.999036 -0.043908
vn 0.000000 1.000000 0.000000
vn -0.001816 0.000180 -0.999998
vn -0.389372 0.000363 -0.921081
vn -0.389536 0.000284 -0.921011
vn -0.001846 0.000428 -0.999998
vn -0.926631 0.000663 -0.375972
vn -0.999998 0.000428 -0.001833
vn -0.926783 0.000273 -0.375598
vn -0.000070 0.931686 -0.363266
vn -0.000070 0.931652 -0.363352
vn -0.000002 0.999968 -0.008036
vn -0.001518 0.373802 -0.927507
vn -0.000000 0.000409 -1.000000
vn -0.000144 0.373546 -0.927612
vn 0.000000 0.999991 -0.004184
vn 0.000000 1.000000 0.000000
vn 0.000000 0.000429 -1.000000
vn 0.000000 0.000429 -1.000000
vn 0.000000 0.000429 -1.000000
vn -0.000000 0.000429 -1.000000
vn -0.923939 0.382538 0.001157
vn -0.923939 0.382538 -0.001157
vn -0.382518 0.923947 0.001157
vn -0.001843 0.999997 0.001869
vn -0.001843 0.999997 -0.001869
vn -0.382518 0.923947 -0.001157
vn -0.001141 0.923963 0.382481
vn 0.000000 0.923910 0.382609
vn 0.000000 0.999998 0.001871
vn -0.001141 0.382556 0.923932
vn 0.000000 0.382684 0.923879
vn 0.001141 0.382556 0.923932
vn 0.000000 0.382684 0.923879
vn 0.001141 0.923963 0.382481
vn 0.001843 0.999997 0.001869
vn 0.000000 0.999998 0.001871
vn 0.000000 0.923910 0.382609
vn 0.382518 0.923947 0.001157
vn 0.382518 0.923947 -0.001157
vn 0.001843 0.999997 -0.001869
vn 0.923939 0.382538 0.001157
vn 0.923939 0.382538 -0.001157
vn 0.000000 0.999998 0.001872
vn 0.000000 0.999998 -0.001872
vn 0.000000 0.999998 -0.001871
vn 0.000000 0.999998 -0.001871
vn 0.001141 0.923963 -0.382481
vn 0.000000 0.923910 -0.382609
vn 0.001141 0.382556 -0.923932
vn 0.000000 0.382684 -0.923879
vn -0.001141 0.382556 -0.923932
vn 0.000000 0.382684 -0.923879
vn -0.001141 0.923963 -0.382481
vn 0.000000 0.923910 -0.382609
vn -0.325301 -0.325258 0.887911
vn -0.887916 -0.325216 0.325331
vn -0.325287 -0.887911 0.325272
vn 0.887913 -0.325220 0.325335
vn 0.325301 -0.325258 0.887911
vn 0.325282 -0.887914 0.325268
vn -0.887913 -0.325220 -0.325335
vn -0.325301 -0.325258 -0.887911
vn -0.325282 -0.887914 -0.325268
vn 0.325301 -0.325258 -0.887911
vn 0.887916 -0.325216 -0.325331
vn 0.325287 -0.887911 -0.325272
vn -0.325295 0.887948 0.325165
vn -0.887913 0.325220 0.325335
vn -0.325309 0.325266 0.887905
vn 0.887916 0.325216 0.325331
vn 0.325296 0.887936 0.325195
vn 0.325301 0.325258 0.887911
vn 0.325309 0.325266 -0.887905
vn 0.325295 0.887948 -0.325165
vn 0.887913 0.325220 -0.325335
vn -0.887916 0.325216 -0.325331
vn -0.325296 0.887936 -0.325195
vn -0.325301 0.325258 -0.887911
vn -0.325261 -0.325347 0.887893
vn -0.887905 -0.325292 0.325283
vn -0.325250 -0.887917 0.325293
vn 0.000000 -0.382674 0.923884
vn 0.000000 -0.923880 0.382683
vn -0.887897 -0.325348 -0.325251
vn -0.325280 -0.325338 -0.887890
vn -0.325301 -0.887909 -0.325265
vn 0.325280 -0.325338 0.887890
vn 0.325301 -0.887909 0.325265
vn 0.887897 -0.325348 0.325251
vn 0.325269 -0.887918 -0.325271
vn 0.325264 -0.325321 -0.887902
vn 0.887910 -0.325294 -0.325269
vn 0.000000 -0.923880 -0.382683
vn 0.000000 -0.382674 -0.923884
vn -0.130370 0.977905 0.163415
vn -0.590451 0.717826 0.368909
vn -0.590451 0.717826 0.368909
vn -0.488026 0.726031 0.484469
vn -0.450202 0.724851 0.521449
vn -0.316701 0.706549 0.632842
vn -0.316701 0.706549 0.632842
vn 0.129379 0.977279 0.167888
vn 0.482137 0.709476 0.513991
vn 0.445968 0.705924 0.550258
vn 0.589907 0.708149 0.387987
vn 0.589907 0.708149 0.387987
vn 0.000000 0.923879 0.382684
vn 0.000000 0.382674 0.923883
vn 0.493256 0.713980 -0.496921
vn 0.322360 0.686801 -0.651451
vn 0.322360 0.686801 -0.651451
vn 0.458721 0.711387 -0.532451
vn 0.135262 0.977310 -0.163002
vn 0.596923 0.710235 -0.373162
vn 0.596923 0.710235 -0.373162
vn -0.124766 0.977264 -0.171432
vn -0.471589 0.716858 -0.513536
vn -0.432765 0.713398 -0.551160
vn -0.580017 0.714522 -0.391202
vn -0.580018 0.714522 -0.391202
vn 0.000000 0.923881 -0.382680
vn 0.000000 0.382674 -0.923883
vn -0.029430 0.972834 0.229627
vn -0.192284 0.449871 0.872148
vn -0.192284 0.449871 0.872148
vn -0.205828 0.288613 0.935060
vn -0.761878 0.358271 0.539615
vn -0.761878 0.358271 0.539615
vn 0.198199 0.327133 0.923959
vn 0.143448 0.652032 0.744498
vn 0.035611 0.974784 0.220292
vn 0.763283 0.390786 0.514476
vn 0.763283 0.390786 0.514476
vn 0.000000 0.923879 0.382685
vn 0.000000 0.382672 0.923884
vn 0.149335 0.635417 -0.757591
vn 0.201913 0.318359 -0.926218
vn 0.769733 0.376574 -0.515465
vn 0.769733 0.376574 -0.515465
vn 0.037057 0.973755 -0.224563
vn -0.190980 0.451809 -0.871433
vn -0.190980 0.451809 -0.871433
vn -0.203937 0.294533 -0.933627
vn -0.027616 0.973461 -0.227180
vn -0.756341 0.372348 -0.537872
vn -0.756341 0.372348 -0.537872
vn 0.000000 0.923878 -0.382687
vn 0.000000 0.382672 -0.923884
vn -0.325282 0.887952 0.325165
vn -0.887902 0.325271 0.325314
vn -0.325290 0.325283 0.887906
vn 0.325283 0.887951 0.325166
vn 0.325287 0.325278 0.887909
vn 0.887903 0.325268 0.325315
vn 0.000000 0.923887 0.382665
vn 0.000000 0.382711 0.923868
vn 0.325290 0.325283 -0.887906
vn 0.325282 0.887952 -0.325165
vn 0.887902 0.325271 -0.325314
vn -0.887903 0.325268 -0.325315
vn -0.325283 0.887951 -0.325166
vn -0.325287 0.325278 -0.887909
vn 0.000000 0.382711 -0.923868
vn 0.000000 0.923887 -0.382665
vn 0.000000 1.000000 0.000002
vn 0.000000 1.000000 0.000003
s 1
g pPlane17
usemtl initialShadingGroup
f 2/1/1 1/133/2 27/154/3 26/98/4
s 2
f 1/133/5 6/94/6 28/9/7 27/154/8
s 3
f 4/2/9 3/134/10 17/147/11 16/93/12
s 1
f 3/135/13 2/1/1 18/4/14 17/146/15
s 2
f 6/94/6 5/136/16 9/140/17 8/95/18
s 3
f 5/137/19 4/2/9 10/3/20 9/139/21
s 2
f 8/95/18 7/138/22 35/158/23 34/10/24
s 4
f 7/138/25 12/96/26 36/11/27 35/158/28
f 12/96/26 11/141/29 21/150/30 20/97/31
s 3
f 11/142/32 10/3/20 22/5/33 21/149/34
s 5
f 14/6/35 13/143/36 47/164/37 46/15/38
s 1
f 13/143/39 18/4/14 48/8/40 47/164/41
s 3
f 16/93/12 15/144/42 23/152/43 22/5/33
s 5
f 15/145/44 14/6/35 24/7/45 23/151/46
s 4
f 20/97/31 19/148/47 41/161/48 40/12/49
s 5
f 19/148/50 24/7/45 42/14/51 41/161/52
s 1
f 26/98/4 25/153/53 43/162/54 48/8/40
s 6
f 25/153/55 30/90/56 44/13/57 43/162/58
f 30/90/56 29/155/59 33/157/60 32/91/61
s 2
f 29/155/62 28/9/7 34/10/24 33/157/63
s 6
f 32/91/61 31/156/64 39/160/65 38/92/66
s 4
f 31/156/67 36/11/27 40/12/49 39/160/68
s 6
f 38/92/66 37/159/69 45/163/70 44/13/57
s 5
f 37/159/71 42/14/51 46/15/38 45/163/72
s 7
f 50/16/73 49/165/74 95/200/75 94/106/76
s 8
f 49/165/77 54/102/78 96/32/79 95/200/80
s 9
f 52/17/81 51/166/82 67/180/83 66/101/84
s 7
f 51/167/85 50/16/73 68/20/86 67/179/87
s 8
f 54/102/78 53/168/88 57/172/89 56/103/90
s 9
f 53/169/91 52/17/81 58/18/92 57/171/93
s 8
f 56/103/90 55/170/94 113/209/95 112/33/96
f 55/170/94 62/126/97 114/34/98 113/209/95
s 9
f 60/19/99 59/173/100 81/191/101 88/26/102
f 59/173/100 58/18/92 82/21/103 81/191/101
s 8
f 62/126/97 61/174/104 69/182/105 74/127/106
s 9
f 61/175/107 60/19/99 70/23/108 69/181/109
s 11
f 64/22/110 63/176/111 131/218/112 130/105/113
s 7
f 63/176/114 68/20/86 132/30/115 131/218/116
s 9
f 66/101/84 65/177/117 83/193/118 82/21/103
s 11
f 65/178/119 64/22/110 84/28/120 83/192/121
s 12
f 72/24/122 71/183/123 79/190/124 78/104/125
s 9
f 71/184/126 70/23/108 80/25/127 79/189/128
s 8
f 74/127/106 73/185/129 101/203/130 100/128/131
s 12
f 73/185/132 72/24/122 102/35/133 101/203/134
s 11
f 76/27/135 75/186/136 87/196/137 86/125/138
s 9
f 75/187/139 80/25/127 88/26/102 87/195/140
s 12
f 78/104/125 77/188/141 125/215/142 124/36/143
s 11
f 77/188/144 76/27/135 126/42/145 125/215/146
f 86/125/138 85/194/147 141/223/148 140/43/149
f 85/194/147 84/28/120 142/46/150 141/223/148
s 14
f 90/29/151 89/197/152 251/278/153 250/53/154
f 89/197/152 98/131/155 252/39/156 251/278/153
f 92/31/157 91/198/158 153/229/159 152/112/160
f 91/198/158 90/29/151 154/52/161 153/229/159
s 7
f 94/106/76 93/199/162 133/219/163 132/30/115
s 14
f 93/199/164 92/31/157 134/48/165 133/219/166
f 98/131/155 97/201/167 111/208/168 110/132/169
s 8
f 97/201/170 96/32/79 112/33/96 111/208/171
f 100/128/131 99/202/172 115/210/173 114/34/98
s 14
f 99/202/174 108/107/175 116/40/176 115/210/177
f 104/37/178 103/204/179 123/214/180 122/109/181
s 12
f 103/204/182 102/35/133 124/36/143 123/214/183
s 14
f 106/38/184 105/205/185 159/232/186 158/108/187
f 105/205/185 104/37/178 160/60/188 159/232/186
f 108/107/175 107/206/189 243/274/190 242/41/191
f 107/206/189 106/38/184 244/58/192 243/274/190
f 110/132/169 109/207/193 241/273/194 252/39/156
f 109/207/193 116/40/176 242/41/191 241/273/194
f 118/44/195 117/211/196 139/222/197 138/130/198
s 11
f 117/211/199 126/42/145 140/43/149 139/222/200
s 14
f 120/45/201 119/212/202 263/284/203 262/69/204
f 119/212/202 118/44/195 264/49/205 263/284/203
f 122/109/181 121/213/206 179/242/207 178/61/208
f 121/213/206 120/45/201 180/68/209 179/242/207
f 128/47/210 127/216/211 255/280/212 254/51/213
f 127/216/211 136/111/214 256/70/215 255/280/212
s 11
f 130/105/113 129/217/216 143/224/217 142/46/150
s 14
f 129/217/218 128/47/210 144/50/219 143/224/220
f 136/111/214 135/220/221 185/245/222 184/110/223
f 135/220/221 134/48/165 186/56/224 185/245/222
f 138/130/198 137/221/225 253/279/226 264/49/205
f 137/221/225 144/50/219 254/51/213 253/279/226
f 146/54/227 145/225/228 249/277/229 248/65/230
f 145/225/228 154/52/161 250/53/154 249/277/229
f 148/55/231 147/226/232 171/238/233 170/113/234
f 147/226/235 146/54/227 172/64/236 171/238/237
s 26
f 150/57/238 149/227/239 203/254/240 202/116/241
s 14
f 149/227/242 148/55/231 204/78/243 203/254/244
f 152/112/160 151/228/245 187/246/246 186/56/224
s 26
f 151/228/247 150/57/238 188/71/248 187/246/249
s 14
f 156/59/250 155/230/251 167/236/252 166/117/253
f 155/230/251 164/120/254 168/66/255 167/236/256
f 158/108/187 157/231/257 245/275/258 244/58/192
f 157/231/257 156/59/250 246/63/259 245/275/258
s 29
f 162/62/260 161/233/261 177/241/262 176/114/263
s 14
f 161/233/264 160/60/188 178/61/208 177/241/265
f 164/120/254 163/234/266 209/257/267 208/121/268
s 29
f 163/234/269 162/62/260 210/81/270 209/257/271
s 14
f 166/117/253 165/235/272 247/276/273 246/63/259
f 165/235/272 172/64/236 248/65/230 247/276/273
f 170/113/234 169/237/274 217/261/275 216/79/276
f 169/237/274 168/66/255 218/80/277 217/261/275
f 174/67/278 173/239/279 199/252/280 198/124/281
f 173/239/279 182/129/282 200/74/283 199/252/284
s 29
f 176/114/263 175/240/285 225/265/286 224/82/287
s 14
f 175/240/288 174/67/278 226/85/289 225/265/290
f 182/129/282 181/243/291 261/283/292 260/75/293
f 181/243/291 180/68/209 262/69/204 261/283/292
f 184/110/223 183/244/294 257/281/295 256/70/215
f 183/244/294 192/119/296 258/73/297 257/281/295
f 190/72/298 189/247/299 231/268/300 230/115/301
s 26
f 189/247/302 188/71/248 232/77/303 231/268/304
s 14
f 192/119/296 191/248/305 195/250/306 194/118/307
f 191/248/308 190/72/298 196/76/309 195/250/310
f 194/118/307 193/249/311 259/282/312 258/73/297
f 193/249/311 200/74/283 260/75/293 259/282/312
f 198/124/281 197/251/313 233/269/314 240/86/315
f 197/251/313 196/76/309 234/87/316 233/269/314
s 26
f 202/116/241 201/253/317 227/266/318 232/77/303
s 38
f 201/253/319 206/99/320 228/88/321 227/266/322
f 206/99/320 205/255/323 215/260/324 214/100/325
s 14
f 205/255/326 204/78/243 216/79/276 215/260/327
f 208/121/268 207/256/328 219/262/329 218/80/277
s 38
f 207/256/330 212/122/331 220/83/332 219/262/333
f 212/122/331 211/258/334 223/264/335 222/123/336
s 29
f 211/258/337 210/81/270 224/82/287 223/264/338
s 38
f 214/100/325 213/259/339 237/271/340 236/89/341
f 213/259/339 220/83/332 238/84/342 237/271/340
f 222/123/336 221/263/343 239/272/344 238/84/342
s 14
f 221/263/345 226/85/289 240/86/315 239/272/346
f 230/115/301 229/267/347 235/270/348 234/87/316
s 38
f 229/267/349 228/88/321 236/89/341 235/270/350
s 6
f 30/90/56 32/91/61 38/92/66 44/13/57
s 3
f 4/2/9 16/93/12 22/5/33 10/3/20
s 2
f 6/94/6 8/95/18 34/10/24 28/9/7
s 4
f 12/96/26 20/97/31 40/12/49 36/11/27
s 5
f 24/7/45 14/6/35 46/15/38 42/14/51
s 1
f 18/4/14 2/1/1 26/98/4 48/8/40
s 38
f 206/99/320 214/100/325 236/89/341 228/88/321
s 9
f 52/17/81 66/101/84 82/21/103 58/18/92
s 8
f 54/102/78 56/103/90 112/33/96 96/32/79
s 12
f 72/24/122 78/104/125 124/36/143 102/35/133
s 11
f 142/46/150 84/28/120 64/22/110 130/105/113
s 7
f 68/20/86 50/16/73 94/106/76 132/30/115
s 14
f 242/41/191 116/40/176 108/107/175
f 158/108/187 244/58/192 106/38/184
f 104/37/178 122/109/181 178/61/208 160/60/188
f 254/51/213 144/50/219 128/47/210
f 184/110/223 256/70/215 136/111/214
f 134/48/165 92/31/157 152/112/160 186/56/224
f 148/55/231 170/113/234 216/79/276 204/78/243
s 29
f 162/62/260 176/114/263 224/82/287 210/81/270
s 14
f 234/87/316 196/76/309 190/72/298 230/115/301
s 26
f 188/71/248 150/57/238 202/116/241 232/77/303
s 14
f 166/117/253 246/63/259 156/59/250
f 90/29/151 250/53/154 154/52/161
f 194/118/307 258/73/297 192/119/296
f 120/45/201 262/69/204 180/68/209
f 218/80/277 168/66/255 164/120/254 208/121/268
s 38
f 238/84/342 220/83/332 212/122/331 222/123/336
s 14
f 174/67/278 198/124/281 240/86/315 226/85/289
s 11
f 76/27/135 86/125/138 140/43/149 126/42/145
s 9
f 60/19/99 88/26/102 80/25/127 70/23/108
s 8
f 114/34/98 62/126/97 74/127/106 100/128/131
s 14
f 182/129/282 260/75/293 200/74/283
f 118/44/195 138/130/198 264/49/205
f 146/54/227 248/65/230 172/64/236
f 98/131/155 110/132/169 252/39/156
s 2
f 5/136/16 6/94/6 1/133/5 265/285/351
s 1
f 1/133/2 2/1/1 3/135/13 265/285/352
s 3
f 3/134/10 4/2/9 5/137/19 265/286/353
s 4
f 11/141/29 12/96/26 7/138/25 266/287/354
s 2
f 7/138/22 8/95/18 9/140/17 266/287/355
s 3
f 9/139/21 10/3/20 11/142/32 266/288/356
s 1
f 17/146/15 18/4/14 13/143/39 267/289/357
s 5
f 13/143/36 14/6/35 15/145/44 267/289/358
s 3
f 15/144/42 16/93/12 17/147/11 267/290/359
s 5
f 23/151/46 24/7/45 19/148/50 268/291/360
s 4
f 19/148/47 20/97/31 21/150/30 268/291/361
s 3
f 21/149/34 22/5/33 23/152/43 268/292/362
s 6
f 29/155/59 30/90/56 25/153/55 269/293/363
s 1
f 25/153/53 26/98/4 27/154/3 269/293/364
s 2
f 27/154/8 28/9/7 29/155/62 269/293/365
s 4
f 35/158/28 36/11/27 31/156/67 270/294/366
s 6
f 31/156/64 32/91/61 33/157/60 270/294/367
s 2
f 33/157/63 34/10/24 35/158/23 270/294/368
s 5
f 41/161/52 42/14/51 37/159/71 271/295/369
s 6
f 37/159/69 38/92/66 39/160/65 271/295/370
s 4
f 39/160/68 40/12/49 41/161/48 271/295/371
s 1
f 47/164/41 48/8/40 43/162/54 272/296/372
s 6
f 43/162/58 44/13/57 45/163/70 272/296/373
s 5
f 45/163/72 46/15/38 47/164/37 272/296/374
s 8
f 53/168/88 54/102/78 49/165/77 273/297/375
s 7
f 49/165/74 50/16/73 51/167/85 273/297/376
s 9
f 51/166/82 52/17/81 53/169/91 273/298/377
s 8
f 61/174/104 62/126/97 55/170/94 274/300/378
f 55/170/94 56/103/90 57/172/89 274/300/378
s 9
f 57/171/93 58/18/92 59/173/100 274/299/379
f 59/173/100 60/19/99 61/175/107 274/299/379
s 7
f 67/179/87 68/20/86 63/176/114 275/301/380
s 11
f 63/176/111 64/22/110 65/178/119 275/301/381
s 9
f 65/177/117 66/101/84 67/180/83 275/302/382
s 8
f 73/185/129 74/127/106 69/182/105 276/304/383
s 9
f 69/181/109 70/23/108 71/184/126 276/303/384
s 12
f 71/183/123 72/24/122 73/185/132 276/304/385
s 9
f 79/189/128 80/25/127 75/187/139 277/306/386
s 11
f 75/186/136 76/27/135 77/188/144 277/305/387
s 12
f 77/188/141 78/104/125 79/190/124 277/305/388
s 9
f 87/195/140 88/26/102 81/191/101 278/308/389
f 81/191/101 82/21/103 83/193/118 278/308/389
s 11
f 83/192/121 84/28/120 85/194/147 278/307/390
f 85/194/147 86/125/138 87/196/137 278/307/390
s 14
f 97/201/167 98/131/155 89/197/152 279/309/391
f 89/197/152 90/29/151 91/198/158 279/309/391
f 91/198/158 92/31/157 93/199/164 279/309/391
s 40
f 93/199/392 94/106/393 95/200/394 279/309/395
f 95/200/394 96/32/396 97/201/397 279/309/395
s 14
f 107/206/189 108/107/175 99/202/174 280/310/398
s 8
f 99/202/172 100/128/131 101/203/399 280/310/400
f 101/203/399 102/35/401 103/204/402 280/310/400
s 14
f 103/204/179 104/37/178 105/205/185 280/310/398
f 105/205/185 106/38/184 107/206/189 280/310/398
f 115/210/177 116/40/176 109/207/193 281/311/403
f 109/207/193 110/132/169 111/208/168 281/311/403
s 8
f 111/208/171 112/33/96 113/209/95 281/311/404
f 113/209/95 114/34/98 115/210/173 281/311/404
s 41
f 125/215/405 126/42/406 117/211/407 282/312/408
s 14
f 117/211/196 118/44/195 119/212/202 282/312/409
f 119/212/202 120/45/201 121/213/206 282/312/409
f 121/213/206 122/109/181 123/214/180 282/312/409
s 41
f 123/214/410 124/36/411 125/215/405 282/312/408
s 14
f 135/220/221 136/111/214 127/216/211 283/313/412
f 127/216/211 128/47/210 129/217/218 283/313/412
s 11
f 129/217/216 130/105/113 131/218/413 283/313/414
f 131/218/413 132/30/415 133/219/416 283/313/414
s 14
f 133/219/166 134/48/165 135/220/221 283/313/412
f 143/224/220 144/50/219 137/221/225 284/314/417
f 137/221/225 138/130/198 139/222/197 284/314/417
s 11
f 139/222/200 140/43/149 141/223/148 284/314/418
f 141/223/148 142/46/150 143/224/217 284/314/418
s 14
f 153/229/159 154/52/161 145/225/228 285/315/419
f 145/225/420 146/54/421 147/226/232 285/315/422
f 147/226/232 148/55/231 149/227/242 285/315/422
s 26
f 149/227/239 150/57/238 151/228/423 285/315/424
s 14
f 151/228/245 152/112/160 153/229/159 285/315/419
f 163/234/266 164/120/254 155/230/251 286/316/425
f 155/230/251 156/59/250 157/231/426 286/316/425
f 157/231/257 158/108/187 159/232/186 286/316/427
f 159/232/186 160/60/188 161/233/264 286/316/427
s 29
f 161/233/428 162/62/260 163/234/269 286/316/429
s 14
f 171/238/237 172/64/236 165/235/272 287/317/430
f 165/235/272 166/117/253 167/236/252 287/317/430
f 167/236/256 168/66/255 169/237/274 287/317/431
f 169/237/274 170/113/234 171/238/233 287/317/431
f 181/243/432 182/129/282 173/239/279 288/318/433
f 173/239/279 174/67/278 175/240/288 288/318/433
s 29
f 175/240/285 176/114/263 177/241/434 288/318/435
s 14
f 177/241/265 178/61/208 179/242/207 288/318/436
f 179/242/207 180/68/209 181/243/291 288/318/436
f 191/248/308 192/119/437 183/244/438 289/319/439
f 183/244/294 184/110/223 185/245/222 289/319/440
f 185/245/222 186/56/224 187/246/246 289/319/440
s 26
f 187/246/441 188/71/248 189/247/302 289/319/442
s 14
f 189/247/299 190/72/298 191/248/308 289/319/439
f 199/252/284 200/74/283 193/249/311 290/320/443
f 193/249/311 194/118/307 195/250/306 290/320/443
f 195/250/310 196/76/309 197/251/313 290/320/444
f 197/251/313 198/124/281 199/252/280 290/320/444
s 38
f 205/255/323 206/99/320 201/253/319 291/321/445
s 26
f 201/253/317 202/116/241 203/254/240 291/321/446
s 14
f 203/254/244 204/78/243 205/255/326 291/321/447
s 38
f 211/258/334 212/122/331 207/256/330 292/322/448
s 14
f 207/256/328 208/121/268 209/257/267 292/322/449
s 29
f 209/257/271 210/81/270 211/258/337 292/322/450
s 38
f 219/262/333 220/83/332 213/259/339 293/323/451
f 213/259/339 214/100/325 215/260/324 293/323/451
s 14
f 215/260/327 216/79/276 217/261/275 293/323/452
f 217/261/275 218/80/277 219/262/329 293/323/452
f 225/265/290 226/85/289 221/263/345 294/324/453
s 38
f 221/263/343 222/123/336 223/264/335 294/324/454
s 29
f 223/264/338 224/82/287 225/265/286 294/324/455
s 26
f 231/268/304 232/77/303 227/266/318 295/325/456
s 38
f 227/266/322 228/88/321 229/267/349 295/325/457
s 14
f 229/267/347 230/115/301 231/268/300 295/325/458
f 239/272/346 240/86/315 233/269/314 296/326/459
f 233/269/314 234/87/316 235/270/348 296/326/459
s 38
f 235/270/350 236/89/341 237/271/340 296/326/460
f 237/271/340 238/84/342 239/272/344 296/326/460
s 14
f 251/278/153 252/39/156 241/273/194 297/327/461
f 241/273/194 242/41/191 243/274/190 297/327/461
f 243/274/190 244/58/192 245/275/258 297/327/461
f 245/275/258 246/63/259 247/276/273 297/327/461
f 247/276/273 248/65/230 249/277/229 297/327/461
f 249/277/229 250/53/154 251/278/153 297/327/461
f 263/284/203 264/49/205 253/279/226 298/328/462
f 253/279/226 254/51/213 255/280/212 298/328/462
f 255/280/212 256/70/215 257/281/295 298/328/462
f 257/281/295 258/73/297 259/282/312 298/328/462
f 259/282/312 260/75/293 261/283/292 298/328/462
f 261/283/292 262/69/204 263/284/203 298/328/462
