# This file uses meters as units for non-parametric coordinates.

mtllib tv.mtl
g default
v -944.455632 1026.150247 -32.387067
v -944.455921 1027.388041 -33.601147
v -946.057674 1026.777684 -33.860941
v -946.721315 1025.303792 -34.488292
v -946.057674 1024.676116 -33.014520
v -944.455921 1024.416620 -32.403977
v -943.793002 1055.630733 -101.661298
v -942.106019 1054.377049 -102.901465
v -943.707844 1053.732530 -103.175799
v -944.371341 1052.176383 -103.838261
v -946.043951 1053.525520 -102.557664
v -946.721243 1053.588749 -100.824625
v -946.071109 1055.032851 -100.209904
v -944.501498 1055.630916 -99.955342
v -944.455632 -18.800216 -477.162424
v -944.455921 -17.586193 -475.924540
v -946.057674 -17.325783 -476.534793
v -946.721315 -16.698966 -478.008981
v -946.057674 -18.172876 -478.636290
v -944.455921 -18.783375 -478.896193
v 946.057674 1024.676116 -33.014520
v 946.721315 1025.303792 -34.488292
v 946.057674 1026.777684 -33.860941
v 944.455921 1027.388041 -33.601147
v 944.455632 1026.150247 -32.387067
v 944.455921 1024.416620 -32.403977
v 946.052835 1053.551389 -102.546455
v 944.413667 1052.254045 -103.805205
v 943.713117 1053.727857 -103.177888
v 942.021728 1054.338178 -102.918010
v 943.764833 1055.622939 -101.664914
v 944.501498 1055.630916 -99.955342
v 946.071109 1055.032851 -100.209904
v 946.721243 1053.588749 -100.824625
v 946.057674 -18.172876 -478.636290
v 946.721315 -16.698966 -478.008981
v 946.057674 -17.326005 -476.534937
v 944.455921 -17.586193 -475.924540
v 944.455632 -18.800216 -477.162424
v 944.455921 -18.783375 -478.896193
v -943.683214 13.124507 -546.102780
v -942.021728 12.491185 -546.372299
v -943.764833 10.697681 -546.429493
v -944.501498 9.459820 -545.250253
v -946.071109 10.054598 -545.021969
v -946.721243 11.478182 -544.440662
v -946.047490 12.773179 -545.560772
v -944.371341 14.653269 -545.452174
v 943.793002 10.689530 -546.432714
v 942.106019 12.452448 -546.388936
v 943.707844 13.097046 -546.114568
v 944.371341 14.653269 -545.452174
v 946.043951 12.794922 -545.536769
v 946.721243 11.502231 -544.380767
v 946.071109 10.057987 -544.995598
v 944.501498 9.459820 -545.250253
v -898.132067 1013.617450 -119.536781
v -897.478683 1012.376581 -118.341391
v -899.064328 1011.782768 -118.606608
v -899.721252 1010.343024 -119.231789
v -900.396667 1011.551654 -120.423422
v -902.008531 1013.254780 -120.404845
v -901.338606 1014.742977 -119.771455
v -899.721252 1015.359382 -119.509038
v 900.394933 1011.535401 -120.422891
v 899.721252 1010.313120 -119.219787
v 899.071046 1011.776720 -118.609232
v 897.501579 1012.385644 -118.362462
v 898.146730 1013.621695 -119.542324
v 899.721252 1015.359382 -119.509038
v 901.338606 1014.742977 -119.771455
v 902.008531 1013.254780 -120.404845
v 898.132067 52.697623 -528.545039
v 897.478683 52.696438 -526.822136
v 899.064328 53.299114 -526.578075
v 899.721252 54.747788 -525.973873
v 900.396667 54.768832 -527.670893
v 902.008531 53.574699 -528.885514
v 901.338606 52.086502 -529.518904
v 899.721252 51.470075 -529.781381
v -899.071046 53.303552 -526.588502
v -897.501579 52.705385 -526.843157
v -898.146730 52.698653 -528.552000
v -899.721252 51.470075 -529.781381
v -901.354063 52.086502 -529.518904
v -902.030489 53.574699 -528.885514
v -900.404973 54.770686 -527.670154
v -899.721252 54.747788 -525.973873
v -897.455641 993.243994 -75.085462
v -897.455930 991.510215 -75.102237
v -899.057755 991.769649 -75.712857
v -899.721252 992.397583 -77.186568
v -899.057755 993.871333 -76.559328
v -897.455930 994.481814 -76.299382
v 899.057755 991.769888 -75.712755
v 897.455930 991.510215 -75.102237
v 897.455497 993.243994 -75.085462
v 897.455930 994.481814 -76.299382
v 899.057755 993.871333 -76.559328
v 899.721252 992.397583 -77.186568
v 897.455641 34.784656 -483.046282
v 897.455930 35.998719 -481.808380
v 899.057755 36.258969 -482.418702
v 899.721252 36.885946 -483.892821
v 899.057755 35.411996 -484.520147
v 897.455930 34.801519 -484.779992
v -897.455497 34.784656 -483.046282
v -897.455930 34.801519 -484.779992
v -899.057755 35.411996 -484.520147
v -899.721252 36.885946 -483.892821
v -899.057755 36.258969 -482.418702
v -897.455930 35.998719 -481.808380
v -945.763196 1025.994469 -32.773275
v -945.381610 1055.013353 -101.924082
v -945.763196 -18.413822 -477.317910
v 945.763196 1025.994469 -32.773275
v 945.381899 1055.013149 -101.924268
v 945.763196 -18.413902 -477.317944
v -945.375976 11.308797 -546.176577
v 945.381610 11.306968 -546.169956
v -899.732303 1013.012036 -119.797997
v 899.735553 1013.009180 -119.799263
v 899.732303 53.305589 -528.290037
v -899.742487 53.306935 -528.293089
v -898.763350 993.088277 -75.471594
v 898.763277 993.088259 -75.471552
v 898.763350 35.171010 -483.201785
v -898.763277 35.171010 -483.201785
vt 0.002865 0.002772
vt 0.002865 0.002122
vt 0.030647 0.002116
vt 0.030647 0.002753
vt 0.002248 0.002772
vt 0.002361 0.002241
vt 0.002865 0.001852
vt 0.030647 0.001853
vt 0.031252 0.003052
vt 0.031252 0.002396
vt 0.002865 0.462385
vt 0.030665 0.462422
vt 0.002248 0.462384
vt 0.031252 0.002124
vt 0.031257 0.462116
vt 0.002865 0.463035
vt 0.030656 0.463046
vt 0.002361 0.462915
vt 0.001992 0.002772
vt 0.001992 0.462385
vt 0.031502 0.003760
vt 0.031502 0.461397
vt 0.031255 0.462761
vt 0.002865 0.463304
vt 0.030647 0.463304
vt 0.040090 0.462385
vt 0.039473 0.462385
vt 0.039473 0.002772
vt 0.040090 0.002772
vt 0.040090 0.463035
vt 0.039586 0.462915
vt 0.039217 0.462385
vt 0.039217 0.002772
vt 0.040090 0.002122
vt 0.039586 0.002241
vt 0.067872 0.002753
vt 0.067872 0.462403
vt 0.067872 0.463040
vt 0.067872 0.002116
vt 0.068477 0.462115
vt 0.068477 0.003052
vt 0.068477 0.462760
vt 0.040090 0.463304
vt 0.067872 0.463304
vt 0.040090 0.001852
vt 0.067872 0.001853
vt 0.068477 0.002396
vt 0.068727 0.461431
vt 0.068727 0.003760
vt 0.068477 0.002124
vt 0.051273 0.889970
vt 0.051268 0.890607
vt 0.033661 0.890602
vt 0.033661 0.889952
vt 0.051877 0.890232
vt 0.051876 0.890877
vt 0.051264 0.890871
vt 0.033661 0.890871
vt 0.033044 0.889951
vt 0.033157 0.890482
vt 0.051273 0.468470
vt 0.033661 0.468489
vt 0.051877 0.468209
vt 0.051875 0.891144
vt 0.033044 0.468489
vt 0.051273 0.467833
vt 0.033661 0.467839
vt 0.051877 0.467564
vt 0.052128 0.890871
vt 0.052128 0.467570
vt 0.032788 0.889952
vt 0.032788 0.468489
vt 0.033157 0.467958
vt 0.051273 0.467570
vt 0.033661 0.467570
vt 0.051877 0.467295
vt 0.025789 0.468480
vt 0.026400 0.468215
vt 0.026402 0.890232
vt 0.025798 0.889970
vt 0.025793 0.467836
vt 0.026401 0.467565
vt 0.026653 0.467570
vt 0.026653 0.890871
vt 0.025793 0.890607
vt 0.026401 0.890877
vt 0.008186 0.889952
vt 0.008186 0.468489
vt 0.008186 0.467839
vt 0.025798 0.467570
vt 0.026402 0.467295
vt 0.008186 0.890602
vt 0.026400 0.891144
vt 0.025789 0.890871
vt 0.007569 0.468489
vt 0.007569 0.889951
vt 0.007682 0.467958
vt 0.008186 0.467570
vt 0.008186 0.890871
vt 0.007682 0.890482
vt 0.007313 0.468489
vt 0.007313 0.889952
vt 0.611220 0.462590
vt 0.610570 0.462590
vt 0.610570 0.002243
vt 0.611220 0.002243
vt 0.610570 0.462980
vt 0.611101 0.462908
vt 0.150957 0.462590
vt 0.150957 0.002243
vt 0.610570 0.001852
vt 0.611101 0.001924
vt 0.150307 0.462590
vt 0.150307 0.002243
vt 0.150958 0.462980
vt 0.150427 0.462908
vt 0.150958 0.001852
vt 0.150427 0.001924
vt 0.537764 0.927135
vt 0.537099 0.927546
vt 0.537103 0.467529
vt 0.537782 0.467954
vt 0.538049 0.927526
vt 0.537371 0.927934
vt 0.538051 0.467542
vt 0.537372 0.467135
vt 0.554975 0.478263
vt 0.554975 0.916806
vt 0.555246 0.917200
vt 0.538735 0.927687
vt 0.538028 0.928095
vt 0.555246 0.477869
vt 0.538016 0.466972
vt 0.538701 0.467371
vt 0.555629 0.916418
vt 0.555629 0.478647
vt 0.555897 0.916808
vt 0.555903 0.917363
vt 0.555903 0.477706
vt 0.555898 0.478260
vt 0.556542 0.916970
vt 0.996372 0.927687
vt 0.979204 0.917368
vt 0.996372 0.467382
vt 0.979204 0.477706
vt 0.556548 0.478099
vt 0.997046 0.927520
vt 0.979861 0.917204
vt 0.997058 0.467543
vt 0.979861 0.477869
vt 0.997091 0.928096
vt 0.997736 0.927932
vt 0.978565 0.916972
vt 0.979210 0.916811
vt 0.997326 0.927115
vt 0.980133 0.916806
vt 0.997079 0.466974
vt 0.997736 0.467135
vt 0.997343 0.467934
vt 0.980133 0.478263
vt 0.978565 0.478099
vt 0.979210 0.478261
vt 0.998005 0.927540
vt 0.979478 0.916422
vt 0.998008 0.467522
vt 0.979478 0.478651
vt 0.058913 0.905124
vt 0.058263 0.905124
vt 0.058263 0.467686
vt 0.058913 0.467686
vt 0.058913 0.905514
vt 0.058383 0.905443
vt 0.058913 0.467295
vt 0.058383 0.467367
vt 0.480376 0.467686
vt 0.480376 0.905124
vt 0.481026 0.467686
vt 0.481026 0.905124
vt 0.480376 0.467295
vt 0.480906 0.467367
vt 0.480376 0.905514
vt 0.480906 0.905443
vt 0.076864 0.462593
vt 0.076247 0.462593
vt 0.076247 0.002246
vt 0.076864 0.002246
vt 0.076864 0.462984
vt 0.076361 0.462912
vt 0.076864 0.001856
vt 0.076361 0.001928
vt 0.104647 0.002235
vt 0.104647 0.462604
vt 0.105251 0.462432
vt 0.105251 0.002415
vt 0.104647 0.001852
vt 0.105251 0.002020
vt 0.142284 0.462590
vt 0.141667 0.462590
vt 0.141667 0.002243
vt 0.142284 0.002243
vt 0.141667 0.462980
vt 0.142171 0.462908
vt 0.113885 0.462601
vt 0.113885 0.002232
vt 0.141667 0.001852
vt 0.142171 0.001924
vt 0.113280 0.462421
vt 0.113280 0.002404
vt 0.113876 0.462984
vt 0.113277 0.462814
vt 0.512744 0.904806
vt 0.512133 0.904965
vt 0.512130 0.467194
vt 0.512735 0.467351
vt 0.530347 0.467362
vt 0.530347 0.904800
vt 0.530964 0.904800
vt 0.530964 0.467362
vt 0.530347 0.905191
vt 0.530850 0.905119
vt 0.530347 0.466972
vt 0.530851 0.467043
vt 0.505381 0.467357
vt 0.505992 0.467197
vt 0.505995 0.904969
vt 0.505390 0.904812
vt 0.487778 0.904800
vt 0.487778 0.467362
vt 0.487161 0.467362
vt 0.487161 0.904800
vt 0.487778 0.466972
vt 0.487275 0.467043
vt 0.487778 0.905191
vt 0.487275 0.905119
vn -0.000344 0.916560 0.399897
vn -0.000211 0.700253 0.713895
vn 0.000211 0.700253 0.713895
vn 0.000344 0.916560 0.399897
vn -0.000205 -0.009778 0.999952
vn -0.000351 -0.391103 0.920347
vn 0.000351 -0.391103 0.920347
vn 0.000205 -0.009778 0.999952
vn -0.999959 -0.002992 0.008498
vn -0.924093 0.349408 0.154812
vn -0.923831 0.355808 0.141197
vn -0.999978 0.003132 -0.005863
vn -0.381916 0.847848 0.367824
vn -0.000349 0.923099 0.384563
vn -0.382651 0.854763 0.350653
vn -0.382648 -0.361475 0.850245
vn -0.382648 -0.362195 0.849939
vn -0.000351 -0.392179 0.919889
vn -0.923863 -0.149570 0.352287
vn -0.999959 -0.004048 0.008044
vn -0.923863 -0.150211 0.352014
vn -0.000008 0.418603 -0.908169
vn -0.000187 0.700599 -0.713555
vn 0.000194 0.700595 -0.713559
vn 0.000008 0.418664 -0.908141
vn -0.000278 0.999997 -0.002507
vn 0.000349 0.923079 0.384611
vn 0.000277 0.999997 -0.002508
vn -0.061701 0.390907 -0.918360
vn -0.012522 0.400886 -0.916042
vn 0.004111 0.386715 -0.922190
vn 0.003555 0.391631 -0.920115
vn 0.000004 0.384763 -0.923015
vn -0.917020 0.156507 -0.366850
vn -0.917018 0.155927 -0.367104
vn -0.999978 0.002023 -0.006238
vn -0.357864 0.366472 -0.858855
vn -0.061920 0.390880 -0.918357
vn -0.357769 0.364931 -0.859550
vn -0.000205 -0.713937 0.700210
vn 0.000205 -0.713937 0.700210
vn 0.000351 -0.392179 0.919889
vn -0.000211 -0.999953 -0.009738
vn -0.000341 -0.923603 -0.383350
vn 0.000344 -0.923603 -0.383350
vn 0.000211 -0.999953 -0.009738
vn -0.378677 -0.854115 -0.356500
vn -0.379312 -0.851484 -0.362073
vn -0.000349 -0.917104 -0.398648
vn -0.922738 -0.356871 -0.145593
vn -0.922480 -0.355364 -0.150823
vn 0.999959 -0.002993 0.008500
vn 0.923861 -0.149571 0.352292
vn 0.923861 -0.150213 0.352019
vn 0.999959 -0.004051 0.008050
vn 0.382659 -0.361473 0.850241
vn 0.382659 -0.362193 0.849934
vn 0.381916 0.847848 0.367824
vn 0.382542 0.854875 0.350501
vn 0.924093 0.349408 0.154812
vn 0.999978 0.003155 -0.005917
vn 0.923798 0.355830 0.141362
vn 0.062311 0.390890 -0.918326
vn 0.364686 0.365441 -0.856421
vn 0.364663 0.363897 -0.857088
vn 0.062429 0.390865 -0.918328
vn 0.919068 0.154642 -0.362491
vn 0.999978 0.002044 -0.006300
vn 0.919067 0.154051 -0.362744
vn 0.012149 0.401428 -0.915810
vn -0.004096 0.386699 -0.922197
vn -0.000004 0.384743 -0.923024
vn -0.003556 0.391631 -0.920115
vn 0.924112 -0.353753 -0.144483
vn 0.923851 -0.348376 -0.158534
vn 0.381973 -0.852832 -0.356054
vn 0.000349 -0.917083 -0.398696
vn 0.382708 -0.845250 -0.372942
vn -0.000008 0.364273 -0.931292
vn -0.012021 0.382042 -0.924067
vn 0.004061 0.396507 -0.918023
vn 0.000004 0.398517 -0.917161
vn 0.003567 0.391646 -0.920109
vn -0.000271 -0.691351 -0.722519
vn 0.000278 -0.691354 -0.722516
vn -0.000194 0.028571 -0.999592
vn 0.000008 0.364337 -0.931267
vn 0.000187 0.028558 -0.999592
vn 0.012542 0.382315 -0.923947
vn -0.004100 0.396559 -0.918000
vn -0.003571 0.391646 -0.920109
vn -0.000004 0.398497 -0.917169
vn 0.000366 -0.913607 -0.406599
vn 0.000386 -0.692035 -0.721864
vn -0.000386 -0.692035 -0.721864
vn -0.000364 -0.913609 -0.406595
vn 0.000109 0.017638 -0.999844
vn -0.000111 0.017639 -0.999844
vn 0.999840 0.006421 -0.016677
vn 0.922955 -0.344859 -0.170958
vn 0.923543 -0.349368 -0.158146
vn 0.999902 0.004906 -0.013129
vn 0.381019 -0.843280 -0.379083
vn 0.000361 -0.914538 -0.404499
vn 0.379999 -0.847203 -0.371278
vn 0.372511 0.363375 -0.853928
vn 0.372509 0.363524 -0.853866
vn 0.917564 0.154849 -0.366194
vn 0.999840 0.007563 -0.016178
vn 0.917561 0.156565 -0.365472
vn -0.999843 0.006370 -0.016560
vn -0.919354 0.153222 -0.362368
vn -0.919353 0.154945 -0.361637
vn -0.999843 0.007517 -0.016069
vn -0.375417 0.362923 -0.852848
vn -0.375416 0.363072 -0.852785
vn -0.384293 -0.842202 -0.378173
vn -0.383242 -0.845935 -0.370836
vn -0.000362 -0.914540 -0.404496
vn -0.924297 -0.341744 -0.169960
vn -0.999902 0.004913 -0.013137
vn -0.924887 -0.346409 -0.156797
vn -0.000366 0.926386 0.376575
vn -0.000386 0.999998 -0.001759
vn 0.000385 0.999998 -0.001761
vn 0.000364 0.926384 0.376580
vn -0.000109 0.708413 -0.705798
vn 0.000111 0.708412 -0.705799
vn -0.922969 0.362248 0.130017
vn -0.923558 0.356140 0.142146
vn -0.999902 0.006063 -0.012642
vn -0.380995 0.857810 0.344971
vn -0.000361 0.925517 0.378707
vn -0.379977 0.854905 0.353207
vn 0.382647 0.857145 0.344794
vn 0.381621 0.854342 0.352795
vn 0.000361 0.925516 0.378709
vn 0.923628 0.360907 0.129061
vn 0.999902 0.006058 -0.012639
vn 0.924230 0.354672 0.141444
vn 0.000369 0.391054 -0.920368
vn 0.000216 0.009702 -0.999953
vn -0.000216 0.009702 -0.999953
vn -0.000369 0.391054 -0.920367
vn 0.000222 -0.700200 -0.713947
vn -0.000222 -0.700200 -0.713947
vn 0.923897 0.149508 -0.352223
vn 0.923897 0.150207 -0.351925
vn 0.382609 0.361449 -0.850274
vn 0.000369 0.392228 -0.919868
vn 0.382609 0.362234 -0.849940
vn -0.382629 0.361445 -0.850266
vn -0.382629 0.362230 -0.849932
vn -0.000369 0.392228 -0.919868
vn -0.923897 0.149508 -0.352223
vn -0.923897 0.150207 -0.351925
vn -0.000216 0.713929 -0.700218
vn 0.000216 0.713929 -0.700218
vn -0.000222 0.999952 0.009753
vn 0.000222 0.999952 0.009753
vn -0.325278 -0.048464 0.944376
vn -0.325269 0.689542 0.647095
vn -0.887864 0.171891 0.426792
vn -0.335116 0.931362 -0.142344
vn -0.165480 0.570504 -0.804451
vn -0.801376 0.499107 -0.329679
vn -0.325324 -0.944366 -0.048342
vn -0.325346 -0.647026 0.689571
vn -0.887869 -0.426735 0.172007
vn 0.325278 -0.048464 0.944376
vn 0.887865 0.171890 0.426789
vn 0.325269 0.689542 0.647095
vn 0.801205 0.502529 -0.324862
vn 0.158736 0.575284 -0.802404
vn 0.330140 0.932728 -0.145001
vn 0.325316 -0.944367 -0.048373
vn 0.887866 -0.426748 0.171987
vn 0.325320 -0.647037 0.689573
vn -0.156156 0.184497 -0.970349
vn -0.322766 -0.541543 -0.776243
vn -0.322766 -0.541543 -0.776243
vn -0.790679 -0.112391 -0.601826
vn -0.790679 -0.112391 -0.601826
vn 0.335161 -0.543041 -0.769918
vn 0.165493 0.184301 -0.968837
vn 0.801415 -0.108358 -0.588212
vn 0.212455 0.211826 -0.953935
vn 0.334960 -0.555882 -0.760787
vn 0.807812 -0.119099 -0.577282
vn -0.212644 0.211700 -0.953921
vn -0.809425 -0.119282 -0.574981
vn -0.335664 -0.553612 -0.762131
vn -0.212415 0.540648 -0.813990
vn -0.334935 0.933675 -0.126763
vn -0.807824 0.498610 -0.314339
vn 0.806324 0.499070 -0.317445
vn 0.334657 0.933334 -0.129973
vn 0.210406 0.540476 -0.814626
vn 0.325262 -0.689550 -0.647090
vn 0.325245 0.048442 -0.944388
vn 0.887910 -0.171879 -0.426700
vn -0.887901 -0.171923 -0.426701
vn -0.325216 0.048404 -0.944400
vn -0.325249 -0.689532 -0.647115
vn -0.325309 0.944370 0.048361
vn -0.325289 0.647032 -0.689592
vn -0.887909 0.426666 -0.171969
vn 0.325283 0.647052 -0.689576
vn 0.325300 0.944375 0.048325
vn 0.887905 0.426682 -0.171949
s 1
g pPlane6 group2
usemtl initialShadingGroup
f 2/183/1 1/184/2 25/185/3 24/186/4
s 2
f 1/103/5 6/104/6 26/105/7 25/106/8
s 3
f 4/1/9 3/2/10 13/3/11 12/4/12
s 1
f 3/2/13 2/7/1 14/8/14 13/3/15
s 2
f 6/19/6 5/5/16 17/13/17 16/20/18
s 3
f 5/5/19 4/1/9 18/11/20 17/13/21
s 4
f 8/119/22 7/120/23 31/121/24 30/122/25
s 1
f 7/193/26 14/192/14 32/191/27 31/194/28
s 4
f 10/130/29 9/123/30 63/129/31 62/138/32
f 9/123/30 8/119/22 64/128/33 63/129/31
s 3
f 12/4/12 11/9/34 47/15/35 46/12/36
s 4
f 11/9/37 10/21/29 48/22/38 47/15/39
s 2
f 16/109/18 15/113/40 39/114/41 38/110/42
s 6
f 15/197/43 20/198/44 40/199/45 39/200/46
f 20/24/44 19/16/47 45/17/48 44/25/49
s 3
f 19/16/50 18/11/20 46/12/36 45/17/51
s 7
f 22/26/52 21/27/53 37/28/54 36/29/55
s 2
f 21/27/56 26/32/7 38/33/42 37/28/57
s 1
f 24/43/4 23/30/58 33/38/59 32/44/27
s 7
f 23/30/60 22/26/52 34/37/61 33/38/62
s 4
f 28/48/63 27/40/64 53/41/65 52/49/66
s 7
f 27/40/67 34/37/61 54/36/68 53/41/69
s 4
f 30/122/25 29/125/70 71/132/71 70/127/72
f 29/125/70 28/134/63 72/139/73 71/132/71
s 7
f 36/29/55 35/34/74 55/39/75 54/36/68
s 6
f 35/34/76 40/45/45 56/46/77 55/39/78
s 4
f 42/155/79 41/147/80 85/148/81 84/156/82
f 41/147/80 48/142/38 86/143/83 85/148/81
s 6
f 44/203/49 43/207/84 49/208/85 56/204/77
s 4
f 43/163/86 42/155/79 50/159/87 49/165/88
f 52/144/66 51/149/89 79/150/90 78/145/91
f 51/149/89 50/159/87 80/160/92 79/150/90
s 11
f 58/211/93 57/212/94 69/213/95 68/214/96
s 4
f 57/135/97 64/128/33 70/127/72 69/136/98
s 12
f 60/51/99 59/52/100 93/53/101 92/54/102
s 11
f 59/52/103 58/57/93 94/58/104 93/53/105
s 4
f 62/69/32 61/55/106 87/63/107 86/70/83
s 12
f 61/55/108 60/51/99 88/61/109 87/63/110
s 13
f 66/77/111 65/78/112 77/79/113 76/80/114
s 4
f 65/78/115 72/83/73 78/84/91 77/79/116
s 11
f 68/90/96 67/81/117 99/89/118 98/98/119
s 13
f 67/81/120 66/77/111 100/88/121 99/89/122
s 14
f 74/223/123 73/224/124 83/225/125 82/226/126
s 4
f 73/166/127 80/160/92 84/156/82 83/164/128
s 13
f 76/80/114 75/85/129 105/92/130 104/87/131
s 14
f 75/85/132 74/94/123 106/99/133 105/92/134
f 82/74/126 81/66/135 109/67/136 108/75/137
s 12
f 81/66/138 88/61/109 110/62/139 109/67/140
s 15
f 90/167/141 89/168/142 97/169/143 96/170/144
s 11
f 89/217/145 94/216/104 98/215/119 97/218/146
s 12
f 92/54/102 91/59/147 111/65/148 110/62/139
s 15
f 91/59/149 90/71/141 112/72/150 111/65/151
f 96/101/144 95/95/152 103/96/153 102/102/154
s 13
f 95/95/155 100/88/121 104/87/131 103/96/156
s 15
f 102/175/154 101/177/157 107/178/158 112/176/150
s 14
f 101/229/159 106/228/133 108/227/137 107/230/160
s 15
f 90/167/141 96/170/144 102/175/154 112/176/150
s 2
f 6/104/6 16/109/18 38/110/42 26/105/7
s 1
f 2/183/1 24/186/4 32/191/27 14/192/14
s 7
f 22/26/52 36/29/55 54/36/68 34/37/61
s 6
f 40/199/45 20/198/44 44/203/49 56/204/77
s 3
f 18/11/20 4/1/9 12/4/12 46/12/36
s 4
f 8/119/22 30/122/25 70/127/72 64/128/33
f 28/134/63 52/144/66 78/145/91 72/139/73
f 50/159/87 42/155/79 84/156/82 80/160/92
f 48/142/38 10/130/29 62/138/32 86/143/83
s 11
f 58/211/93 68/214/96 98/215/119 94/216/104
s 13
f 66/77/111 76/80/114 104/87/131 100/88/121
s 14
f 74/223/123 82/226/126 108/227/137 106/228/133
s 12
f 88/61/109 60/51/99 92/54/102 110/62/139
s 2
f 5/107/16 6/104/6 1/103/5 113/108/161
s 1
f 1/184/2 2/183/1 3/187/13 113/188/162
s 3
f 3/2/10 4/1/9 5/5/19 113/6/163
s 1
f 13/3/15 14/8/14 7/14/26 114/10/164
s 4
f 7/120/23 8/119/22 9/123/30 114/124/165
f 9/123/30 10/130/29 11/131/37 114/124/165
s 3
f 11/9/34 12/4/12 13/3/11 114/10/166
s 6
f 19/201/47 20/198/44 15/197/43 115/202/167
s 2
f 15/113/40 16/109/18 17/115/17 115/116/168
s 3
f 17/13/21 18/11/20 19/16/50 115/18/169
s 2
f 25/106/8 26/105/7 21/111/56 116/112/170
s 7
f 21/27/53 22/26/52 23/30/60 116/31/171
s 1
f 23/189/58 24/186/4 25/185/3 116/190/172
s 7
f 33/38/62 34/37/61 27/40/67 117/42/173
s 4
f 27/133/64 28/134/63 29/125/70 117/126/174
f 29/125/70 30/122/25 31/121/24 117/126/174
s 1
f 31/194/28 32/191/27 33/195/59 117/196/175
s 6
f 39/200/46 40/199/45 35/205/76 118/206/176
s 7
f 35/34/74 36/29/55 37/28/54 118/35/177
s 2
f 37/117/57 38/110/42 39/114/41 118/118/178
s 4
f 47/151/39 48/142/38 41/147/80 119/152/179
f 41/147/80 42/155/79 43/163/86 119/152/179
s 6
f 43/207/84 44/203/49 45/209/180 119/210/181
s 3
f 45/17/182 46/12/36 47/15/35 119/23/183
s 6
f 55/39/78 56/46/77 49/50/85 120/47/184
s 4
f 49/165/88 50/159/87 51/149/89 120/158/185
f 51/149/89 52/144/66 53/157/65 120/158/185
s 7
f 53/41/69 54/36/68 55/39/75 120/47/186
s 4
f 63/129/31 64/128/33 57/135/97 121/137/187
s 11
f 57/64/94 58/57/93 59/52/103 121/56/188
s 12
f 59/52/100 60/51/99 61/55/108 121/56/189
s 4
f 61/141/106 62/138/32 63/129/31 121/137/187
f 71/132/71 72/139/73 65/146/115 122/140/190
s 13
f 65/78/112 66/77/111 67/81/120 122/82/191
s 11
f 67/81/117 68/90/96 69/91/95 122/82/192
s 4
f 69/136/98 70/127/72 71/132/71 122/140/190
f 79/150/90 80/160/92 73/166/127 123/162/193
s 14
f 73/93/124 74/94/123 75/85/132 123/86/194
s 13
f 75/85/129 76/80/114 77/79/113 123/86/195
s 4
f 77/161/116 78/145/91 79/150/90 123/162/193
s 12
f 87/63/110 88/61/109 81/66/138 124/68/196
s 14
f 81/66/135 82/74/126 83/76/125 124/68/197
s 4
f 83/164/128 84/156/82 85/148/81 124/154/198
f 85/148/81 86/143/83 87/153/107 124/154/198
s 11
f 93/219/105 94/216/104 89/217/145 125/220/199
s 15
f 89/168/142 90/167/141 91/171/149 125/172/200
s 12
f 91/59/147 92/54/102 93/53/101 125/60/201
s 13
f 99/89/122 100/88/121 95/95/155 126/97/202
s 15
f 95/173/152 96/170/144 97/169/143 126/174/203
s 11
f 97/218/146 98/215/119 99/221/118 126/222/204
s 14
f 105/231/134 106/228/133 101/229/159 127/232/205
s 15
f 101/177/157 102/175/154 103/179/153 127/180/206
s 13
f 103/96/156 104/87/131 105/92/130 127/100/207
s 15
f 111/181/151 112/176/150 107/178/158 128/182/208
s 14
f 107/230/160 108/227/137 109/233/136 128/234/209
s 12
f 109/67/140 110/62/139 111/65/148 128/73/210
